<?xml version="1.0" encoding="UTF-8"?>
<svg width="148px" height="25px" viewBox="0 0 148 25" version="1.1" xmlns="http://www.w3.org/2000/svg" xmlns:xlink="http://www.w3.org/1999/xlink">
    <title>Group 9</title>
    <g id="---High-Fidelity" stroke="none" stroke-width="1" fill="none" fill-rule="evenodd">
        <g id="Hifi---Mobile---Navigation" transform="translate(-32.000000, -40.000000)" fill="#FFFFFF">
            <g id="Group-9" transform="translate(32.000000, 40.000000)">
                <g id="BOOKMARK-3" transform="translate(37.000000, 6.000000)" fill-rule="nonzero">
                    <path d="M0,0.298666667 L5.22666667,0.298666667 C5.97333707,0.298666667 6.66088575,0.454220667 7.28933333,0.765333333 C7.91778092,1.076446 8.41244264,1.49955288 8.77333333,2.03466667 C9.13422403,2.56978045 9.31466667,3.15466349 9.31466667,3.78933333 C9.31466667,4.46133669 9.14977943,5.04310865 8.82,5.53466667 C8.49022057,6.02622468 8.05778045,6.40266536 7.52266667,6.664 L7.52266667,6.81333333 C8.21955904,7.06222347 8.77333128,7.45733063 9.184,7.99866667 C9.59466872,8.54000271 9.8,9.19021843 9.8,9.94933333 C9.8,10.6835592 9.60400196,11.3337749 9.212,11.9 C8.81999804,12.4662251 8.29111444,12.9017763 7.62533333,13.2066667 C6.95955223,13.5115571 6.22222627,13.664 5.41333333,13.664 L0,13.664 L0,0.298666667 Z M5.04,5.74933333 C5.58755829,5.74933333 6.02622057,5.59689041 6.356,5.292 C6.68577943,4.98710959 6.85066667,4.60444675 6.85066667,4.144 C6.85066667,3.69599776 6.69200159,3.31955708 6.37466667,3.01466667 C6.05733175,2.70977625 5.63733595,2.55733333 5.11466667,2.55733333 L2.52,2.55733333 L2.52,5.74933333 L5.04,5.74933333 Z M5.32,11.368 C5.92978083,11.368 6.40577607,11.2093349 6.748,10.892 C7.09022393,10.5746651 7.26133333,10.1608914 7.26133333,9.65066667 C7.26133333,9.14044189 7.08711285,8.72355717 6.73866667,8.4 C6.39022048,8.07644283 5.89244768,7.91466667 5.24533333,7.91466667 L2.52,7.91466667 L2.52,11.368 L5.32,11.368 Z M18.2466667,13.9626667 C16.9399935,13.9626667 15.754672,13.6546697 14.6906667,13.0386667 C13.6266613,12.4226636 12.7897808,11.5795609 12.18,10.5093333 C11.5702192,9.43910576 11.2653333,8.26311752 11.2653333,6.98133333 C11.2653333,5.69954915 11.5702192,4.52356091 12.18,3.45333333 C12.7897808,2.38310576 13.6266613,1.54000308 14.6906667,0.924 C15.754672,0.30799692 16.9399935,-1.77635684e-15 18.2466667,-1.77635684e-15 C19.5533399,-1.77635684e-15 20.7386613,0.30799692 21.8026667,0.924 C22.866672,1.54000308 23.7035525,2.38310576 24.3133333,3.45333333 C24.9231142,4.52356091 25.228,5.69954915 25.228,6.98133333 C25.228,8.26311752 24.9231142,9.43910576 24.3133333,10.5093333 C23.7035525,11.5795609 22.866672,12.4226636 21.8026667,13.0386667 C20.7386613,13.6546697 19.5533399,13.9626667 18.2466667,13.9626667 Z M18.2466667,11.5733333 C19.0680041,11.5733333 19.8208855,11.3804464 20.5053333,10.9946667 C21.1897812,10.608887 21.727998,10.067559 22.12,9.37066667 C22.512002,8.67377429 22.708,7.87733781 22.708,6.98133333 C22.708,6.08532885 22.512002,5.28889237 22.12,4.592 C21.727998,3.89510763 21.1897812,3.35377971 20.5053333,2.968 C19.8208855,2.58222029 19.0680041,2.38933333 18.2466667,2.38933333 C17.4253292,2.38933333 16.6755589,2.58222029 15.9973333,2.968 C15.3191077,3.35377971 14.784002,3.89510763 14.392,4.592 C13.999998,5.28889237 13.804,6.08532885 13.804,6.98133333 C13.804,7.87733781 13.999998,8.67377429 14.392,9.37066667 C14.784002,10.067559 15.3191077,10.608887 15.9973333,10.9946667 C16.6755589,11.3804464 17.4253292,11.5733333 18.2466667,11.5733333 Z M33.6,13.9626667 C32.2933268,13.9626667 31.1080053,13.6546697 30.044,13.0386667 C28.9799947,12.4226636 28.1431141,11.5795609 27.5333333,10.5093333 C26.9235525,9.43910576 26.6186667,8.26311752 26.6186667,6.98133333 C26.6186667,5.69954915 26.9235525,4.52356091 27.5333333,3.45333333 C28.1431141,2.38310576 28.9799947,1.54000308 30.044,0.924 C31.1080053,0.30799692 32.2933268,-1.77635684e-15 33.6,-1.77635684e-15 C34.9066732,-1.77635684e-15 36.0919947,0.30799692 37.156,0.924 C38.2200053,1.54000308 39.0568858,2.38310576 39.6666667,3.45333333 C40.2764475,4.52356091 40.5813333,5.69954915 40.5813333,6.98133333 C40.5813333,8.26311752 40.2764475,9.43910576 39.6666667,10.5093333 C39.0568858,11.5795609 38.2200053,12.4226636 37.156,13.0386667 C36.0919947,13.6546697 34.9066732,13.9626667 33.6,13.9626667 Z M33.6,11.5733333 C34.4213374,11.5733333 35.1742188,11.3804464 35.8586667,10.9946667 C36.5431145,10.608887 37.0813314,10.067559 37.4733333,9.37066667 C37.8653353,8.67377429 38.0613333,7.87733781 38.0613333,6.98133333 C38.0613333,6.08532885 37.8653353,5.28889237 37.4733333,4.592 C37.0813314,3.89510763 36.5431145,3.35377971 35.8586667,2.968 C35.1742188,2.58222029 34.4213374,2.38933333 33.6,2.38933333 C32.7786625,2.38933333 32.0288923,2.58222029 31.3506667,2.968 C30.672441,3.35377971 30.1373353,3.89510763 29.7453333,4.592 C29.3533314,5.28889237 29.1573333,6.08532885 29.1573333,6.98133333 C29.1573333,7.87733781 29.3533314,8.67377429 29.7453333,9.37066667 C30.1373353,10.067559 30.672441,10.608887 31.3506667,10.9946667 C32.0288923,11.3804464 32.7786625,11.5733333 33.6,11.5733333 Z M42.8306666,0.298666667 L45.3506666,0.298666667 L45.3506666,6.02933333 L45.5,6.02933333 L50.3906666,0.298666667 L53.4333333,0.298666667 L53.4333333,0.448 L48.5986666,5.97333333 L53.9373333,13.5146667 L53.9373333,13.664 L50.8573333,13.664 L46.8626666,7.97066667 L45.3506666,9.744 L45.3506666,13.664 L42.8306666,13.664 L42.8306666,0.298666667 Z M56.7777778,3.55271368e-15 L60.0257778,3.55271368e-15 L63.5724444,9.38933333 L63.7217778,9.38933333 L67.2684444,3.55271368e-15 L70.5351111,3.55271368e-15 L70.5351111,13.3653333 L68.0337778,13.3653333 L68.0337778,6.776 L68.1831111,4.55466667 L68.0337778,4.55466667 L64.6364444,13.3653333 L62.6764444,13.3653333 L59.2604444,4.55466667 L59.1111111,4.55466667 L59.2604444,6.776 L59.2604444,13.3653333 L56.7777778,13.3653333 L56.7777778,3.55271368e-15 Z M77.5786667,3.55271368e-15 L80.472,3.55271368e-15 L85.4933333,13.3653333 L82.712,13.3653333 L81.592,10.1733333 L76.4773333,10.1733333 L75.3573333,13.3653333 L72.576,13.3653333 L77.5786667,3.55271368e-15 Z M80.7706667,7.85866667 L79.5946667,4.49866667 L79.1093333,2.89333333 L78.96,2.89333333 L78.4746667,4.49866667 L77.28,7.85866667 L80.7706667,7.85866667 Z M87.5528889,3.55271368e-15 L92.4248889,3.55271368e-15 C93.2960044,3.55271368e-15 94.0706633,0.18044264 94.7488889,0.541333333 C95.4271145,0.902224027 95.952887,1.40310791 96.3262222,2.044 C96.6995574,2.68489209 96.8862222,3.40977373 96.8862222,4.21866667 C96.8862222,5.07733763 96.6155583,5.83955223 96.0742222,6.50533333 C95.5328862,7.17111444 94.8515597,7.65333184 94.0302222,7.952 L94.0115556,8.08266667 L97.5955556,13.216 L97.5955556,13.3653333 L94.7022222,13.3653333 L91.2488889,8.344 L90.0728889,8.344 L90.0728889,13.3653333 L87.5528889,13.3653333 L87.5528889,3.55271368e-15 Z M92.4062222,6.02933333 C92.9786695,6.02933333 93.4453315,5.85511285 93.8062222,5.50666667 C94.1671129,5.15822048 94.3475556,4.71644712 94.3475556,4.18133333 C94.3475556,3.67110856 94.1764462,3.23555736 93.8342222,2.87466667 C93.4919983,2.51377597 93.0284474,2.33333333 92.4435556,2.33333333 L90.0728889,2.33333333 L90.0728889,6.02933333 L92.4062222,6.02933333 Z M99.6364444,3.55271368e-15 L102.156444,3.55271368e-15 L102.156444,5.73066667 L102.305778,5.73066667 L107.196444,3.55271368e-15 L110.239111,3.55271368e-15 L110.239111,0.149333333 L105.404444,5.67466667 L110.743111,13.216 L110.743111,13.3653333 L107.663111,13.3653333 L103.668444,7.672 L102.156444,9.44533333 L102.156444,13.3653333 L99.6364444,13.3653333 L99.6364444,3.55271368e-15 Z" id="BOOKMARK"></path>
                </g>
                <g id="Group-8">
                    <path d="M12.5,0 C19.4035594,0 25,5.59644063 25,12.5 C25,19.4035594 19.4035594,25 12.5,25 C5.59644063,25 0,19.4035594 0,12.5 C0,5.59644063 5.59644063,0 12.5,0 Z M14.0789166,7 L11,7 C9.8954305,7 9,7.8954305 9,9 L9,19 L12.5394583,15.560885 L16.0789166,19 L16.0789166,9 C16.0789166,7.8954305 15.1834861,7 14.0789166,7 Z" id="Combined-Shape"></path>
                </g>
            </g>
        </g>
    </g>
</svg>