<svg xmlns="http://www.w3.org/2000/svg" width="358" height="100"><g fill="none" fill-rule="evenodd"><circle cx="100" cy="100" r="100" fill="#2C6269"/><path fill="#012F34" d="M258 0c55.228 0 100 44.772 100 100s-44.772 100-100 100-100-44.772-100-100S202.772 0 258 0zm0 67c-18.225 0-33 14.775-33 33s14.775 33 33 33 33-14.775 33-33-14.775-33-33-33z"/><path fill="#79C8C7" d="M358 43h-43V0h43z"/><path fill="#F67E7E" d="M233.514 0c55.228 0 100 44.772 100 100s-44.772 100-100 100c-55.229 0-100-44.772-100-100s44.771-100 100-100zm0 67c-18.226 0-33 14.775-33 33s14.774 33 33 33c18.225 0 33-14.775 33-33s-14.775-33-33-33z"/><path fill="#79C8C7" d="M100 40v4H0v-4h100zm0-8v4H0v-4h100zm0-8v4H0v-4h100zm0-8v4H0v-4h100zm0-8v4H0V8h100zm0-8v4H0V0h100z"/></g></svg>