<?xml version="1.0" encoding="utf-8"?>
<!-- Generator: Adobe Illustrator 24.2.1, SVG Export Plug-In . SVG Version: 6.00 Build 0)  -->
<svg version="1.1" id="Layer_1" xmlns="http://www.w3.org/2000/svg" xmlns:xlink="http://www.w3.org/1999/xlink" x="0px" y="0px"
	 viewBox="0 0 375 345" style="enable-background:new 0 0 375 345;" xml:space="preserve">
<style type="text/css">
	.st0{fill-rule:evenodd;clip-rule:evenodd;}
	.st1{fill-rule:evenodd;clip-rule:evenodd;fill:#2D314D;}
	.st2{fill-rule:evenodd;clip-rule:evenodd;fill:url(#Path-6-Copy_1_);}
</style>
<g id="High-Fidelity">
	<g id="Group-33" transform="translate(-94.000000, -52.000000)">
		<g id="Path-6">
			<g>
				<path id="path-1" class="st0" d="M42.5,162.6l70.7,70.8c18.8,18.8,44.2,29.3,70.7,29.3h11c26.5,0,52,10.5,70.7,29.3l75.7,75.7
					c18.8,18.8,44.2,29.3,70.7,29.3h221.7c27.5,0,49.8-22.3,49.8-49.8c0-13.2-5.2-25.9-14.6-35.2l-52.8-52.8
					c-7.4-7.4-7.4-19.3,0-26.7c3.5-3.5,8.3-5.5,13.3-5.5c10.4,0,18.8-8.4,18.8-18.8c0-5-2-9.8-5.5-13.3L534.7,86.7
					C516,67.9,490.6,57.4,464,57.4H352c-26,0-50.9-10.3-69.3-28.7S239.5,0,213.5,0H84.9C65.5,0,49.8,15.8,49.8,35.2
					c0,9.3,3.7,18.3,10.3,24.9l17.6,17.6c9.7,9.7,9.7,25.5,0,35.2c-4.7,4.7-11,7.3-17.6,7.3c-13.7,0-24.9,11.1-24.9,24.9
					C35.2,151.6,37.8,157.9,42.5,162.6z"/>
			</g>
			<g>
				<path id="path-1_1_" class="st1" d="M42.5,162.6l70.7,70.8c18.8,18.8,44.2,29.3,70.7,29.3h11c26.5,0,52,10.5,70.7,29.3
					l75.7,75.7c18.8,18.8,44.2,29.3,70.7,29.3h221.7c27.5,0,49.8-22.3,49.8-49.8c0-13.2-5.2-25.9-14.6-35.2l-52.8-52.8
					c-7.4-7.4-7.4-19.3,0-26.7c3.5-3.5,8.3-5.5,13.3-5.5c10.4,0,18.8-8.4,18.8-18.8c0-5-2-9.8-5.5-13.3L534.7,86.7
					C516,67.9,490.6,57.4,464,57.4H352c-26,0-50.9-10.3-69.3-28.7S239.5,0,213.5,0H84.9C65.5,0,49.8,15.8,49.8,35.2
					c0,9.3,3.7,18.3,10.3,24.9l17.6,17.6c9.7,9.7,9.7,25.5,0,35.2c-4.7,4.7-11,7.3-17.6,7.3c-13.7,0-24.9,11.1-24.9,24.9
					C35.2,151.6,37.8,157.9,42.5,162.6z"/>
			</g>
		</g>
		
			<linearGradient id="Path-6-Copy_1_" gradientUnits="userSpaceOnUse" x1="93.9949" y1="404.7989" x2="94.9907" y2="404.5229" gradientTransform="matrix(648.4101 0 0 -397 -60701.375 160857)">
			<stop  offset="0" style="stop-color:#33D35E"/>
			<stop  offset="1" style="stop-color:#2AB6D9"/>
		</linearGradient>
		<path id="Path-6-Copy" class="st2" d="M256.5,163.6l70.7,70.8c18.8,18.8,44.2,29.3,70.7,29.3h11c26.5,0,52,10.5,70.7,29.3
			l75.7,75.7c18.8,18.8,44.2,29.3,70.7,29.3h221.7c27.5,0,49.8-22.3,49.8-49.8c0-13.2-5.2-25.9-14.6-35.2l-52.8-52.8
			c-7.4-7.4-7.4-19.3,0-26.7c3.5-3.5,8.3-5.5,13.3-5.5c10.4,0,18.8-8.4,18.8-18.8c0-5-2-9.8-5.5-13.3L748.7,87.7
			C730,68.9,704.6,58.4,678,58.4H566c-26,0-50.9-10.3-69.3-28.7S453.5,1,427.5,1H298.9c-19.4,0-35.2,15.8-35.2,35.2
			c0,9.3,3.7,18.3,10.3,24.9l17.6,17.6c9.7,9.7,9.7,25.5,0,35.2c-4.7,4.7-11,7.3-17.6,7.3c-13.7,0-24.9,11.1-24.9,24.9
			C249.2,152.6,251.8,158.9,256.5,163.6z"/>
	</g>
</g>
</svg>
