<?xml version="1.0" encoding="UTF-8"?>
<svg width="139px" height="20px" viewBox="0 0 139 20" version="1.1" xmlns="http://www.w3.org/2000/svg" xmlns:xlink="http://www.w3.org/1999/xlink">
    <title>Group 9</title>
    <defs>
        <linearGradient x1="72.1946336%" y1="0%" x2="17.5030603%" y2="100%" id="linearGradient-1">
            <stop stop-color="#33D35E" offset="0%"></stop>
            <stop stop-color="#2AB6D9" offset="100%"></stop>
        </linearGradient>
    </defs>
    <g id="High-Fidelity" stroke="none" stroke-width="1" fill="none" fill-rule="evenodd">
        <g id="P2357---Desktop" transform="translate(-165.000000, -2119.000000)">
            <g id="Group-35" transform="translate(0.000000, 2071.000000)">
                <g id="Group-9" transform="translate(165.000000, 48.000000)">
                    <path d="M37.753895,15.8465265 C40.6061054,15.8465265 42.905895,14.2254738 43.705895,11.6309474 L39.8092635,11.6309474 C39.4328424,12.2964211 38.6686318,12.6970526 37.753895,12.6970526 C36.517474,12.6970526 35.6892636,12.0227369 35.4330531,10.7187368 L43.8745268,10.7187368 C43.9254741,10.3671579 43.9553688,10.0246315 43.9553688,9.68210513 C43.9555793,6.34715801 41.418316,3.73284238 37.753895,3.73284238 C34.1856844,3.73284238 31.5789474,6.29557913 31.5789474,9.78084235 C31.5789474,13.253895 34.206737,15.8465265 37.753895,15.8465265 Z M40.0978953,8.55031546 L35.5021057,8.55031546 C35.8189479,7.42105231 36.6124216,6.80105237 37.7536849,6.80105237 C38.9353689,6.80105237 39.7543161,7.4141049 40.0978953,8.55031546 Z M51.0440002,15.846316 C52.3644213,15.846316 53.5433687,15.4117897 54.4743161,14.6576843 L54.8096844,15.4616844 L57.8368421,15.4616844 L57.8368421,4.09326332 L54.918316,4.09305259 L54.5176845,4.97221037 C53.5789477,4.1976842 52.3829477,3.75052619 51.0440002,3.75052619 C47.5677898,3.75052619 45.0829477,6.2564209 45.0829477,9.77726312 C45.0829477,13.3103159 47.5677898,15.846316 51.0440002,15.846316 Z M51.5675788,12.3791581 C50.1008423,12.3791581 49.0227369,11.2709476 49.0227369,9.78631592 C49.0227369,8.31073705 50.0919999,7.20252653 51.5675788,7.20252653 C53.0343156,7.20252653 54.112421,8.31073705 54.112421,9.78631592 C54.112421,11.2709476 53.0343156,12.3791581 51.5675788,12.3791581 Z M64.6905264,15.8461063 C67.7113689,15.8463157 69.7164217,14.2915788 69.7164217,11.9157892 C69.7164217,9.03284173 67.3286322,8.65957866 65.5328427,8.34063142 C64.4528426,8.14799997 63.5833689,7.99747379 63.5833689,7.35052651 C63.5833689,6.82357917 64.0050531,6.51284244 64.6328427,6.51284244 C65.3423163,6.51284244 65.8303162,6.8503161 65.8303162,7.57621074 L69.4972634,7.57621074 C69.4526319,5.27263184 67.5764215,3.73263196 64.6814742,3.73263196 C61.7686321,3.73263196 59.8267373,5.20378996 59.8267373,7.48252692 C59.8267373,10.2397901 62.1635794,10.7717902 63.9263161,11.0574746 C65.0185267,11.2381062 65.8791584,11.4250536 65.8791584,12.080843 C65.8791584,12.668422 65.3362112,12.9606326 64.7633689,12.9606326 C64.0208425,12.9606326 63.4421056,12.577896 63.4421056,11.7465274 L59.673053,11.7465274 C59.7088424,14.2096853 61.5920002,15.8461063 64.6905264,15.8461063 Z M72.7911583,19.7040001 C75.7265265,19.7040001 77.1351582,18.447158 78.6675791,14.9677895 L83.4324212,4.10526316 L79.2256846,4.10526316 L76.9774742,10.3677895 L74.5648425,4.10526316 L70.3096847,4.10526316 L75.0075793,14.5345263 C74.477053,15.9492631 74.0252634,16.3393683 72.5271581,16.3393683 L71.4503161,16.3393683 L71.4503161,19.7040001 L72.7911583,19.7040001 Z M91.2953684,15.8461053 C94.7957895,15.8461053 97.2684211,13.3311578 97.2684211,9.79810502 C97.2684211,6.26505223 94.7957895,3.75031546 91.2953684,3.75031546 C90.2440002,3.75052619 89.2840001,4.03157895 88.470316,4.53410516 L88.470316,7.47939722e-15 L84.599158,7.47939722e-15 L84.599158,15.4736842 L87.4968422,15.4736842 L87.8661053,14.6296843 C88.7896841,15.4012631 89.9686315,15.8461053 91.2953684,15.8461053 Z M90.7715788,12.3787366 C89.304842,12.3787366 88.2267366,11.2705261 88.2267366,9.79810502 C88.2267366,8.31347335 89.304842,7.20526284 90.7715788,7.20526284 C92.2383156,7.20526284 93.316421,8.31347335 93.316421,9.79810502 C93.316421,11.2705261 92.2292631,12.3787366 90.7715788,12.3787366 Z M104.370316,15.846316 C105.690737,15.846316 106.869684,15.4117897 107.800632,14.6576843 L108.136,15.4616844 L111.163158,15.4616844 L111.163158,4.09326332 L108.244632,4.09305259 L107.844,4.97221037 C106.905263,4.1976842 105.709264,3.75052619 104.370316,3.75052619 C100.894106,3.75052619 98.4092635,6.2564209 98.4092635,9.77726312 C98.4092635,13.3103159 100.894106,15.846316 104.370316,15.846316 Z M104.893895,12.3791581 C103.427158,12.3791581 102.349053,11.2709476 102.349053,9.78631592 C102.349053,8.31073705 103.418316,7.20252653 104.893895,7.20252653 C106.360631,7.20252653 107.438737,8.31073705 107.438737,9.78631592 C107.438737,11.2709476 106.360631,12.3791581 104.893895,12.3791581 Z M117.546526,15.4736849 L117.546526,9.40294768 C117.546526,7.9560004 118.249052,7.10315841 119.470105,7.10315841 C120.455579,7.10315841 120.952631,7.75957931 120.952631,9.08273733 L120.952631,15.4736849 L124.868421,15.4736849 L124.868421,8.54168476 C124.868421,5.64526367 123.134526,3.76905325 120.494526,3.76905325 C119.024421,3.76905325 117.762316,4.33431589 116.915789,5.27747385 L116.377895,4.10526348 L113.630737,4.10526348 L113.630737,15.4736849 L117.546526,15.4736849 Z M131.295158,15.4736842 L131.295158,10.6661053 L134.142526,15.4736842 L138.758737,15.4736842 L134.857263,9.52357884 L138.40021,4.10526316 L134.003368,4.10526316 L131.295158,8.55894743 L131.295158,7.47939722e-15 L127.379368,7.47939722e-15 L127.379368,15.4736842 L131.295158,15.4736842 Z" id="easybank" fill="#FFFFFF" fill-rule="nonzero"></path>
                    <g id="Group-8" fill="url(#linearGradient-1)">
                        <polygon id="Path-5" points="10.8024719 0 -8.97527666e-14 19.7040001 5.98607831 19.7040001 16.7885502 0"></polygon>
                        <polygon id="Path-5-Copy" opacity="0.5" points="18.170893 0 7.36842105 19.7040001 13.3544994 19.7040001 24.1569713 0"></polygon>
                        <polygon id="Path-5-Copy-2" opacity="0.15" points="25.539314 0 14.7368421 19.7040001 20.7229204 19.7040001 31.5253924 0"></polygon>
                    </g>
                </g>
            </g>
        </g>
    </g>
</svg>