<?xml version="1.0" encoding="UTF-8"?>
<svg width="120px" height="33px" viewBox="0 0 120 33" version="1.1" xmlns="http://www.w3.org/2000/svg" xmlns:xlink="http://www.w3.org/1999/xlink">
    <title>Shortly</title>
    <g id="Hifi" stroke="none" stroke-width="1" fill="none" fill-rule="evenodd">
        <g id="Mobile" transform="translate(-127.000000, -2763.000000)" fill="#FFFFFF" fill-rule="nonzero">
            <g id="Group-20" transform="translate(0.000000, 2709.000000)">
                <path d="M143.184,61.752 C143.116,61.6613329 142.878002,61.4913346 142.47,61.242 C142.061998,60.9926654 141.552003,60.7320014 140.94,60.46 C140.327997,60.1879986 139.659337,59.950001 138.934,59.746 C138.208663,59.541999 137.483337,59.44 136.758,59.44 C134.763323,59.44 133.766,60.10866 133.766,61.446 C133.766,61.854002 133.873666,62.1939986 134.089,62.466 C134.304334,62.7380014 134.621665,62.9816656 135.041,63.197 C135.460335,63.4123344 135.98733,63.6106658 136.622,63.792 L138.027332,64.1848886 C138.284221,64.255407 138.552443,64.3284441 138.832,64.404 C139.988006,64.7213349 141.030662,65.0669981 141.96,65.441 C142.889338,65.8150019 143.676997,66.2796639 144.323,66.835 C144.969003,67.3903361 145.467665,68.0646627 145.819,68.858 C146.170335,69.6513373 146.346,70.6033278 146.346,71.714 C146.346,73.0740068 146.091003,74.2243286 145.581,75.165 C145.070997,76.1056714 144.396671,76.8649971 143.558,77.443 C142.719329,78.0210029 141.756005,78.440332 140.668,78.701 C139.579995,78.961668 138.458006,79.092 137.302,79.092 C136.417996,79.092 135.511338,79.0240007 134.582,78.888 C133.652662,78.7519993 132.746004,78.553668 131.862,78.293 C130.977996,78.032332 130.122337,77.7206685 129.295,77.358 C128.467663,76.9953315 127.70267,76.5760024 127,76.1 L129.448,71.238 C129.538667,71.3513339 129.833331,71.5666651 130.332,71.884 C130.830669,72.2013349 131.44833,72.5186651 132.185,72.836 C132.92167,73.1533349 133.743329,73.4366654 134.65,73.686 C135.556671,73.9353346 136.474662,74.06 137.404,74.06 C139.37601,74.06 140.362,73.4593393 140.362,72.258 C140.362,71.8046644 140.214668,71.4306681 139.92,71.136 C139.625332,70.8413319 139.217336,70.5750012 138.696,70.337 C138.261553,70.1386657 137.760215,69.9521393 137.191973,69.7774169 L135.490481,69.2823202 C135.174961,69.1898404 134.849468,69.0937338 134.514,68.994 C133.403328,68.6539983 132.440004,68.2856687 131.624,67.889 C130.807996,67.4923314 130.133669,67.0333359 129.601,66.512 C129.068331,65.9906641 128.671668,65.3900034 128.411,64.71 C128.150332,64.0299966 128.02,63.2366712 128.02,62.33 C128.02,61.0606603 128.257998,59.9386715 128.734,58.964 C129.210002,57.9893285 129.855996,57.16767 130.672,56.499 C131.488004,55.83033 132.434328,55.3260017 133.511,54.986 C134.587672,54.6459983 135.726661,54.476 136.928,54.476 C137.766671,54.476 138.593996,54.5553325 139.41,54.714 C140.226004,54.8726675 141.007996,55.0766654 141.756,55.326 C142.504004,55.5753346 143.200997,55.8586651 143.847,56.176 C144.493003,56.4933349 145.087997,56.8106651 145.632,57.128 L143.184,61.752 Z M166.608111,78.82 L161.168111,78.82 L161.168111,68.79 C161.168111,67.6339942 160.941447,66.7840027 160.488111,66.24 C160.034776,65.6959973 159.411448,65.424 158.618111,65.424 C158.300776,65.424 157.955113,65.4976659 157.581111,65.645 C157.207109,65.7923341 156.844446,66.0076653 156.493111,66.291 C156.141776,66.5743347 155.818779,66.9086647 155.524111,67.294 C155.229443,67.6793353 155.002779,68.1099976 154.844111,68.586 L154.844111,78.82 L149.404111,78.82 L149.404111,54 L154.844111,54 L154.844111,63.962 C155.501448,62.8966613 156.368439,62.0750029 157.445111,61.497 C158.521783,60.9189971 159.706105,60.63 160.998111,60.63 C162.19945,60.63 163.168441,60.8396646 163.905111,61.259 C164.641781,61.6783354 165.208442,62.2109968 165.605111,62.857 C166.00178,63.5030032 166.26811,64.2283293 166.404111,65.033 C166.540112,65.8376707 166.608111,66.6253295 166.608111,67.396 L166.608111,78.82 Z M178.948222,79.16 C177.429548,79.16 176.075228,78.9106692 174.885222,78.412 C173.695216,77.9133308 172.692226,77.2390042 171.876222,76.389 C171.060218,75.5389957 170.442558,74.5530056 170.023222,73.431 C169.603887,72.3089944 169.394222,71.1360061 169.394222,69.912 C169.394222,68.6879939 169.603887,67.5150056 170.023222,66.393 C170.442558,65.2709944 171.060218,64.2850043 171.876222,63.435 C172.692226,62.5849958 173.695216,61.9050025 174.885222,61.395 C176.075228,60.8849975 177.429548,60.63 178.948222,60.63 C180.466896,60.63 181.81555,60.8849975 182.994222,61.395 C184.172895,61.9050025 185.170218,62.5849958 185.986222,63.435 C186.802226,64.2850043 187.425553,65.2709944 187.856222,66.393 C188.286891,67.5150056 188.502222,68.6879939 188.502222,69.912 C188.502222,71.1360061 188.292558,72.3089944 187.873222,73.431 C187.453887,74.5530056 186.836226,75.5389957 186.020222,76.389 C185.204218,77.2390042 184.201228,77.9133308 183.011222,78.412 C181.821216,78.9106692 180.466896,79.16 178.948222,79.16 Z M174.970222,69.912 C174.970222,71.3173404 175.344218,72.4449958 176.092222,73.295 C176.840226,74.1450042 177.792216,74.57 178.948222,74.57 C179.514892,74.57 180.03622,74.4566678 180.512222,74.23 C180.988225,74.0033322 181.401887,73.686002 181.753222,73.278 C182.104557,72.869998 182.382221,72.3770029 182.586222,71.799 C182.790223,71.2209971 182.892222,70.5920034 182.892222,69.912 C182.892222,68.5066596 182.518226,67.3790043 181.770222,66.529 C181.022218,65.6789957 180.081561,65.254 178.948222,65.254 C178.381553,65.254 177.854558,65.3673322 177.367222,65.594 C176.879886,65.8206678 176.460557,66.137998 176.109222,66.546 C175.757887,66.954002 175.480223,67.4469971 175.276222,68.025 C175.072221,68.6030029 174.970222,69.2319966 174.970222,69.912 Z M202.746333,65.628 C201.43166,65.6506668 200.241672,65.865998 199.176333,66.274 C198.110995,66.682002 197.340336,67.2939959 196.864333,68.11 L196.864333,78.82 L191.424333,78.82 L191.424333,60.97 L196.422333,60.97 L196.422333,64.574 C197.034336,63.3726607 197.821995,62.4320034 198.785333,61.752 C199.748671,61.0719966 200.774328,60.7206668 201.862333,60.698 L202.406333,60.698 C202.519667,60.698 202.632999,60.7093332 202.746333,60.732 L202.746333,65.628 Z M216.820444,77.868 C216.072441,78.1853349 215.216783,78.4799986 214.253444,78.752 C213.290106,79.0240014 212.321116,79.16 211.346444,79.16 C210.666441,79.16 210.026114,79.0750009 209.425444,78.905 C208.824775,78.7349992 208.29778,78.4630019 207.844444,78.089 C207.391109,77.7149981 207.034112,77.2220031 206.773444,76.61 C206.512776,75.9979969 206.382444,75.2613376 206.382444,74.4 L206.382444,65.084 L204.104444,65.084 L204.104444,60.97 L206.382444,60.97 L206.382444,55.292 L211.822444,55.292 L211.822444,60.97 L215.460444,60.97 L215.460444,65.084 L211.822444,65.084 L211.822444,72.53 C211.822444,73.1193363 211.969776,73.544332 212.264444,73.805 C212.559113,74.065668 212.933109,74.196 213.386444,74.196 C213.794446,74.196 214.213776,74.1280007 214.644444,73.992 C215.075113,73.8559993 215.44911,73.7086675 215.766444,73.55 L216.820444,77.868 Z M219.096556,54 L224.536556,54 L224.536556,72.462 C224.536556,73.8220068 225.11455,74.502 226.270556,74.502 C226.542557,74.502 226.842887,74.4623337 227.171556,74.383 C227.500224,74.3036663 227.800554,74.1846675 228.072556,74.026 L228.786556,78.106 C228.106552,78.4233349 227.32456,78.6726658 226.440556,78.854 C225.556551,79.0353342 224.729226,79.126 223.958556,79.126 C222.394548,79.126 221.193226,78.7180041 220.354556,77.902 C219.515885,77.0859959 219.096556,75.907341 219.096556,74.366 L219.096556,54 Z M230.552667,81.506 C231.006002,81.6646675 231.430998,81.7779997 231.827667,81.846 C232.224335,81.9140003 232.581332,81.948 232.898667,81.948 C233.556003,81.948 234.065998,81.7213356 234.428667,81.268 C234.791335,80.8146644 235.119999,79.9986726 235.414667,78.82 L228.614667,60.97 L234.224667,60.97 L238.372667,74.162 L241.942667,60.97 L247.042667,60.97 L240.242667,81.71 C239.766664,83.1833407 238.916673,84.3789954 237.692667,85.297 C236.468661,86.2150046 235.018008,86.674 233.340667,86.674 C232.887331,86.674 232.428336,86.6343337 231.963667,86.555 C231.498998,86.4756663 231.028669,86.3453342 230.552667,86.164 L230.552667,81.506 Z" id="Shortly"></path>
            </g>
        </g>
    </g>
</svg>