<?xml version="1.0" encoding="utf-8"?>
<!-- Generator: Adobe Illustrator 24.2.0, SVG Export Plug-In . SVG Version: 6.00 Build 0)  -->
<svg version="1.1" id="Layer_1" xmlns="http://www.w3.org/2000/svg" xmlns:xlink="http://www.w3.org/1999/xlink" x="0px" y="0px"
	 viewBox="0 0 1440 420" style="enable-background:new 0 0 1440 420;" xml:space="preserve">
<style type="text/css">
	.st0{fill-rule:evenodd;clip-rule:evenodd;fill:#0F1B3D;}
	.st1{filter:url(#Adobe_OpacityMaskFilter);}
	.st2{fill-rule:evenodd;clip-rule:evenodd;fill:#FFFFFF;}
	.st3{mask:url(#c_1_);fill-rule:evenodd;clip-rule:evenodd;fill:url(#shadow3_1_);fill-opacity:0.75;}
	.st4{filter:url(#Adobe_OpacityMaskFilter_1_);}
	.st5{mask:url(#c_2_);fill-rule:evenodd;clip-rule:evenodd;fill:url(#shadow2_1_);fill-opacity:0.75;}
	.st6{filter:url(#Adobe_OpacityMaskFilter_2_);}
	
		.st7{opacity:0.401;mask:url(#c_3_);fill-rule:evenodd;clip-rule:evenodd;fill:url(#shadow1_1_);fill-opacity:0.75;enable-background:new    ;}
</style>
<g>
	<path id="a_1_" class="st0" d="M210,0h1230v420H0V210C0,94,94,0,210,0z"/>
	<defs>
		<filter id="Adobe_OpacityMaskFilter" filterUnits="userSpaceOnUse" x="87" y="-352" width="1866" height="1360">
			<feColorMatrix  type="matrix" values="1 0 0 0 0  0 1 0 0 0  0 0 1 0 0  0 0 0 1 0"/>
		</filter>
	</defs>
	<mask maskUnits="userSpaceOnUse" x="87" y="-352" width="1866" height="1360" id="c_1_">
		<g class="st1">
			<path id="a_2_" class="st2" d="M210,0h1230v420H0V210C0,94,94,0,210,0z"/>
		</g>
	</mask>
	
		<linearGradient id="shadow3_1_" gradientUnits="userSpaceOnUse" x1="288.5674" y1="642.4542" x2="288.8409" y2="642.2358" gradientTransform="matrix(-1865.9993 0 0 -1360.0004 539648.8125 873907.25)">
		<stop  offset="0" style="stop-color:#1E2D69"/>
		<stop  offset="0.9991" style="stop-color:#0C122C;stop-opacity:0"/>
	</linearGradient>
	<path id="shadow3" class="st3" d="M1947,658c33.3-179.4-64.4-338-457.6-371.4c-393.2-33.4-413.4-249.5-629.1-443.9
		c-215.7-194.3-609.3-330.9-719.7,32c-110.3,362.9-67.5,599.4,291.2,898c358.6,298.6,736.1,236.9,892.1,214
		C1479.9,963.8,1913.7,837.4,1947,658L1947,658z"/>
	<defs>
		<filter id="Adobe_OpacityMaskFilter_1_" filterUnits="userSpaceOnUse" x="-86" y="-111" width="1345.6" height="981">
			<feColorMatrix  type="matrix" values="1 0 0 0 0  0 1 0 0 0  0 0 1 0 0  0 0 0 1 0"/>
		</filter>
	</defs>
	<mask maskUnits="userSpaceOnUse" x="-86" y="-111" width="1345.6" height="981" id="c_2_">
		<g class="st4">
			<path id="a_3_" class="st2" d="M210,0h1230v420H0V210C0,94,94,0,210,0z"/>
		</g>
	</mask>
	
		<linearGradient id="shadow2_1_" gradientUnits="userSpaceOnUse" x1="288.627" y1="642.3915" x2="288.9006" y2="642.173" gradientTransform="matrix(-1345.6029 0 0 -980.9893 389081.25 630444.125)">
		<stop  offset="0" style="stop-color:#1E2D69"/>
		<stop  offset="0.9991" style="stop-color:#0C122C;stop-opacity:0"/>
	</linearGradient>
	<path id="shadow2" class="st5" d="M1255.2,617.5c24-129.4-46.4-243.8-330-267.9c-283.6-24.1-298.1-180-453.6-320.2
		C316.1-110.7,32.2-209.2-47.3,52.6c-79.6,261.8-48.6,432.4,210,647.8c258.6,215.4,530.8,170.9,643.3,154.3
		C918.4,838.1,1231.2,746.9,1255.2,617.5L1255.2,617.5z"/>
	<defs>
		<filter id="Adobe_OpacityMaskFilter_2_" filterUnits="userSpaceOnUse" x="-114" y="163" width="1345.6" height="981">
			<feColorMatrix  type="matrix" values="1 0 0 0 0  0 1 0 0 0  0 0 1 0 0  0 0 0 1 0"/>
		</filter>
	</defs>
	<mask maskUnits="userSpaceOnUse" x="-114" y="163" width="1345.6" height="981" id="c_3_">
		<g class="st6">
			<path id="a_4_" class="st2" d="M210,0h1230v420H0V210C0,94,94,0,210,0z"/>
		</g>
	</mask>
	
		<linearGradient id="shadow1_1_" gradientUnits="userSpaceOnUse" x1="288.627" y1="642.3915" x2="288.9006" y2="642.173" gradientTransform="matrix(-1345.6029 0 0 -980.9893 389053.25 630718.125)">
		<stop  offset="0" style="stop-color:#1E2D69"/>
		<stop  offset="0.9991" style="stop-color:#0C122C;stop-opacity:0"/>
	</linearGradient>
	<path id="shadow1" class="st7" d="M1227.2,891.5c24-129.4-46.4-243.8-330-267.9c-283.6-24.1-298.1-180-453.6-320.2
		C288.1,163.3,4.2,64.8-75.3,326.6c-79.6,261.8-48.6,432.4,210,647.8c258.6,215.4,530.8,170.9,643.3,154.3
		C890.4,1112.1,1203.2,1020.9,1227.2,891.5L1227.2,891.5z"/>
</g>
</svg>
