<svg width="1920" height="1080" viewBox="0 0 1920 1080" fill="none" xmlns="http://www.w3.org/2000/svg">
<g clip-path="url(#clip0)">
<path d="M1920 0H0V1080H1920V0Z" fill="white"/>
<path d="M1920 -164H0V1244H1920V-164Z" fill="white"/>
<path d="M1804.5 -3.5C1804.5 -8.74671 1800.25 -13 1795 -13C1789.75 -13 1785.5 -8.74671 1785.5 -3.5H1804.5ZM1795 52.5H1785.5V62H1795V52.5ZM1857 62C1862.25 62 1866.5 57.7467 1866.5 52.5C1866.5 47.2533 1862.25 43 1857 43V62ZM-10.2825 202.282C-13.9925 198.573 -20.0075 198.573 -23.7175 202.282C-27.4275 205.992 -27.4275 212.008 -23.7175 215.718L-10.2825 202.282ZM5 231L-1.71751 237.718L5 244.435L11.7175 237.718L5 231ZM46.5 189.5L53.2175 182.782L46.5 176.065L39.7825 182.782L46.5 189.5ZM85 228L78.2825 234.718L85 241.435L91.7175 234.718L85 228ZM121.5 191.5L128.218 184.782L121.5 178.065L114.782 184.782L121.5 191.5ZM154.282 237.718C157.992 241.427 164.008 241.427 167.718 237.718C171.427 234.008 171.427 227.992 167.718 224.282L154.282 237.718ZM1785.5 -3.5V52.5H1804.5V-3.5H1785.5ZM1795 62H1857V43H1795V62ZM-23.7175 215.718L-1.71751 237.718L11.7175 224.282L-10.2825 202.282L-23.7175 215.718ZM11.7175 237.718L53.2175 196.218L39.7825 182.782L-1.71751 224.282L11.7175 237.718ZM39.7825 196.218L78.2825 234.718L91.7175 221.282L53.2175 182.782L39.7825 196.218ZM91.7175 234.718L128.218 198.218L114.782 184.782L78.2825 221.282L91.7175 234.718ZM114.782 198.218L154.282 237.718L167.718 224.282L128.218 184.782L114.782 198.218Z" fill="#F8C6C5"/>
<path d="M1934.5 993.5C1918 993.5 1883.8 999.6 1879 1024C1876 1024 1874.5 1129 1853.5 1131M37 1095C72.3333 1046.17 172.3 977.8 289.5 1095H37Z" stroke="#E4E9EF" stroke-width="13" stroke-linecap="round"/>
<path d="M1772.5 989C1756 989 1721.8 995.1 1717 1019.5C1714 1019.5 1712.5 1124.5 1691.5 1126.5" stroke="#E4E9EF" stroke-width="13" stroke-linecap="round"/>
<path d="M1862.5 989C1846 989 1811.8 995.1 1807 1019.5C1804 1019.5 1802.5 1124.5 1781.5 1126.5" stroke="#E4E9EF" stroke-width="13" stroke-linecap="round"/>
</g>
<defs>
<clipPath id="clip0">
<rect width="1920" height="1080" fill="white"/>
</clipPath>
</defs>
</svg>
