<?xml version="1.0" encoding="UTF-8"?>
<svg width="540px" height="485px" viewBox="0 0 540 485" version="1.1" xmlns="http://www.w3.org/2000/svg" xmlns:xlink="http://www.w3.org/1999/xlink">
    <title>Group 19</title>
    <defs>
        <rect id="path-1" x="0" y="0" width="260" height="235" rx="4"></rect>
        <filter x="-13.5%" y="-10.6%" width="126.9%" height="129.8%" filterUnits="objectBoundingBox" id="filter-2">
            <feOffset dx="0" dy="10" in="SourceAlpha" result="shadowOffsetOuter1"></feOffset>
            <feGaussianBlur stdDeviation="10" in="shadowOffsetOuter1" result="shadowBlurOuter1"></feGaussianBlur>
            <feColorMatrix values="0 0 0 0 0.311765745   0 0 0 0 0.336514196   0 0 0 0 0.386011096  0 0 0 0.03 0" type="matrix" in="shadowBlurOuter1"></feColorMatrix>
        </filter>
        <rect id="path-3" x="0" y="0" width="260" height="235" rx="4"></rect>
        <filter x="-13.5%" y="-10.6%" width="126.9%" height="129.8%" filterUnits="objectBoundingBox" id="filter-4">
            <feOffset dx="0" dy="10" in="SourceAlpha" result="shadowOffsetOuter1"></feOffset>
            <feGaussianBlur stdDeviation="10" in="shadowOffsetOuter1" result="shadowBlurOuter1"></feGaussianBlur>
            <feColorMatrix values="0 0 0 0 0.311765745   0 0 0 0 0.336514196   0 0 0 0 0.386011096  0 0 0 0.03 0" type="matrix" in="shadowBlurOuter1"></feColorMatrix>
        </filter>
        <ellipse id="path-5" cx="81.038961" cy="81.0344828" rx="81.038961" ry="81.0344828"></ellipse>
        <mask id="mask-6" maskContentUnits="userSpaceOnUse" maskUnits="objectBoundingBox" x="0" y="0" width="162.077922" height="162.068966" fill="white">
            <use xlink:href="#path-5"></use>
        </mask>
        <ellipse id="path-7" cx="81.038961" cy="81.0344828" rx="81.038961" ry="81.0344828"></ellipse>
        <mask id="mask-8" maskContentUnits="userSpaceOnUse" maskUnits="objectBoundingBox" x="0" y="0" width="162.077922" height="162.068966" fill="white">
            <use xlink:href="#path-7"></use>
        </mask>
        <rect id="path-9" x="0" y="0" width="260" height="235" rx="4"></rect>
        <filter x="-13.5%" y="-10.6%" width="126.9%" height="129.8%" filterUnits="objectBoundingBox" id="filter-10">
            <feOffset dx="0" dy="10" in="SourceAlpha" result="shadowOffsetOuter1"></feOffset>
            <feGaussianBlur stdDeviation="10" in="shadowOffsetOuter1" result="shadowBlurOuter1"></feGaussianBlur>
            <feColorMatrix values="0 0 0 0 0.311765745   0 0 0 0 0.336514196   0 0 0 0 0.386011096  0 0 0 0.03 0" type="matrix" in="shadowBlurOuter1"></feColorMatrix>
        </filter>
    </defs>
    <g id="High-Fidelity" stroke="none" stroke-width="1" fill="none" fill-rule="evenodd">
        <g id="P2599---Desktop" transform="translate(-735.000000, -220.000000)">
            <g id="Group-35" transform="translate(165.000000, 220.000000)">
                <g id="Group-19" transform="translate(570.000000, 0.000000)">
                    <g id="Group-26">
                        <g id="Rectangle-Copy-4">
                            <use fill="black" fill-opacity="1" filter="url(#filter-2)" xlink:href="#path-1"></use>
                            <use fill="#FFFFFF" fill-rule="evenodd" xlink:href="#path-1"></use>
                        </g>
                        <g id="Group-23" transform="translate(16.207792, 16.206897)">
                            <g id="Group-2">
                                <rect id="Rectangle" stroke="#E5E9EA" fill="#FAFAFA" x="0" y="0" width="230.285714" height="202.586207"></rect>
                                <rect id="Rectangle" fill="#E5E9EA" x="0" y="101.293103" width="230.285714" height="1"></rect>
                                <rect id="Rectangle" fill="#E5E9EA" x="0" y="120.28556" width="230.285714" height="1"></rect>
                                <rect id="Rectangle" fill="#E5E9EA" x="0" y="139.278017" width="230.285714" height="1"></rect>
                                <rect id="Rectangle" fill="#E5E9EA" x="0" y="158.270474" width="230.285714" height="1"></rect>
                                <rect id="Rectangle" fill="#E5E9EA" x="0" y="25.3232759" width="230.285714" height="1"></rect>
                                <rect id="Rectangle" fill="#E5E9EA" x="0" y="6.33081897" width="230.285714" height="1"></rect>
                                <rect id="Rectangle" fill="#E5E9EA" x="0" y="44.3157328" width="230.285714" height="1"></rect>
                                <rect id="Rectangle" fill="#E5E9EA" x="0" y="63.3081897" width="230.285714" height="1"></rect>
                                <rect id="Rectangle" fill="#E5E9EA" x="0" y="82.3006466" width="230.285714" height="1"></rect>
                                <rect id="Rectangle" fill="#E5E9EA" x="0" y="177.262931" width="230.285714" height="1"></rect>
                                <rect id="Rectangle" fill="#E5E9EA" x="0" y="196.255388" width="230.285714" height="1"></rect>
                            </g>
                            <g id="Group-7" transform="translate(6.077922, 101.293103)">
                                <path d="M0,0 L31.0649351,0 L31.0649351,45.6465517 C31.0649351,48.4079755 28.8263588,50.6465517 26.0649351,50.6465517 L5,50.6465517 C2.23857625,50.6465517 3.38176876e-16,48.4079755 0,45.6465517 L0,0 L0,0 Z" id="Rectangle" fill="#242D52"></path>
                                <path d="M0,0 L31.0649351,0 L31.0649351,32.9849138 C31.0649351,35.7463375 28.8263588,37.9849138 26.0649351,37.9849138 L5,37.9849138 C2.23857625,37.9849138 3.38176876e-16,35.7463375 0,32.9849138 L0,0 L0,0 Z" id="Rectangle-Copy-6" fill="#F3603C"></path>
                            </g>
                            <g id="Group-6" transform="translate(53.350649, 61.451149)">
                                <path d="M0,0 L31.0649351,0 L31.0649351,34.5762672 C31.0649351,37.3376909 28.8263588,39.5762672 26.0649351,39.5762672 L5,39.5762672 C2.23857625,39.5762672 1.2263553e-15,37.3376909 0,34.5762672 L0,0 L0,0 Z" id="Rectangle-Copy" fill="#F3603C" transform="translate(15.532468, 19.788134) scale(1, -1) translate(-15.532468, -19.788134) "></path>
                                <path d="M0,39.5762672 L31.0649351,39.5762672 L31.0649351,91.566092 C31.0649351,94.3275157 28.8263588,96.566092 26.0649351,96.566092 L5,96.566092 C2.23857625,96.566092 -5.50001544e-16,94.3275157 0,91.566092 L0,39.5762672 L0,39.5762672 Z" id="Rectangle-Copy-7" fill="#242D52"></path>
                            </g>
                            <g id="Group-5" transform="translate(145.870130, 24.985632)">
                                <path d="M0,0 L31.0649351,0 L31.0649351,71.3074713 C31.0649351,74.068895 28.8263588,76.3074713 26.0649351,76.3074713 L5,76.3074713 C2.23857625,76.3074713 6.8079094e-15,74.068895 0,71.3074713 L0,0 L0,0 Z" id="Rectangle-Copy-2" fill="#242D52" transform="translate(15.532468, 38.153736) scale(1, -1) translate(-15.532468, -38.153736) "></path>
                                <path d="M0,19.0768678 L31.0649351,19.0768678 L31.0649351,71.3074713 C31.0649351,74.068895 28.8263588,76.3074713 26.0649351,76.3074713 L5,76.3074713 C2.23857625,76.3074713 3.38176876e-16,74.068895 0,71.3074713 L0,19.0768678 L0,19.0768678 Z" id="Rectangle-Copy-8" fill="#F3603C" transform="translate(15.532468, 47.692170) scale(1, -1) translate(-15.532468, -47.692170) "></path>
                            </g>
                            <g id="Group" transform="translate(193.142857, 101.293103)">
                                <path d="M0,0 L31.0649351,0 L31.0649351,58.4770115 C31.0649351,61.2384352 28.8263588,63.4770115 26.0649351,63.4770115 L5,63.4770115 C2.23857625,63.4770115 3.12895393e-15,61.2384352 0,58.4770115 L0,0 L0,0 Z" id="Rectangle-Copy-9" fill="#242D52"></path>
                                <path d="M0,0 L31.0649351,0 L31.0649351,45.7816092 C31.0649351,48.5430329 28.8263588,50.7816092 26.0649351,50.7816092 L5,50.7816092 C2.23857625,50.7816092 -5.50001544e-16,48.5430329 0,45.7816092 L0,0 L0,0 Z" id="Rectangle-Copy-3" fill="#F3603C"></path>
                            </g>
                            <g id="Group-8" transform="translate(99.272727, 101.293103)">
                                <g id="Rectangle-Copy-11" fill="#F3603C">
                                    <path d="M0,0 L31.0649351,0 L31.0649351,90.2155172 C31.0649351,92.976941 28.8263588,95.2155172 26.0649351,95.2155172 L5,95.2155172 C2.23857625,95.2155172 6.8079094e-15,92.976941 0,90.2155172 L0,0 L0,0 Z" id="Rectangle-Copy-5"></path>
                                </g>
                                <path d="M0,0 L31.0649351,0 L31.0649351,33.0862069 C31.0649351,35.8476306 28.8263588,38.0862069 26.0649351,38.0862069 L5,38.0862069 C2.23857625,38.0862069 3.38176876e-16,35.8476306 0,33.0862069 L0,0 L0,0 Z" id="Rectangle-Copy-10" fill="#242D52"></path>
                            </g>
                        </g>
                    </g>
                    <g id="Group-28" transform="translate(280.000000, 0.000000)">
                        <g id="Rectangle-Copy-4">
                            <use fill="black" fill-opacity="1" filter="url(#filter-4)" xlink:href="#path-3"></use>
                            <use fill="#FFFFFF" fill-rule="evenodd" xlink:href="#path-3"></use>
                        </g>
                        <g id="Group-24" transform="translate(49.298701, 36.465517)">
                            <ellipse id="Oval" stroke="#FFFFFF" stroke-width="40" cx="81.038961" cy="81.0344828" rx="61.038961" ry="61.0344828"></ellipse>
                            <use id="Oval-Copy" stroke="#F3603C" mask="url(#mask-6)" stroke-width="80" stroke-dasharray="502" xlink:href="#path-5"></use>
                            <use id="Oval-Copy-2" stroke="#242D52" mask="url(#mask-8)" stroke-width="80" stroke-dasharray="340" transform="translate(81.038961, 81.034483) rotate(180.000000) translate(-81.038961, -81.034483) " xlink:href="#path-7"></use>
                        </g>
                    </g>
                    <g id="Group-25" transform="translate(140.000000, 250.000000)">
                        <g id="Rectangle-Copy-4">
                            <use fill="black" fill-opacity="1" filter="url(#filter-10)" xlink:href="#path-9"></use>
                            <use fill="#FFFFFF" fill-rule="evenodd" xlink:href="#path-9"></use>
                        </g>
                        <g id="Group-12" transform="translate(16.207792, 140.459770)">
                            <rect id="Rectangle" fill="#F3603C" x="0" y="0" width="106.025974" height="78.3333333" rx="4"></rect>
                            <g id="Group-11" transform="translate(17.177941, 46.723188)" fill="#FFFFFF" fill-rule="nonzero">
                                <path d="M5.86553459,12.6902291 L5.86553459,8.78292675 L9.76316041,8.78292675 L9.76316041,7.00238391 L5.86553459,7.00238391 L5.86553459,3.09508158 L4.08489336,3.09508158 L4.08489336,7.00238391 L0.177375097,7.00238391 L0.177375097,8.78292675 L4.08489336,8.78292675 L4.08489336,12.6902291 L5.86553459,12.6902291 Z M18.1295362,14.7279614 L18.1295362,0.622105425 L15.9729818,0.622105425 L12.5403012,3.61935253 L12.5403012,5.99340964 L15.8542724,3.01594635 L15.8542724,14.7279614 L18.1295362,14.7279614 Z M24.566884,14.9257995 C24.9493921,14.9257995 25.2774918,14.7906102 25.5511829,14.5202314 C25.8248741,14.2498527 25.9617197,13.9234199 25.9617197,13.5409329 C25.9617197,13.1584459 25.8248741,12.8303644 25.5511829,12.5566884 C25.2774918,12.2830123 24.9493921,12.1461743 24.566884,12.1461743 C24.1909709,12.1461743 23.86452,12.2830123 23.5875313,12.5566884 C23.3105427,12.8303644 23.1720484,13.1584459 23.1720484,13.5409329 C23.1720484,13.9168253 23.3105427,14.2416095 23.5875313,14.5152855 C23.86452,14.7889615 24.1909709,14.9257995 24.566884,14.9257995 Z M33.1508938,14.9159076 C34.6017866,14.9159076 35.7740421,14.4724206 36.6676602,13.5854464 C37.5612783,12.6984723 38.0080874,11.5328762 38.0080874,10.0886582 C38.0080874,8.65103469 37.569522,7.54479002 36.6923913,6.76992415 C35.8152606,5.99505829 34.4929697,5.60762536 32.7255184,5.60762536 L32.7255184,5.60762536 L31.182296,5.60762536 L31.4889619,2.68951349 L37.365078,2.68951349 L37.365078,0.63199733 L29.5005792,0.63199733 L28.7685378,7.54643867 L32.3990675,7.54643867 C34.6083816,7.54643867 35.7130387,8.42022358 35.7130387,10.1677934 C35.7130387,10.9591458 35.480566,11.5971736 35.0156208,12.0818769 C34.5506756,12.5665803 33.9126125,12.8089319 33.1014315,12.8089319 C32.39577,12.8089319 31.7939792,12.6044992 31.2960591,12.1956338 C30.7981391,11.7867685 30.5491791,11.1734704 30.5491791,10.3557396 C30.5491791,10.1908745 30.5722615,9.9534688 30.6184262,9.64352245 L30.6184262,9.64352245 L28.33327,9.78200912 C28.3002951,10.065577 28.2838077,10.3029828 28.2838077,10.4942262 C28.2838077,11.4108761 28.5113341,12.2104717 28.9663869,12.8930131 C29.4214396,13.5755545 30.0116892,14.083339 30.7371356,14.4163664 C31.4625821,14.7493939 32.2671681,14.9159076 33.1508938,14.9159076 Z M42.3581279,6.62649154 C43.2154737,6.62649154 43.9442176,6.3231398 44.5443597,5.71643631 C45.1445017,5.10313822 45.4445727,4.36783998 45.4445727,3.51054158 C45.4445727,2.65983778 45.1445017,1.93113414 44.5443597,1.32443065 C43.9442176,0.71772717 43.2154737,0.414375428 42.3581279,0.414375428 C41.5073771,0.414375428 40.7786332,0.71772717 40.1718962,1.32443065 C39.5651592,1.93113414 39.2617907,2.65983778 39.2617907,3.51054158 C39.2617907,4.37443458 39.5635104,5.10973283 40.16695,5.71643631 C40.7703895,6.3231398 41.5007822,6.62649154 42.3581279,6.62649154 Z M43.4462976,14.7378533 L50.9052059,0.602321616 L48.9267156,0.602321616 L41.4875922,14.7378533 L43.4462976,14.7378533 Z M42.3581279,5.0536787 C41.93605,5.0536787 41.5733268,4.90365148 41.2699583,4.60359704 C40.9665898,4.3035426 40.8149055,3.93919078 40.8149055,3.51054158 C40.8149055,3.08189238 40.9665898,2.72083786 41.2699583,2.42737802 C41.5733268,2.13391818 41.93605,1.98718826 42.3581279,1.98718826 C42.7868008,1.98718826 43.149524,2.13556683 43.4462976,2.43232397 C43.7430711,2.72908111 43.8914579,3.08848698 43.8914579,3.51054158 C43.8914579,3.93919078 43.7447199,4.3035426 43.4512438,4.60359704 C43.1577678,4.90365148 42.7933958,5.0536787 42.3581279,5.0536787 Z M50.1434871,14.8961238 C50.9942379,14.8961238 51.7180356,14.5927721 52.3148802,13.9860686 C52.9117247,13.3793651 53.210147,12.6506615 53.210147,11.7999577 C53.210147,10.9426593 52.910076,10.212307 52.3099339,9.60890078 C51.7097919,9.0054946 50.987643,8.70379151 50.1434871,8.70379151 C49.2861413,8.70379151 48.5540999,9.0054946 47.9473629,9.60890078 C47.3406259,10.212307 47.0372574,10.9426593 47.0372574,11.7999577 C47.0372574,12.6572561 47.3389772,13.3876084 47.9424167,13.9910145 C48.5458562,14.5944207 49.2795464,14.8961238 50.1434871,14.8961238 Z M50.1434871,13.3332029 C49.7082193,13.3332029 49.3421986,13.1831757 49.045425,12.8831212 C48.7486515,12.5830668 48.6002647,12.2220123 48.6002647,11.7999577 C48.6002647,11.3647139 48.7486515,10.9987134 49.045425,10.7019562 C49.3421986,10.4051991 49.7082193,10.2568205 50.1434871,10.2568205 C50.5589701,10.2568205 50.9200445,10.4084964 51.2267105,10.7118482 C51.5333765,11.0151999 51.6867095,11.3779031 51.6867095,11.7999577 C51.6867095,12.2220123 51.5350253,12.5830668 51.2316568,12.8831212 C50.9282882,13.1831757 50.565565,13.3332029 50.1434871,13.3332029 Z" id="+1.5%"></path>
                            </g>
                        </g>
                        <g id="Group-12-Copy" transform="translate(137.766234, 140.459770)">
                            <rect id="Rectangle" fill="#FAFAFA" x="0" y="0" width="106.025974" height="78.3333333" rx="4"></rect>
                            <g id="Group-11" transform="translate(16.207792, 46.723188)" fill="#1E272E" fill-rule="nonzero">
                                <path d="M5.89590097,14.9159076 C6.83238636,14.9159076 7.67324472,14.7477452 8.41847606,14.4114205 C9.16370739,14.0685011 9.75560572,13.5673113 10.1941711,12.907851 C10.6327364,12.2483907 10.8520191,11.486714 10.8520191,10.622821 C10.8520191,9.77211721 10.6343851,9.03022436 10.1991173,8.39714247 C9.76384943,7.76406057 9.17359984,7.28265454 8.42836851,6.95292439 C8.95596591,6.64297805 9.37144886,6.23905861 9.67481737,5.74116607 C9.97818588,5.24327354 10.1298701,4.68767823 10.1298701,4.07438014 C10.1298701,3.00605444 9.72922585,2.13062088 8.9279373,1.44807946 C8.12664874,0.765538042 7.11596997,0.424267332 5.89590097,0.424267332 C4.65604708,0.424267332 3.63382711,0.763889391 2.82924107,1.44313351 C2.02465503,2.12237763 1.62236201,2.99945984 1.62236201,4.07438014 C1.62236201,4.68767823 1.77734375,5.24327354 2.08730722,5.74116607 C2.3972707,6.23905861 2.8226461,6.64297805 3.36343344,6.95292439 C2.60501218,7.27605994 2.00981636,7.75416867 1.57784598,8.38725056 C1.14587561,9.02033246 0.929890422,9.76552261 0.929890422,10.622821 C0.929890422,11.486714 1.14917309,12.2483907 1.58773843,12.907851 C2.02630377,13.5673113 2.61985085,14.0668525 3.36837967,14.4064745 C4.11690848,14.7460966 4.95941558,14.9159076 5.89590097,14.9159076 Z M5.89590097,6.25059916 C5.28916396,6.25059916 4.77805398,6.05440972 4.36257102,5.66203084 C3.94708807,5.26965195 3.73934659,4.78329997 3.73934659,4.2029749 C3.73934659,3.63583904 3.94708807,3.15937896 4.36257102,2.77359468 C4.77805398,2.3878104 5.28916396,2.19491826 5.89590097,2.19491826 C6.49604302,2.19491826 7.00385552,2.3878104 7.41933847,2.77359468 C7.83482143,3.15937896 8.04256291,3.63583904 8.04256291,4.2029749 C8.04256291,4.77670537 7.83317269,5.2614087 7.41439225,5.65708488 C6.99561181,6.05276107 6.48944805,6.25059916 5.89590097,6.25059916 Z M5.89590097,12.8583915 C5.12428977,12.8583915 4.48457792,12.6308777 3.97676542,12.17585 C3.46895292,11.7208224 3.21504667,11.1141189 3.21504667,10.3557396 C3.21504667,9.61054944 3.46895292,9.01373786 3.97676542,8.56530485 C4.48457792,8.11687184 5.12428977,7.89265533 5.89590097,7.89265533 C6.65432224,7.89265533 7.28743912,8.11687184 7.79525162,8.56530485 C8.30306412,9.01373786 8.55697037,9.61054944 8.55697037,10.3557396 C8.55697037,11.1075243 8.30306412,11.7125792 7.79525162,12.1709041 C7.28743912,12.629229 6.65432224,12.8583915 5.89590097,12.8583915 Z M16.9728084,14.9159076 C17.9092938,14.9159076 18.7501522,14.7477452 19.4953835,14.4114205 C20.2406149,14.0685011 20.8325132,13.5673113 21.2710785,12.907851 C21.7096439,12.2483907 21.9289265,11.486714 21.9289265,10.622821 C21.9289265,9.77211721 21.7112926,9.03022436 21.2760248,8.39714247 C20.8407569,7.76406057 20.2505073,7.28265454 19.505276,6.95292439 C20.0328734,6.64297805 20.4483563,6.23905861 20.7517248,5.74116607 C21.0550933,5.24327354 21.2067776,4.68767823 21.2067776,4.07438014 C21.2067776,3.00605444 20.8061333,2.13062088 20.0048448,1.44807946 C19.2035562,0.765538042 18.1928774,0.424267332 16.9728084,0.424267332 C15.7329545,0.424267332 14.7107346,0.763889391 13.9061485,1.44313351 C13.1015625,2.12237763 12.6992695,2.99945984 12.6992695,4.07438014 C12.6992695,4.68767823 12.8542512,5.24327354 13.1642147,5.74116607 C13.4741782,6.23905861 13.8995536,6.64297805 14.4403409,6.95292439 C13.6819196,7.27605994 13.0867238,7.75416867 12.6547534,8.38725056 C12.2227831,9.02033246 12.0067979,9.76552261 12.0067979,10.622821 C12.0067979,11.486714 12.2260806,12.2483907 12.6646459,12.907851 C13.1032112,13.5673113 13.6967583,14.0668525 14.4452871,14.4064745 C15.1938159,14.7460966 16.0363231,14.9159076 16.9728084,14.9159076 Z M16.9728084,6.25059916 C16.3660714,6.25059916 15.8549614,6.05440972 15.4394785,5.66203084 C15.0239955,5.26965195 14.8162541,4.78329997 14.8162541,4.2029749 C14.8162541,3.63583904 15.0239955,3.15937896 15.4394785,2.77359468 C15.8549614,2.3878104 16.3660714,2.19491826 16.9728084,2.19491826 C17.5729505,2.19491826 18.080763,2.3878104 18.4962459,2.77359468 C18.9117289,3.15937896 19.1194704,3.63583904 19.1194704,4.2029749 C19.1194704,4.77670537 18.9100802,5.2614087 18.4912997,5.65708488 C18.0725193,6.05276107 17.5663555,6.25059916 16.9728084,6.25059916 Z M16.9728084,12.8583915 C16.2011972,12.8583915 15.5614854,12.6308777 15.0536729,12.17585 C14.5458604,11.7208224 14.2919541,11.1141189 14.2919541,10.3557396 C14.2919541,9.61054944 14.5458604,9.01373786 15.0536729,8.56530485 C15.5614854,8.11687184 16.2011972,7.89265533 16.9728084,7.89265533 C17.7312297,7.89265533 18.3643466,8.11687184 18.8721591,8.56530485 C19.3799716,9.01373786 19.6338778,9.61054944 19.6338778,10.3557396 C19.6338778,11.1075243 19.3799716,11.7125792 18.8721591,12.1709041 C18.3643466,12.629229 17.7312297,12.8583915 16.9728084,12.8583915 Z M25.4084314,14.9257995 C25.7909395,14.9257995 26.1190392,14.7906102 26.3927303,14.5202314 C26.6664215,14.2498527 26.803267,13.9234199 26.803267,13.5409329 C26.803267,13.1584459 26.6664215,12.8303644 26.3927303,12.5566884 C26.1190392,12.2830123 25.7909395,12.1461743 25.4084314,12.1461743 C25.0325183,12.1461743 24.7060674,12.2830123 24.4290787,12.5566884 C24.1520901,12.8303644 24.0135958,13.1584459 24.0135958,13.5409329 C24.0135958,13.9168253 24.1520901,14.2416095 24.4290787,14.5152855 C24.7060674,14.7889615 25.0325183,14.9257995 25.4084314,14.9257995 Z M38.7210329,14.7279614 L38.7210329,12.6704453 L32.2117999,12.6704453 L36.356737,8.37735866 C37.0228287,7.68492533 37.5108563,7.03535693 37.8208198,6.42865344 C38.1307833,5.82194996 38.285765,5.15919235 38.285765,4.44038061 C38.285765,3.18740603 37.8669846,2.20151286 37.0294237,1.48270113 C36.1918628,0.763889391 35.1135856,0.404483523 33.7945921,0.404483523 C32.389864,0.404483523 31.2753145,0.796862407 30.4509436,1.58162017 C29.6265726,2.36637794 29.2143872,3.49075777 29.2143872,4.95475965 L29.2143872,4.95475965 L29.2143872,5.74611203 L31.4797585,5.96373393 L31.4797585,4.92508394 C31.4797585,4.00843411 31.6875,3.34073055 32.102983,2.92197325 C32.5184659,2.50321596 33.0856331,2.29383731 33.8044846,2.29383731 C34.4903612,2.29383731 35.034446,2.48343215 35.436739,2.86262182 C35.8390321,3.2418115 36.0401786,3.7710284 36.0401786,4.45027252 C36.0401786,5.32735473 35.5686384,6.25059916 34.625558,7.22000582 L34.625558,7.22000582 L28.9868608,13.00677 L28.9868608,14.7279614 L38.7210329,14.7279614 Z M48.4228896,14.7279614 L48.4228896,11.96812 L50.3618101,11.96812 L50.3618101,9.92049578 L48.4228896,9.92049578 L48.4228896,0.622105425 L44.9506392,0.622105425 L39.5196834,9.91060388 L39.5196834,11.96812 L46.1476258,11.96812 L46.1476258,14.7279614 L48.4228896,14.7279614 Z M46.1476258,9.92049578 L41.7355925,9.92049578 L46.1476258,2.08610731 L46.1476258,9.92049578 Z M54.2765828,6.62649154 C55.1339286,6.62649154 55.8626725,6.3231398 56.4628145,5.71643631 C57.0629566,5.10313822 57.3630276,4.36783998 57.3630276,3.51054158 C57.3630276,2.65983778 57.0629566,1.93113414 56.4628145,1.32443065 C55.8626725,0.71772717 55.1339286,0.414375428 54.2765828,0.414375428 C53.425832,0.414375428 52.6970881,0.71772717 52.0903511,1.32443065 C51.483614,1.93113414 51.1802455,2.65983778 51.1802455,3.51054158 C51.1802455,4.37443458 51.4819653,5.10973283 52.0854048,5.71643631 C52.6888444,6.3231398 53.419237,6.62649154 54.2765828,6.62649154 Z M55.3647524,14.7378533 L62.8236607,0.602321616 L60.8451705,0.602321616 L53.4060471,14.7378533 L55.3647524,14.7378533 Z M54.2765828,5.0536787 C53.8545049,5.0536787 53.4917817,4.90365148 53.1884131,4.60359704 C52.8850446,4.3035426 52.7333604,3.93919078 52.7333604,3.51054158 C52.7333604,3.08189238 52.8850446,2.72083786 53.1884131,2.42737802 C53.4917817,2.13391818 53.8545049,1.98718826 54.2765828,1.98718826 C54.7052557,1.98718826 55.0679789,2.13556683 55.3647524,2.43232397 C55.661526,2.72908111 55.8099127,3.08848698 55.8099127,3.51054158 C55.8099127,3.93919078 55.6631747,4.3035426 55.3696987,4.60359704 C55.0762226,4.90365148 54.7118506,5.0536787 54.2765828,5.0536787 Z M62.061942,14.8961238 C62.9126928,14.8961238 63.6364905,14.5927721 64.233335,13.9860686 C64.8301796,13.3793651 65.1286019,12.6506615 65.1286019,11.7999577 C65.1286019,10.9426593 64.8285308,10.212307 64.2283888,9.60890078 C63.6282468,9.0054946 62.9060978,8.70379151 62.061942,8.70379151 C61.2045962,8.70379151 60.4725548,9.0054946 59.8658178,9.60890078 C59.2590808,10.212307 58.9557123,10.9426593 58.9557123,11.7999577 C58.9557123,12.6572561 59.257432,13.3876084 59.8608716,13.9910145 C60.4643111,14.5944207 61.1980012,14.8961238 62.061942,14.8961238 Z M62.061942,13.3332029 C61.6266741,13.3332029 61.2606534,13.1831757 60.9638799,12.8831212 C60.6671063,12.5830668 60.5187196,12.2220123 60.5187196,11.7999577 C60.5187196,11.3647139 60.6671063,10.9987134 60.9638799,10.7019562 C61.2606534,10.4051991 61.6266741,10.2568205 62.061942,10.2568205 C62.4774249,10.2568205 62.8384994,10.4084964 63.1451654,10.7118482 C63.4518314,11.0151999 63.6051644,11.3779031 63.6051644,11.7999577 C63.6051644,12.2220123 63.4534801,12.5830668 63.1501116,12.8831212 C62.8467431,13.1831757 62.4840199,13.3332029 62.061942,13.3332029 Z" id="88.24%"></path>
                            </g>
                        </g>
                        <g id="Group-13" transform="translate(16.207792, 16.206897)">
                            <rect id="Rectangle-Copy-14" fill="#FAFAFA" x="0" y="0" width="227.584416" height="108.045977" rx="4"></rect>
                            <path d="M28.7857143,84.8118714 C30.7835498,84.8118714 32.577381,84.453125 34.1672078,83.7356322 C35.7570346,83.0040709 37.0197511,81.9348659 37.9553571,80.5280172 C38.8909632,79.1211686 39.3587662,77.4962584 39.3587662,75.6532866 C39.3587662,73.8384519 38.8944805,72.2557471 37.9659091,70.9051724 C37.0373377,69.5545977 35.7781385,68.5275982 34.1883117,67.8241739 C35.3138528,67.162955 36.2002165,66.3012602 36.8474026,65.2390894 C37.4945887,64.1769187 37.8181818,62.9916487 37.8181818,61.6832795 C37.8181818,59.4041846 36.963474,57.536593 35.2540584,56.0805047 C33.5446429,54.6244163 31.3885281,53.8963721 28.7857143,53.8963721 C26.1406926,53.8963721 23.9599567,54.6208992 22.2435065,56.0699533 C20.5270563,57.5190074 19.6688312,59.3901161 19.6688312,61.6832795 C19.6688312,62.9916487 19.9994589,64.1769187 20.6607143,65.2390894 C21.3219697,66.3012602 22.2294372,67.162955 23.3831169,67.8241739 C21.7651515,68.5135297 20.4954004,69.533495 19.5738636,70.8840697 C18.6523268,72.2346444 18.1915584,73.8243834 18.1915584,75.6532866 C18.1915584,77.4962584 18.6593615,79.1211686 19.5949675,80.5280172 C20.5305736,81.9348659 21.7968074,83.0005538 23.3936688,83.7250808 C24.9905303,84.4496079 26.7878788,84.8118714 28.7857143,84.8118714 Z M28.7857143,66.32588 C27.491342,66.32588 26.400974,65.9073426 25.5146104,65.0702676 C24.6282468,64.2331926 24.1850649,63.1956418 24.1850649,61.9576149 C24.1850649,60.7477251 24.6282468,59.7312769 25.5146104,58.9082705 C26.400974,58.085264 27.491342,57.6737608 28.7857143,57.6737608 C30.0660173,57.6737608 31.1493506,58.085264 32.0357143,58.9082705 C32.9220779,59.7312769 33.3652597,60.7477251 33.3652597,61.9576149 C33.3652597,63.1815733 32.9185606,64.215607 32.0251623,65.0597162 C31.1317641,65.9038254 30.0519481,66.32588 28.7857143,66.32588 Z M28.7857143,80.4225036 C27.1396104,80.4225036 25.7748918,79.9371408 24.6915584,78.9664152 C23.6082251,77.9956897 23.0665584,76.7013889 23.0665584,75.0835129 C23.0665584,73.4937739 23.6082251,72.2205759 24.6915584,71.2639188 C25.7748918,70.3072617 27.1396104,69.8289332 28.7857143,69.8289332 C30.4036797,69.8289332 31.754329,70.3072617 32.8376623,71.2639188 C33.9209957,72.2205759 34.4626623,73.4937739 34.4626623,75.0835129 C34.4626623,76.6873204 33.9209957,77.978104 32.8376623,78.9558639 C31.754329,79.9336237 30.4036797,80.4225036 28.7857143,80.4225036 Z M50.5227273,84.4109195 L60.2516234,71.5382543 C62.0243506,69.1466116 62.9107143,66.7197977 62.9107143,64.2578125 C62.9107143,62.2882244 62.4323593,60.5120779 61.4756494,58.9293732 C60.5189394,57.3466685 59.2210498,56.119193 57.5819805,55.2469468 C55.9429113,54.3747007 54.1244589,53.9385776 52.1266234,53.9385776 C50.1709957,53.9385776 48.3736472,54.3711835 46.7345779,55.2363955 C45.0955087,56.1016074 43.7870671,57.3396342 42.8092532,58.9504759 C41.8314394,60.5613176 41.3495671,62.3726353 41.3636364,64.3844289 C41.3777056,66.354017 41.8455087,68.1020265 42.7670455,69.6284573 C43.6885823,71.1548881 44.8739177,72.3120211 46.3230519,73.0998563 C47.7721861,73.8876916 49.3338745,74.2816092 51.0081169,74.2816092 C51.6693723,74.2816092 52.3024892,74.218301 52.9074675,74.0916846 L52.9074675,74.0916846 L44.887987,84.4109195 L50.5227273,84.4109195 Z M52.2532468,70.6519397 C50.452381,70.6519397 48.9786255,70.0856831 47.8319805,68.9531699 C46.6853355,67.8206567 46.1049784,66.3329143 46.0909091,64.4899425 C46.0768398,62.6751078 46.6536797,61.2014338 47.8214286,60.0689206 C48.9891775,58.9364074 50.4664502,58.3701509 52.2532468,58.3701509 C54.0681818,58.3701509 55.5313853,58.9188218 56.6428571,60.0161638 C57.754329,61.1135057 58.3100649,62.5906968 58.3100649,64.4477371 C58.3100649,66.2062979 57.7437771,67.6799719 56.6112013,68.868759 C55.4786255,70.0575461 54.025974,70.6519397 52.2532468,70.6519397 Z M69.9172078,84.8329741 C70.7332251,84.8329741 71.433171,84.5445702 72.0170455,83.9677622 C72.6009199,83.3909543 72.8928571,82.6945642 72.8928571,81.878592 C72.8928571,81.0626197 72.6009199,80.3627125 72.0170455,79.7788703 C71.433171,79.1950281 70.7332251,78.903107 69.9172078,78.903107 C69.1152597,78.903107 68.4188312,79.1950281 67.8279221,79.7788703 C67.237013,80.3627125 66.9415584,81.0626197 66.9415584,81.878592 C66.9415584,82.6804957 67.237013,83.3733687 67.8279221,83.9572108 C68.4188312,84.541053 69.1152597,84.8329741 69.9172078,84.8329741 Z M84.1412338,84.4109195 L98.3019481,58.1802263 L98.3019481,54.3184267 L77.387987,54.3184267 L77.387987,58.6866918 L92.836039,58.6866918 L78.612013,84.4109195 L84.1412338,84.4109195 Z M118.519481,84.4109195 L118.519481,78.5232579 L122.655844,78.5232579 L122.655844,74.1549928 L118.519481,74.1549928 L118.519481,54.3184267 L111.112013,54.3184267 L99.525974,74.1338901 L99.525974,78.5232579 L113.665584,78.5232579 L113.665584,84.4109195 L118.519481,84.4109195 Z M113.665584,74.1549928 L104.253247,74.1549928 L113.665584,57.4416307 L113.665584,74.1549928 Z M130.75974,67.1277838 C132.588745,67.1277838 134.143398,66.4806334 135.423701,65.1863326 C136.704004,63.8779634 137.344156,62.3093271 137.344156,60.4804239 C137.344156,58.6655891 136.704004,57.1110213 135.423701,55.8167205 C134.143398,54.5224198 132.588745,53.8752694 130.75974,53.8752694 C128.944805,53.8752694 127.390152,54.5224198 126.095779,55.8167205 C124.801407,57.1110213 124.154221,58.6655891 124.154221,60.4804239 C124.154221,62.3233956 124.79789,63.8920318 126.085227,65.1863326 C127.372565,66.4806334 128.930736,67.1277838 130.75974,67.1277838 Z M133.081169,84.4320223 L148.993506,54.2762213 L144.772727,54.2762213 L128.902597,84.4320223 L133.081169,84.4320223 Z M130.75974,63.7724497 C129.859307,63.7724497 129.085498,63.4523916 128.438312,62.8122755 C127.791126,62.1721594 127.467532,61.3948755 127.467532,60.4804239 C127.467532,59.5659722 127.791126,58.7957226 128.438312,58.1696749 C129.085498,57.5436273 129.859307,57.2306034 130.75974,57.2306034 C131.674242,57.2306034 132.448052,57.5471444 133.081169,58.1802263 C133.714286,58.8133082 134.030844,59.5800407 134.030844,60.4804239 C134.030844,61.3948755 133.717803,62.1721594 133.091721,62.8122755 C132.465639,63.4523916 131.688312,63.7724497 130.75974,63.7724497 Z M147.368506,84.7696659 C149.183442,84.7696659 150.727543,84.1225156 152.000812,82.8282148 C153.27408,81.533914 153.910714,79.9793463 153.910714,78.1645115 C153.910714,76.3356082 153.270563,74.7775233 151.99026,73.4902568 C150.709957,72.2029903 149.169372,71.559357 147.368506,71.559357 C145.539502,71.559357 143.977814,72.2029903 142.683442,73.4902568 C141.389069,74.7775233 140.741883,76.3356082 140.741883,78.1645115 C140.741883,79.9934148 141.385552,81.5514996 142.67289,82.8387662 C143.960227,84.1260327 145.525433,84.7696659 147.368506,84.7696659 Z M147.368506,81.4354346 C146.439935,81.4354346 145.659091,81.1153766 145.025974,80.4752604 C144.392857,79.8351443 144.076299,79.0648946 144.076299,78.1645115 C144.076299,77.2359914 144.392857,76.4551904 145.025974,75.8221085 C145.659091,75.1890266 146.439935,74.8724856 147.368506,74.8724856 C148.25487,74.8724856 149.025162,75.1960608 149.679383,75.8432112 C150.333604,76.4903616 150.660714,77.2641284 150.660714,78.1645115 C150.660714,79.0648946 150.337121,79.8351443 149.689935,80.4752604 C149.042749,81.1153766 148.268939,81.4354346 147.368506,81.4354346 Z" id="89.74%" fill="#343A40" fill-rule="nonzero"></path>
                        </g>
                    </g>
                </g>
            </g>
        </g>
    </g>
</svg>