<?xml version="1.0" encoding="UTF-8"?>
<svg width="158px" height="26px" viewBox="0 0 158 26" version="1.1" xmlns="http://www.w3.org/2000/svg" xmlns:xlink="http://www.w3.org/1999/xlink">
    <title>Group 6</title>
    <g id="High-Fidelity" stroke="none" stroke-width="1" fill="none" fill-rule="evenodd">
        <g id="P2599---Mobile" transform="translate(-107.000000, -3101.000000)">
            <g id="Group-6" transform="translate(107.000000, 3101.000000)">
                <g id="manage-2" transform="translate(27.000000, 0.000000)" fill="#FFFFFF" fill-rule="nonzero">
                    <path d="M16.0385029,18.2095588 L16.0385029,9.26608456 C16.0385029,7.55744485 16.4348464,6.21024816 17.2275335,5.22449449 C18.0202205,4.23874081 19.0125694,3.74586397 20.20458,3.74586397 C22.5409208,3.74586397 23.7090912,5.45450368 23.7090912,8.87178309 L23.7090912,8.87178309 L23.7090912,18.2095588 L27.8036477,18.2095588 L27.8036477,7.83226103 C27.8036477,5.21553309 27.2612829,3.2589614 26.1765532,1.96254596 C25.0918235,0.666130515 23.5422097,0.0179227941 21.5277118,0.0179227941 C20.20458,0.0179227941 18.9946892,0.271829044 17.8980394,0.779641544 C16.8013897,1.28745404 15.8775814,2.02527574 15.1266148,2.99310662 L15.1266148,2.99310662 L15.0550941,2.99310662 C13.9942047,1.00965074 12.2181088,0.0179227941 9.72680665,0.0179227941 C8.67783731,0.0179227941 7.66760831,0.25390625 6.69611965,0.725873162 C5.724631,1.19784007 4.87532343,1.87591912 4.14819695,2.76011029 L4.14819695,2.76011029 L4.09455648,2.76011029 L4.09455648,0.286764706 L0,0.286764706 L0,18.191636 L4.09455648,18.191636 L4.09455648,9.26608456 C4.09455648,7.55744485 4.49686006,6.21024816 5.30146723,5.22449449 C6.1060744,4.23874081 7.13418355,3.74586397 8.3857947,3.74586397 C10.7578958,3.74586397 11.9439464,5.45450368 11.9439464,8.87178309 L11.9439464,8.87178309 L11.9439464,18.2095588 L16.0385029,18.2095588 Z M38.8833864,18.4784007 C41.3150881,18.4784007 43.2103849,17.582261 44.569277,15.7899816 L44.569277,15.7899816 L44.6229175,15.7899816 L44.6229175,18.191636 L48.5386724,18.191636 L48.5386724,0.286764706 L44.4441159,0.286764706 L44.4441159,2.4375 L44.3725953,2.4375 C43.0137032,0.824448529 41.1720468,0.0179227941 38.8476261,0.0179227941 C37.6317752,0.0179227941 36.4934051,0.250919118 35.4325156,0.716911765 C34.3716262,1.18290441 33.4597381,1.82215074 32.6968513,2.63465074 C31.9339645,3.44715074 31.3319991,4.43290441 30.8909552,5.59191176 C30.4499113,6.75091912 30.2293893,7.99356618 30.2293893,9.31985294 C30.2293893,10.6819853 30.4499113,11.9365809 30.8909552,13.0836397 C31.3319991,14.2306985 31.9339645,15.1985294 32.6968513,15.9871324 C33.4597381,16.7757353 34.3746062,17.3880974 35.4414557,17.8242188 C36.5083052,18.2603401 37.6556155,18.4784007 38.8833864,18.4784007 Z M39.5270721,14.7504596 C38.0132186,14.7504596 36.7794876,14.2456342 35.8258792,13.2359835 C34.8722707,12.2263327 34.3954664,10.9269301 34.3954664,9.33777574 C34.3954664,7.65303309 34.8871708,6.29986213 35.8705795,5.27826287 C36.8539883,4.2566636 38.0787792,3.74586397 39.5449523,3.74586397 C40.9992052,3.74586397 42.206116,4.28056066 43.1656845,5.34995404 C44.1252531,6.41934743 44.6050374,7.74862132 44.6050374,9.33777574 C44.6050374,10.9269301 44.113333,12.2263327 43.1299242,13.2359835 C42.1465155,14.2456342 40.9455648,14.7504596 39.5270721,14.7504596 Z M68.8803336,18.2095588 L68.8803336,7.65303309 C68.8803336,5.06020221 68.2992284,3.1394761 67.1370181,1.89085478 C65.9748077,0.642233456 64.3685734,0.0179227941 62.3183152,0.0179227941 C61.1501447,0.0179227941 60.0475349,0.250919118 59.0104857,0.716911765 C57.9734364,1.18290441 57.0794285,1.85799632 56.3284618,2.7421875 L56.3284618,2.7421875 L56.2748213,2.7421875 L56.2748213,0.286764706 L52.1802648,0.286764706 L52.1802648,18.191636 L56.2748213,18.191636 L56.2748213,9.19439338 C56.2748213,7.47380515 56.6950051,6.13556985 57.5353725,5.1796875 C58.37574,4.22380515 59.49921,3.74586397 60.9057826,3.74586397 C61.5494683,3.74586397 62.1007732,3.82950368 62.5596973,3.99678309 C63.0186214,4.1640625 63.420925,4.43589154 63.7666081,4.81227022 C64.1122911,5.1886489 64.3685734,5.69944853 64.5354549,6.34466912 C64.7023364,6.98988971 64.7857771,7.77849265 64.7857771,8.71047794 L64.7857771,8.71047794 L64.7857771,18.2095588 L68.8803336,18.2095588 Z M79.9421922,18.4784007 C82.3738938,18.4784007 84.2691907,17.582261 85.6280828,15.7899816 L85.6280828,15.7899816 L85.6817233,15.7899816 L85.6817233,18.191636 L89.5974782,18.191636 L89.5974782,0.286764706 L85.5029217,0.286764706 L85.5029217,2.4375 L85.4314011,2.4375 C84.0725089,0.824448529 82.2308525,0.0179227941 79.9064318,0.0179227941 C78.690581,0.0179227941 77.5522109,0.250919118 76.4913214,0.716911765 C75.430432,1.18290441 74.5185438,1.82215074 73.755657,2.63465074 C72.9927702,3.44715074 72.3908049,4.43290441 71.949761,5.59191176 C71.508717,6.75091912 71.2881951,7.99356618 71.2881951,9.31985294 C71.2881951,10.6819853 71.508717,11.9365809 71.949761,13.0836397 C72.3908049,14.2306985 72.9927702,15.1985294 73.755657,15.9871324 C74.5185438,16.7757353 75.433412,17.3880974 76.5002615,17.8242188 C77.567111,18.2603401 78.7144212,18.4784007 79.9421922,18.4784007 Z M80.5858779,14.7504596 C79.0720244,14.7504596 77.8382934,14.2456342 76.8846849,13.2359835 C75.9310764,12.2263327 75.4542722,10.9269301 75.4542722,9.33777574 C75.4542722,7.65303309 75.9459766,6.29986213 76.9293853,5.27826287 C77.9127941,4.2566636 79.137585,3.74586397 80.603758,3.74586397 C82.058011,3.74586397 83.2649218,4.28056066 84.2244903,5.34995404 C85.1840589,6.41934743 85.6638431,7.74862132 85.6638431,9.33777574 C85.6638431,10.9269301 85.1721387,12.2263327 84.18873,13.2359835 C83.2053212,14.2456342 82.0043705,14.7504596 80.5858779,14.7504596 Z M101.231502,25.7192096 C102.530793,25.7192096 103.693004,25.5668658 104.718133,25.2621783 C105.743262,24.9574908 106.60449,24.533318 107.301816,23.9896599 C107.999142,23.4460018 108.577267,22.7798713 109.036191,21.9912684 C109.495115,21.2026654 109.825898,20.3423713 110.02854,19.410386 C110.231182,18.4784007 110.332503,17.4568015 110.332503,16.3455882 L110.332503,16.3455882 L110.332503,0.286764706 L106.237946,0.286764706 L106.237946,2.16865809 L106.166426,2.16865809 C105.427379,1.46369485 104.578072,0.926011029 103.618503,0.555606618 C102.658935,0.185202206 101.660626,0 100.623576,0 C98.9905218,0 97.5243488,0.388327206 96.2250572,1.16498162 C94.9257656,1.94163603 93.9155366,3.01999081 93.1943702,4.40004596 C92.4732038,5.7801011 92.1126206,7.33042279 92.1126206,9.05101103 C92.1126206,10.7954963 92.4910839,12.3428309 93.2480107,13.6930147 C94.0049374,15.0431985 95.0449667,16.0797335 96.3680985,16.8026195 C97.6912303,17.5255055 99.1812435,17.8869485 100.838138,17.8869485 C103.055278,17.8869485 104.861174,17.1580882 106.255827,15.7003676 L106.255827,15.7003676 L106.327347,15.7003676 L106.327347,17.6001838 C106.327347,18.8667279 105.862463,19.9181985 104.932695,20.7545956 C104.002926,21.5909926 102.691715,22.0091912 100.99906,22.0091912 C99.8428094,22.0091912 98.8266204,21.8658088 97.9504926,21.5790441 C97.0743648,21.2922794 96.0641358,20.8442096 94.9198056,20.2348346 L94.9198056,20.2348346 L93.954277,23.855239 C94.9555659,24.4526654 96.0820159,24.9126838 97.3336271,25.2352941 C98.5852382,25.5579044 99.8845298,25.7192096 101.231502,25.7192096 Z M101.374543,14.105239 C99.8964499,14.105239 98.6776191,13.6362592 97.7180505,12.6982996 C96.758482,11.7603401 96.2786977,10.5027574 96.2786977,8.92555147 C96.2786977,7.40808824 96.7495419,6.17141544 97.6912303,5.21553309 C98.6329187,4.25965074 99.8606896,3.78170956 101.374543,3.78170956 C102.816876,3.78170956 104.017827,4.25367647 104.977395,5.19761029 C105.936964,6.14154412 106.416748,7.36626838 106.416748,8.87178309 C106.416748,10.3892463 105.948884,11.6408548 105.013155,12.6266085 C104.077427,13.6123621 102.864556,14.105239 101.374543,14.105239 Z M122.038047,18.4784007 C123.706862,18.4784007 125.176015,18.1737132 126.445506,17.5643382 C127.714998,16.9549632 128.755027,16.1305147 129.565594,15.0909926 L129.565594,15.0909926 L126.704769,12.6355699 C125.584279,14.0454963 124.100226,14.7504596 122.252609,14.7504596 C120.941397,14.7504596 119.829847,14.3860294 118.917959,13.6571691 C118.006071,12.9283088 117.419006,11.9306066 117.156764,10.6640625 L117.156764,10.6640625 L130.17352,10.6640625 C130.24504,10.2339154 130.280801,9.69025735 130.280801,9.03308824 C130.280801,7.30055147 129.929157,5.75321691 129.225871,4.39108456 C128.522585,3.02895221 127.509376,1.95955882 126.186244,1.18290441 C124.863112,0.40625 123.337339,0.0179227941 121.608923,0.0179227941 C120.381152,0.0179227941 119.230862,0.241957721 118.158053,0.690027574 C117.085243,1.13809743 116.161435,1.76240809 115.386628,2.56295956 C114.611821,3.36351103 114.003896,4.33731618 113.562852,5.484375 C113.121808,6.63143382 112.901286,7.88005515 112.901286,9.23023897 C112.901286,11.058364 113.300609,12.6803768 114.099256,14.0962776 C114.897904,15.5121783 115.988593,16.5965074 117.371326,17.3492647 C118.754058,18.1020221 120.309632,18.4784007 122.038047,18.4784007 Z M126.168364,7.34834559 L117.228284,7.34834559 C117.514367,6.20128676 118.068652,5.31410846 118.891139,4.68681066 C119.713626,4.05951287 120.691075,3.74586397 121.823485,3.74586397 C122.967815,3.74586397 123.912484,4.06847426 124.65749,4.71369485 C125.402497,5.35891544 125.906122,6.23713235 126.168364,7.34834559 L126.168364,7.34834559 Z" id="manage"></path>
                </g>
                <g id="Group-4" fill="#F3603C">
                    <path d="M2.95982143,10.8907563 C4.59448567,10.8907563 5.91964286,12.245189 5.91964286,13.9159664 C5.91964286,15.5867438 4.59448567,16.9411765 2.95982143,16.9411765 C1.32515719,16.9411765 -5.43720624e-14,15.5867438 -5.43720624e-14,13.9159664 C-5.43720624e-14,12.245189 1.32515719,10.8907563 2.95982143,10.8907563 Z M2.95982143,1.37740799e-13 C4.59448567,1.37740799e-13 5.91964286,1.35443269 5.91964286,3.02521008 C5.91964286,4.69598748 4.59448567,6.05042017 2.95982143,6.05042017 C1.32515719,6.05042017 -5.43720624e-14,4.69598748 -5.43720624e-14,3.02521008 C-5.43720624e-14,1.35443269 1.32515719,1.37740799e-13 2.95982143,1.37740799e-13 Z M13.6151786,1.37740799e-13 C15.2498428,1.37740799e-13 16.575,1.35443269 16.575,3.02521008 C16.575,4.69598748 15.2498428,6.05042017 13.6151786,6.05042017 C11.9805143,6.05042017 10.6553571,4.69598748 10.6553571,3.02521008 C10.6553571,1.35443269 11.9805143,1.37740799e-13 13.6151786,1.37740799e-13 Z" id="Combined-Shape"></path>
                    <ellipse id="Oval-Copy-3" opacity="0.5" cx="13.6151786" cy="14.0369748" rx="2.95982143" ry="3.02521008"></ellipse>
                </g>
            </g>
        </g>
    </g>
</svg>