<svg xmlns="http://www.w3.org/2000/svg" width="159" height="56"><g fill="none" fill-rule="evenodd"><rect width="159" height="56" fill="#E5ECF4" rx="4"/><g fill="#495567" font-family="SpaceMono-Bold, Space Mono" font-weight="bold"><text font-size="20" letter-spacing="-.893" transform="translate(52 8)"><tspan x="0" y="37">AppStore</tspan></text><text font-size="10" letter-spacing="-.446" transform="translate(52 8)"><tspan x="0" y="11">Available on the</tspan></text></g><path fill="#495567" fill-rule="nonzero" d="M34.017 20.533c1.93 0 3.973 1.044 5.428 2.843-4.768 2.594-3.996 9.352.822 11.162-.663 1.457-.98 2.107-1.835 3.398-1.191 1.8-2.869 4.045-4.952 4.06-1.848.02-2.324-1.194-4.833-1.18-2.509.012-3.03 1.201-4.883 1.184-2.08-.018-3.672-2.043-4.863-3.843-3.33-5.033-3.681-10.941-1.627-14.084 1.462-2.231 3.766-3.536 5.93-3.536 2.204 0 3.591 1.2 5.416 1.2 1.77 0 2.848-1.204 5.397-1.204zM33.683 14c.243 1.649-.428 3.264-1.316 4.406-.948 1.226-2.586 2.175-4.17 2.126-.29-1.58.452-3.205 1.353-4.3.988-1.206 2.683-2.132 4.133-2.232z"/></g></svg>