<?xml version="1.0" encoding="UTF-8"?>
<svg width="61px" height="16px" viewBox="0 0 61 16" version="1.1" xmlns="http://www.w3.org/2000/svg" xmlns:xlink="http://www.w3.org/1999/xlink">
    <title>scoot</title>
    <g id="Designs" stroke="none" stroke-width="1" fill="none" fill-rule="evenodd" opacity="0.5">
        <g id="Design-System" transform="translate(-100.000000, -64.000000)" fill="#FFFFFF" fill-rule="nonzero">
            <g id="Group-39" transform="translate(-224.000000, 0.000000)">
                <g id="Group-22" transform="translate(324.000000, 64.000000)">
                    <path d="M5.1092437,16 C6.57329599,16 7.70868347,15.6713352 8.51540616,15.0140056 C9.32212885,14.356676 9.7254902,13.4752568 9.7254902,12.3697479 L9.7254902,12.3697479 L9.7254902,12.2352941 C9.7254902,11.2343604 9.36694678,10.4537815 8.64985994,9.89355742 C7.93277311,9.33333333 7.00653595,8.99346405 5.87114846,8.87394958 C4.88515406,8.76937442 4.2054155,8.63865546 3.83193277,8.48179272 C3.45845005,8.32492997 3.27170868,8.06722689 3.27170868,7.70868347 C3.27170868,7.45471522 3.39122316,7.24183007 3.6302521,7.07002801 C3.86928105,6.89822596 4.22782446,6.81232493 4.70588235,6.81232493 C5.22875817,6.81232493 5.65452848,6.92810458 5.98319328,7.15966387 C6.31185808,7.39122316 6.54341737,7.70868347 6.67787115,8.11204482 L6.67787115,8.11204482 L9.232493,7.08123249 C9.11297852,6.767507 8.94117647,6.44257703 8.71708683,6.10644258 C8.4929972,5.77030812 8.20168067,5.46405229 7.84313725,5.18767507 C7.48459384,4.91129785 7.04761905,4.68720822 6.53221289,4.51540616 C6.01680672,4.34360411 5.40802988,4.25770308 4.70588235,4.25770308 C4.16806723,4.25770308 3.64519141,4.33239963 3.1372549,4.48179272 C2.62931839,4.63118581 2.18113912,4.85154062 1.79271709,5.14285714 C1.40429505,5.43417367 1.09056956,5.78898226 0.851540616,6.20728291 C0.612511671,6.62558357 0.492997199,7.11111111 0.492997199,7.66386555 L0.492997199,7.66386555 L0.492997199,7.79831933 C0.492997199,8.85901027 0.862745098,9.66199813 1.6022409,10.2072829 C2.34173669,10.7525677 3.33893557,11.0774977 4.59383754,11.1820728 C5.05695612,11.2268908 5.44164332,11.286648 5.74789916,11.3613445 C6.054155,11.4360411 6.29691877,11.5294118 6.47619048,11.6414566 C6.65546218,11.7535014 6.77871148,11.8730159 6.84593838,12 C6.91316527,12.1269841 6.94677871,12.2651727 6.94677871,12.4145658 C6.94677871,12.6685341 6.81605976,12.9038282 6.55462185,13.1204482 C6.29318394,13.3370682 5.81139122,13.4453782 5.1092437,13.4453782 C4.31746032,13.4453782 3.73109244,13.2661064 3.35014006,12.907563 C2.96918768,12.5490196 2.71895425,12.130719 2.59943978,11.6526611 L2.59943978,11.6526611 L3.55271368e-15,12.5042017 C0.0746965453,12.8926237 0.220354809,13.2922502 0.43697479,13.7030812 C0.653594771,14.1139122 0.963585434,14.487395 1.36694678,14.8235294 C1.77030812,15.1596639 2.27824463,15.4397759 2.8907563,15.6638655 C3.50326797,15.8879552 4.24276377,16 5.1092437,16 Z M17.6886755,16 C19.2722422,16 20.5383487,15.5966387 21.4869948,14.789916 C22.4356409,13.9831933 23.0369481,12.9225023 23.2909164,11.6078431 L23.2909164,11.6078431 L20.5122049,10.9131653 C20.3777511,11.6451914 20.0826997,12.2278245 19.6270508,12.6610644 C19.1714019,13.0943044 18.5103375,13.3109244 17.6438575,13.3109244 C17.2404962,13.3109244 16.8595438,13.2474323 16.5010004,13.1204482 C16.142457,12.9934641 15.8287315,12.8029879 15.5598239,12.5490196 C15.2909164,12.2950514 15.0780312,11.977591 14.9211685,11.5966387 C14.7643057,11.2156863 14.6858743,10.7787115 14.6858743,10.2857143 L14.6858743,10.2857143 L14.6858743,10.1512605 C14.6858743,9.65826331 14.7643057,9.21381886 14.9211685,8.81792717 C15.0780312,8.42203548 15.2909164,8.08590103 15.5598239,7.80952381 C15.8287315,7.53314659 16.142457,7.32026144 16.5010004,7.17086835 C16.8595438,7.02147526 17.2404962,6.94677871 17.6438575,6.94677871 C18.5103375,6.94677871 19.1826064,7.18580766 19.6606643,7.66386555 C20.1387222,8.14192344 20.422569,8.70961718 20.5122049,9.36694678 L20.5122049,9.36694678 L23.2909164,8.64985994 C23.0369481,7.33520075 22.4281713,6.2745098 21.4645858,5.46778711 C20.5010004,4.66106443 19.2423636,4.25770308 17.6886755,4.25770308 C16.8819528,4.25770308 16.1237828,4.39215686 15.4141657,4.66106443 C14.7045485,4.92997199 14.0845672,5.31839402 13.5542217,5.82633053 C13.0238762,6.33426704 12.6093104,6.94677871 12.3105242,7.66386555 C12.011738,8.38095238 11.8623449,9.18767507 11.8623449,10.0840336 L11.8623449,10.0840336 L11.8623449,10.3529412 C11.8623449,11.2492997 12.011738,12.0485528 12.3105242,12.7507003 C12.6093104,13.4528478 13.0201414,14.0429505 13.5430172,14.5210084 C14.065893,14.9990663 14.6821395,15.3650794 15.3917567,15.6190476 C16.1013739,15.8730159 16.8670135,16 17.6886755,16 Z M30.2681072,16 C31.030012,16 31.7583033,15.8730159 32.4529812,15.6190476 C33.1476591,15.3650794 33.7639056,14.9953315 34.3017207,14.5098039 C34.8395358,14.0242764 35.2653061,13.426704 35.5790316,12.7170868 C35.8927571,12.0074697 36.0496198,11.1895425 36.0496198,10.2633053 L36.0496198,10.2633053 L36.0496198,9.99439776 C36.0496198,9.08309991 35.8927571,8.27264239 35.5790316,7.56302521 C35.2653061,6.85340803 34.8395358,6.25210084 34.3017207,5.75910364 C33.7639056,5.26610644 33.1476591,4.89262372 32.4529812,4.63865546 C31.7583033,4.38468721 31.030012,4.25770308 30.2681072,4.25770308 C29.5062025,4.25770308 28.7779112,4.38468721 28.0832333,4.63865546 C27.3885554,4.89262372 26.7723089,5.26610644 26.2344938,5.75910364 C25.6966787,6.25210084 25.2709084,6.85340803 24.9571829,7.56302521 C24.6434574,8.27264239 24.4865946,9.08309991 24.4865946,9.99439776 L24.4865946,9.99439776 L24.4865946,10.2633053 C24.4865946,11.1895425 24.6434574,12.0074697 24.9571829,12.7170868 C25.2709084,13.426704 25.6966787,14.0242764 26.2344938,14.5098039 C26.7723089,14.9953315 27.3885554,15.3650794 28.0832333,15.6190476 C28.7779112,15.8730159 29.5062025,16 30.2681072,16 Z M30.2681072,13.3109244 C29.8647459,13.3109244 29.4837935,13.2436975 29.1252501,13.1092437 C28.7667067,12.9747899 28.4529812,12.7805789 28.1840736,12.5266106 C27.9151661,12.2726424 27.7022809,11.9626517 27.5454182,11.5966387 C27.3885554,11.2306256 27.310124,10.8160598 27.310124,10.3529412 L27.310124,10.3529412 L27.310124,9.9047619 C27.310124,9.44164332 27.3885554,9.0270775 27.5454182,8.66106443 C27.7022809,8.29505135 27.9151661,7.98506069 28.1840736,7.73109244 C28.4529812,7.47712418 28.7667067,7.28291317 29.1252501,7.14845938 C29.4837935,7.0140056 29.8647459,6.94677871 30.2681072,6.94677871 C30.6714686,6.94677871 31.052421,7.0140056 31.4109644,7.14845938 C31.7695078,7.28291317 32.0832333,7.47712418 32.3521409,7.73109244 C32.6210484,7.98506069 32.8339336,8.29505135 32.9907963,8.66106443 C33.1476591,9.0270775 33.2260904,9.44164332 33.2260904,9.9047619 L33.2260904,9.9047619 L33.2260904,10.3529412 C33.2260904,10.8160598 33.1476591,11.2306256 32.9907963,11.5966387 C32.8339336,11.9626517 32.6210484,12.2726424 32.3521409,12.5266106 C32.0832333,12.7805789 31.7695078,12.9747899 31.4109644,13.1092437 C31.052421,13.2436975 30.6714686,13.3109244 30.2681072,13.3109244 Z M42.9819928,16 C43.7438976,16 44.4721889,15.8730159 45.1668667,15.6190476 C45.8615446,15.3650794 46.4777911,14.9953315 47.0156062,14.5098039 C47.5534214,14.0242764 47.9791917,13.426704 48.2929172,12.7170868 C48.6066427,12.0074697 48.7635054,11.1895425 48.7635054,10.2633053 L48.7635054,10.2633053 L48.7635054,9.99439776 C48.7635054,9.08309991 48.6066427,8.27264239 48.2929172,7.56302521 C47.9791917,6.85340803 47.5534214,6.25210084 47.0156062,5.75910364 C46.4777911,5.26610644 45.8615446,4.89262372 45.1668667,4.63865546 C44.4721889,4.38468721 43.7438976,4.25770308 42.9819928,4.25770308 C42.220088,4.25770308 41.4917967,4.38468721 40.7971188,4.63865546 C40.102441,4.89262372 39.4861945,5.26610644 38.9483794,5.75910364 C38.4105642,6.25210084 37.9847939,6.85340803 37.6710684,7.56302521 C37.3573429,8.27264239 37.2004802,9.08309991 37.2004802,9.99439776 L37.2004802,9.99439776 L37.2004802,10.2633053 C37.2004802,11.1895425 37.3573429,12.0074697 37.6710684,12.7170868 C37.9847939,13.426704 38.4105642,14.0242764 38.9483794,14.5098039 C39.4861945,14.9953315 40.102441,15.3650794 40.7971188,15.6190476 C41.4917967,15.8730159 42.220088,16 42.9819928,16 Z M42.9819928,13.3109244 C42.5786315,13.3109244 42.1976791,13.2436975 41.8391357,13.1092437 C41.4805922,12.9747899 41.1668667,12.7805789 40.8979592,12.5266106 C40.6290516,12.2726424 40.4161665,11.9626517 40.2593037,11.5966387 C40.102441,11.2306256 40.0240096,10.8160598 40.0240096,10.3529412 L40.0240096,10.3529412 L40.0240096,9.9047619 C40.0240096,9.44164332 40.102441,9.0270775 40.2593037,8.66106443 C40.4161665,8.29505135 40.6290516,7.98506069 40.8979592,7.73109244 C41.1668667,7.47712418 41.4805922,7.28291317 41.8391357,7.14845938 C42.1976791,7.0140056 42.5786315,6.94677871 42.9819928,6.94677871 C43.3853541,6.94677871 43.7663065,7.0140056 44.1248499,7.14845938 C44.4833934,7.28291317 44.7971188,7.47712418 45.0660264,7.73109244 C45.334934,7.98506069 45.5478191,8.29505135 45.7046819,8.66106443 C45.8615446,9.0270775 45.939976,9.44164332 45.939976,9.9047619 L45.939976,9.9047619 L45.939976,10.3529412 C45.939976,10.8160598 45.8615446,11.2306256 45.7046819,11.5966387 C45.5478191,11.9626517 45.334934,12.2726424 45.0660264,12.5266106 C44.7971188,12.7805789 44.4833934,12.9747899 44.1248499,13.1092437 C43.7663065,13.2436975 43.3853541,13.3109244 42.9819928,13.3109244 Z M59.9983994,15.6862745 L59.9983994,12.9971989 L56.9955982,12.9971989 C56.5922369,12.9971989 56.3905562,12.7731092 56.3905562,12.32493 L56.3905562,12.32493 L56.3905562,7.2605042 L60.4017607,7.2605042 L60.4017607,4.57142857 L56.3905562,4.57142857 L56.3905562,0 L53.5670268,0 L53.5670268,4.57142857 L50.2729092,4.57142857 L50.2729092,7.2605042 L53.5670268,7.2605042 L53.5670268,13.9383754 C53.5670268,14.4463119 53.7276244,14.8646125 54.0488195,15.1932773 C54.3700147,15.5219421 54.7845805,15.6862745 55.292517,15.6862745 L55.292517,15.6862745 L59.9983994,15.6862745 Z" id="scoot"></path>
                </g>
            </g>
        </g>
    </g>
</svg>