<svg xmlns="http://www.w3.org/2000/svg" width="96" height="96"><g fill="none" fill-rule="evenodd"><circle cx="48" cy="48" r="48" fill="#FCB72B"/><path fill="#495567" fill-rule="nonzero" d="M60.155 42.6l4.904 4.495a7.215 7.215 0 012.333 5.306v19.573h-1.599V52.401a5.61 5.61 0 00-1.813-4.127l-4.903-4.495 1.078-1.179zM53.8 24a4.003 4.003 0 013.997 3.998v23.656l5.363 5.364-1.13 1.131-7.893-7.893a2.693 2.693 0 00-3.58-.275 2.594 2.594 0 00-.19 3.837l5.597 5.598a.8.8 0 01.1 1.009A18.178 18.178 0 0053 70.544v1.43H33.01a4.003 4.003 0 01-3.997-3.997v-39.98A4.003 4.003 0 0133.01 24zm2.398 6.397H30.612v33.582h19.99v1.599h-19.99v2.399a2.4 2.4 0 002.399 2.398h18.395a19.77 19.77 0 012.972-10.284l-5.142-5.142a4.194 4.194 0 01.303-6.203 4.304 4.304 0 015.729.378l.93.93V30.398zm-11.993 36.78v1.6h-1.6v-1.6h1.6zm-7.196-11.194c.883 0 1.599.716 1.599 1.6v3.197c0 .884-.716 1.6-1.6 1.6H33.81c-.883 0-1.599-.716-1.599-1.6v-3.198c0-.883.716-1.6 1.6-1.6zm7.995 0c.884 0 1.6.716 1.6 1.6v3.197c0 .884-.716 1.6-1.6 1.6h-3.198c-.883 0-1.6-.716-1.6-1.6v-3.198c0-.883.717-1.6 1.6-1.6zm-7.995 1.6H33.81v3.197h3.199v-3.198zm7.995 0h-3.198v3.197h3.198v-3.198zm-7.995-9.596c.883 0 1.599.716 1.599 1.6v3.198c0 .883-.716 1.599-1.6 1.599H33.81c-.883 0-1.599-.716-1.599-1.6v-3.198c0-.883.716-1.599 1.6-1.599zm7.995 0c.884 0 1.6.716 1.6 1.6v3.198c0 .883-.716 1.599-1.6 1.599h-3.198c-.883 0-1.6-.716-1.6-1.6v-3.198c0-.883.717-1.599 1.6-1.599zm-7.995 1.6H33.81v3.198h3.199v-3.199zm7.995 0h-3.198v3.198h3.198v-3.199zM37.01 39.99c.883 0 1.599.716 1.599 1.6v3.198c0 .883-.716 1.6-1.6 1.6H33.81c-.883 0-1.599-.717-1.599-1.6V41.59c0-.884.716-1.6 1.6-1.6zm7.995 0c.884 0 1.6.716 1.6 1.6v3.198c0 .883-.716 1.6-1.6 1.6h-3.198c-.883 0-1.6-.717-1.6-1.6V41.59c0-.884.717-1.6 1.6-1.6zm7.996 0c.883 0 1.6.716 1.6 1.6v3.198c0 .883-.717 1.6-1.6 1.6h-3.198c-.884 0-1.6-.717-1.6-1.6V41.59c0-.884.716-1.6 1.6-1.6zm-15.991 1.6H33.81v3.198h3.199V41.59zm7.995 0h-3.198v3.198h3.198V41.59zm7.996 0h-3.198v3.198H53V41.59zm-15.991-9.595c.883 0 1.599.716 1.599 1.599v3.198c0 .884-.716 1.6-1.6 1.6H33.81c-.883 0-1.599-.716-1.599-1.6v-3.198c0-.883.716-1.6 1.6-1.6zm7.995 0c.884 0 1.6.716 1.6 1.599v3.198c0 .884-.716 1.6-1.6 1.6h-3.198c-.883 0-1.6-.716-1.6-1.6v-3.198c0-.883.717-1.6 1.6-1.6zm7.996 0c.883 0 1.6.716 1.6 1.599v3.198c0 .884-.717 1.6-1.6 1.6h-3.198c-.884 0-1.6-.716-1.6-1.6v-3.198c0-.883.716-1.6 1.6-1.6zm-15.991 1.599H33.81v3.198h3.199v-3.198zm7.995 0h-3.198v3.198h3.198v-3.198zm7.996 0h-3.198v3.198H53v-3.198zm.8-7.996H33.01a2.4 2.4 0 00-2.398 2.399v.8h25.586v-.8a2.4 2.4 0 00-2.398-2.399z"/></g></svg>