<svg xmlns="http://www.w3.org/2000/svg" width="96" height="96"><g fill="none" fill-rule="evenodd"><circle cx="48" cy="48" r="48" fill="#FCB72B"/><path fill="#495567" fill-rule="nonzero" d="M44 28a2.667 2.667 0 012.667 2.667v10.812l2.082.521H54c.368 0 .667.298.667.667v2.666A.667.667 0 0154 46h-5.333a.666.666 0 01-.162-.02l-1.838-.46v1.813H54c.368 0 .667.299.667.667v7.333a2 2 0 012 2V58h2V40.157L57.588 38H54a.667.667 0 01-.667-.667v-2.666c0-.369.299-.667.667-.667h4c.368 0 .667.298.667.667v2.509l1.078 2.157H66c.368 0 .667.299.667.667v5.333A.667.667 0 0166 46h-1.829l3.812 16.517a.667.667 0 01-.65.816h-.666a4.667 4.667 0 01-9.334 0h-12a4.667 4.667 0 11-9.333 0h-7.333a.667.667 0 01-.667-.666V60c0-.368.298-.667.667-.667H32V58h-2a.667.667 0 01-.667-.667v-2.666c0-.369.299-.667.667-.667h2.053a4.667 4.667 0 014.614-4h2v-6.667h-1.334v2a2 2 0 01-2 2h-6.666a.667.667 0 01-.472-1.138l1.529-1.528-1.529-1.529A.667.667 0 0128.667 42h4.666v-2a2 2 0 012-2h3.334v-7.333A2.667 2.667 0 0141.333 28zm16 35.333h-1.333A3.337 3.337 0 0062 66.667a3.337 3.337 0 003.333-3.334H64a2 2 0 11-4 0zm-21.333 0h-1.334a3.337 3.337 0 003.334 3.334A3.337 3.337 0 0044 63.333h-1.333a2 2 0 11-4 0zm24 0h-1.334a.667.667 0 001.334 0zm-21.334 0H40a.667.667 0 101.333 0zm3.334-8.666h-8a.667.667 0 00-.667.666V62h9.333v-6.667a.667.667 0 00-.666-.666zM62.8 46H60v10h1.333v1.333H60V62h6.492L62.8 46zm-4.133 13.333h-9.334V62h9.334v-2.667zm-14-8h-8a3.337 3.337 0 00-3.334 3.334V62h1.334v-6.667a2 2 0 012-2h8a2 2 0 012 2V62H48v-7.333a3.337 3.337 0 00-3.333-3.334zM32 60.667h-2.667V62H32v-1.333zm22.667-4H52V58h3.333v-.667a.667.667 0 00-.666-.666zm-4-5.334h-2.74a4.651 4.651 0 011.406 3.334V58h1.334v-6.667zM41.333 56v1.333H40V56h1.333zM44 56v1.333h-1.333V56H44zm-5.333 0v1.333h-1.334V56h1.334zM64 56v1.333h-1.333V56H64zm-32-.667h-1.333v1.334H32v-1.334zm21.333-6.666H40V50h11.333c.369 0 .667.298.667.667v4.666h1.333v-6.666zm-8-8.667H40v7.333h5.333v-2.146l-2.162-.54a.667.667 0 01-.504-.647v-2.667a.667.667 0 01.828-.646l1.838.459V40zM36 43.333h-5.724l.862.862c.26.26.26.683 0 .943l-.862.862h5.057a.667.667 0 00.667-.667v-2zM56.667 42a2 2 0 110 4 2 2 0 010-4zM44 42.187v1.292l4.749 1.188h4.584v-1.334h-4.666a.667.667 0 01-.162-.02L44 42.187zm18.667-1.52H60v4h2.667v-4zm2.666 0H64v4h1.333v-4zm-8.666 2.666a.667.667 0 100 1.334.667.667 0 000-1.334zm-18-4h-3.334a.667.667 0 00-.666.667v2h4v-2.667zm6.666-3.77L40 37.163v1.504h5.333v-3.104zm12-.23h-2.666v1.334h2.666v-1.334zm-20 0v1.334h-8v-1.334h8zm8-2.666h-2V34a.667.667 0 01-.666.667H40v1.104l5.333-1.6v-1.504zm-8.666 0V34H28v-1.333h8.667zM44 29.333h-2.667c-.736 0-1.333.597-1.333 1.334v2.666h2V32c0-.368.298-.667.667-.667h2.666v-.666c0-.737-.597-1.334-1.333-1.334z"/></g></svg>