<svg xmlns="http://www.w3.org/2000/svg" width="96" height="96"><g fill="none" fill-rule="evenodd"><circle cx="48" cy="48" r="48" fill="#FCB72B"/><g fill-rule="nonzero"><path fill="#000" d="M45.07 62.301a.833.833 0 00-.585.242.833.833 0 00-.242.585c0 .217.088.43.242.585a.833.833 0 00.585.242c.217 0 .43-.089.584-.242a.832.832 0 00.243-.585.833.833 0 00-.243-.585.834.834 0 00-.584-.242z"/><path fill="#495567" d="M61.54 48.419l-1.928-8.706c.52-.07.979-.335 1.301-.718.381.238.83.376 1.312.376h1.654c.456 0 .826-.37.826-.826v-3.308a.827.827 0 00-.826-.827h-1.654c-.496 0-.958.147-1.345.398a2.06 2.06 0 00-1.547-.698h-4.88c-.878 0-1.628.55-1.927 1.323h-1.96c-1.186 0-2.15.964-2.15 2.15 0 1.185.964 2.15 2.15 2.15h4.256v1.666a.827.827 0 101.654 0v-1.666h1.447l2.075 9.378-3.928 6.997a2.429 2.429 0 01-2.113 1.234h-9.806c-.411-3.442-3.346-6.121-6.898-6.121a6.88 6.88 0 00-4.287 1.48l-.005.004a6.906 6.906 0 00-2.607 4.637h-1.698c.108-5.944 4.977-10.746 10.946-10.746h5.866c.463 0 .84.377.84.84v7.426c0 .456.37.827.826.827h4.4a4.932 4.932 0 004.932-4.927l.004-2.747a.827.827 0 00-1.654-.003l-.004 2.748a3.279 3.279 0 01-3.278 3.274h-3.573v-6.599a2.48 2.48 0 00-.293-1.172 2.482 2.482 0 001.244-2.15 2.484 2.484 0 00-2.48-2.48h-3.019c-.29 0-.568.05-.827.142v-7.253a2.484 2.484 0 00-2.48-2.48H34.77c-3.867 0-7.082 2.838-7.673 6.541a.827.827 0 00-.039.25v.015c-.039.316-.059.638-.059.965v4.301c0 1.242.918 2.274 2.11 2.453l1.832 1.83A12.568 12.568 0 0027 57.545v.625c0 .457.37.827.827.827h4.647a.845.845 0 00-.017.165c0 1.2.444 2.298 1.176 3.14h-5.806a.827.827 0 000 1.654h9.33l.096.002a4.801 4.801 0 004.796-4.796.845.845 0 00-.016-.165h11.924a4.085 4.085 0 003.281-1.656h1.048A4.773 4.773 0 0059.1 62.3H48.376a.827.827 0 000 1.654h14.248l.096.002a4.801 4.801 0 004.796-4.796 4.79 4.79 0 00-.36-1.821h1.352c.457 0 .827-.37.827-.827 0-4.365-3.47-7.934-7.797-8.094zm-18.127-5.132h3.018a.828.828 0 010 1.654h-3.018a.828.828 0 010-1.654zm-14.76-3.474c0-.051.003-.102.005-.153h9.048a.827.827 0 100-1.654h-8.78a6.128 6.128 0 015.845-4.31h5.334c.456 0 .827.37.827.826v9.592c0 .456-.37.827-.827.827H29.481a.828.828 0 01-.827-.827v-4.301zm2.824 6.782h1.892c-.397.226-.78.475-1.15.742l-.742-.742zm8.918 12.566a3.145 3.145 0 01-3.11 3.142l-.032-.002h-.095a3.145 3.145 0 01-3.047-3.14.845.845 0 00-.016-.165h6.317a.845.845 0 00-.017.165zm-8.372-1.819a5.26 5.26 0 011.96-3.337L33.99 54a5.24 5.24 0 013.263-1.125 5.303 5.303 0 015.23 4.467h-10.46zm30.202-21.278h.827v1.654h-.827a.828.828 0 010-1.654zM50.07 37.583c0-.274.222-.496.496-.496h1.822v.581c0 .14.014.278.04.41h-1.862a.497.497 0 01-.496-.495zm5.579.496h-1.197a.411.411 0 01-.41-.411v-1.494c0-.226.184-.41.41-.41h4.881c.227 0 .411.184.411.41v1.494c0 .227-.184.41-.41.41h-3.685zM65.863 59.16a3.145 3.145 0 01-3.11 3.142l-.032-.002h-.095a3.145 3.145 0 01-3.047-3.14c0-.656.205-1.291.582-1.821h5.12c.377.53.582 1.165.582 1.821zm-7.66-3.475l3.153-5.616a6.454 6.454 0 016.273 5.616h-9.426z"/><path fill="#000" d="M55.649 45.533a.827.827 0 100-1.653h-.003a.826.826 0 10.003 1.653z"/></g></g></svg>