<?xml version="1.0" encoding="UTF-8"?>
<svg width="327px" height="308px" viewBox="0 0 327 308" version="1.1" xmlns="http://www.w3.org/2000/svg" xmlns:xlink="http://www.w3.org/1999/xlink">
    <title>Group</title>
    <defs>
        <linearGradient x1="31.367907%" y1="70.5786954%" x2="100%" y2="22.6629086%" id="linearGradient-1">
            <stop stop-color="#9975D0" offset="0%"></stop>
            <stop stop-color="#4A3FDB" offset="100%"></stop>
        </linearGradient>
    </defs>
    <g id="Designs" stroke="none" stroke-width="1" fill="none" fill-rule="evenodd">
        <g id="Slide-2---Mobile" transform="translate(-24.000000, -24.000000)">
            <g id="Group" transform="translate(24.000000, 24.000000)">
                <path d="M109.429344,107.852251 C80.0540286,136.185826 132.262286,187.344032 191.900829,229.728711 C251.539372,272.11339 279.878409,301.011878 318.258319,263.993038 C356.638229,226.974199 371.898645,147.958959 318.258319,107.852251 C264.617994,67.7455431 138.804659,79.5186759 109.429344,107.852251 Z" id="Path-4-Copy-3" fill="url(#linearGradient-1)" transform="translate(227.000000, 181.500000) scale(-1, 1) rotate(90.000000) translate(-227.000000, -181.500000) "></path>
                <path d="M6.99100334,21.4352834 C-17.3718572,44.927946 25.9278484,87.3455541 75.3899732,122.48863 C124.852098,157.631706 148.355506,181.592763 180.186463,150.89875 C212.01742,120.204738 224.673876,54.6895888 180.186463,21.4352834 C135.69905,-11.8190221 31.3538639,-2.05737928 6.99100334,21.4352834 Z" id="Path-4-Copy-4" fill="#F4F4FC" transform="translate(104.500000, 82.500000) scale(1, -1) translate(-104.500000, -82.500000) "></path>
                <g id="Group-3" transform="translate(162.000000, 12.000000)" stroke="#D3629D" stroke-width="2">
                    <polyline id="Path-3" points="1.653243e-14 9.37415783 9.3476397 -1.32634644e-14 18.6952794 9.37415783 28.0429191 -1.32634644e-14 37.3905588 9.37415783 46.7381985 -1.32634644e-14"></polyline>
                    <polyline id="Path-3-Copy" points="1.653243e-14 17.7741578 9.3476397 8.4 18.6952794 17.7741578 28.0429191 8.4 37.3905588 17.7741578 46.7381985 8.4"></polyline>
                    <polyline id="Path-3-Copy-2" points="1.653243e-14 26.1741578 9.3476397 16.8 18.6952794 26.1741578 28.0429191 16.8 37.3905588 26.1741578 46.7381985 16.8"></polyline>
                    <polyline id="Path-3-Copy-3" points="1.653243e-14 34.5741578 9.3476397 25.2 18.6952794 34.5741578 28.0429191 25.2 37.3905588 34.5741578 46.7381985 25.2"></polyline>
                </g>
                <path d="M312.598901,300.166667 C313.372707,300.166667 314,300.80093 314,301.583333 C314,302.365737 313.372707,303 312.598901,303 C311.825096,303 311.197802,302.365737 311.197802,301.583333 C311.197802,300.80093 311.825096,300.166667 312.598901,300.166667 Z M302.324176,300.166667 C303.097981,300.166667 303.725275,300.80093 303.725275,301.583333 C303.725275,302.365737 303.097981,303 302.324176,303 C301.55037,303 300.923077,302.365737 300.923077,301.583333 C300.923077,300.80093 301.55037,300.166667 302.324176,300.166667 Z M292.049451,300.166667 C292.823256,300.166667 293.450549,300.80093 293.450549,301.583333 C293.450549,302.365737 292.823256,303 292.049451,303 C291.275645,303 290.648352,302.365737 290.648352,301.583333 C290.648352,300.80093 291.275645,300.166667 292.049451,300.166667 Z M281.774725,300.166667 C282.548531,300.166667 283.175824,300.80093 283.175824,301.583333 C283.175824,302.365737 282.548531,303 281.774725,303 C281.00092,303 280.373626,302.365737 280.373626,301.583333 C280.373626,300.80093 281.00092,300.166667 281.774725,300.166667 Z M271.5,300.166667 C272.273806,300.166667 272.901099,300.80093 272.901099,301.583333 C272.901099,302.365737 272.273806,303 271.5,303 C270.726194,303 270.098901,302.365737 270.098901,301.583333 C270.098901,300.80093 270.726194,300.166667 271.5,300.166667 Z M261.225275,300.166667 C261.99908,300.166667 262.626374,300.80093 262.626374,301.583333 C262.626374,302.365737 261.99908,303 261.225275,303 C260.451469,303 259.824176,302.365737 259.824176,301.583333 C259.824176,300.80093 260.451469,300.166667 261.225275,300.166667 Z M250.950549,300.166667 C251.724355,300.166667 252.351648,300.80093 252.351648,301.583333 C252.351648,302.365737 251.724355,303 250.950549,303 C250.176744,303 249.549451,302.365737 249.549451,301.583333 C249.549451,300.80093 250.176744,300.166667 250.950549,300.166667 Z M240.675824,300.166667 C241.44963,300.166667 242.076923,300.80093 242.076923,301.583333 C242.076923,302.365737 241.44963,303 240.675824,303 C239.902019,303 239.274725,302.365737 239.274725,301.583333 C239.274725,300.80093 239.902019,300.166667 240.675824,300.166667 Z M230.401099,300.166667 C231.174904,300.166667 231.802198,300.80093 231.802198,301.583333 C231.802198,302.365737 231.174904,303 230.401099,303 C229.627293,303 229,302.365737 229,301.583333 C229,300.80093 229.627293,300.166667 230.401099,300.166667 Z M230.401099,289.777778 C231.174904,289.777778 231.802198,290.412041 231.802198,291.194444 C231.802198,291.976848 231.174904,292.611111 230.401099,292.611111 C229.627293,292.611111 229,291.976848 229,291.194444 C229,290.412041 229.627293,289.777778 230.401099,289.777778 Z M312.598901,289.777778 C313.372707,289.777778 314,290.412041 314,291.194444 C314,291.976848 313.372707,292.611111 312.598901,292.611111 C311.825096,292.611111 311.197802,291.976848 311.197802,291.194444 C311.197802,290.412041 311.825096,289.777778 312.598901,289.777778 Z M302.324176,289.777778 C303.097981,289.777778 303.725275,290.412041 303.725275,291.194444 C303.725275,291.976848 303.097981,292.611111 302.324176,292.611111 C301.55037,292.611111 300.923077,291.976848 300.923077,291.194444 C300.923077,290.412041 301.55037,289.777778 302.324176,289.777778 Z M292.049451,289.777778 C292.823256,289.777778 293.450549,290.412041 293.450549,291.194444 C293.450549,291.976848 292.823256,292.611111 292.049451,292.611111 C291.275645,292.611111 290.648352,291.976848 290.648352,291.194444 C290.648352,290.412041 291.275645,289.777778 292.049451,289.777778 Z M281.774725,289.777778 C282.548531,289.777778 283.175824,290.412041 283.175824,291.194444 C283.175824,291.976848 282.548531,292.611111 281.774725,292.611111 C281.00092,292.611111 280.373626,291.976848 280.373626,291.194444 C280.373626,290.412041 281.00092,289.777778 281.774725,289.777778 Z M271.5,289.777778 C272.273806,289.777778 272.901099,290.412041 272.901099,291.194444 C272.901099,291.976848 272.273806,292.611111 271.5,292.611111 C270.726194,292.611111 270.098901,291.976848 270.098901,291.194444 C270.098901,290.412041 270.726194,289.777778 271.5,289.777778 Z M261.225275,289.777778 C261.99908,289.777778 262.626374,290.412041 262.626374,291.194444 C262.626374,291.976848 261.99908,292.611111 261.225275,292.611111 C260.451469,292.611111 259.824176,291.976848 259.824176,291.194444 C259.824176,290.412041 260.451469,289.777778 261.225275,289.777778 Z M250.950549,289.777778 C251.724355,289.777778 252.351648,290.412041 252.351648,291.194444 C252.351648,291.976848 251.724355,292.611111 250.950549,292.611111 C250.176744,292.611111 249.549451,291.976848 249.549451,291.194444 C249.549451,290.412041 250.176744,289.777778 250.950549,289.777778 Z M240.675824,289.777778 C241.44963,289.777778 242.076923,290.412041 242.076923,291.194444 C242.076923,291.976848 241.44963,292.611111 240.675824,292.611111 C239.902019,292.611111 239.274725,291.976848 239.274725,291.194444 C239.274725,290.412041 239.902019,289.777778 240.675824,289.777778 Z M240.675824,279.388889 C241.44963,279.388889 242.076923,280.023152 242.076923,280.805556 C242.076923,281.587959 241.44963,282.222222 240.675824,282.222222 C239.902019,282.222222 239.274725,281.587959 239.274725,280.805556 C239.274725,280.023152 239.902019,279.388889 240.675824,279.388889 Z M250.950549,279.388889 C251.724355,279.388889 252.351648,280.023152 252.351648,280.805556 C252.351648,281.587959 251.724355,282.222222 250.950549,282.222222 C250.176744,282.222222 249.549451,281.587959 249.549451,280.805556 C249.549451,280.023152 250.176744,279.388889 250.950549,279.388889 Z M261.225275,279.388889 C261.99908,279.388889 262.626374,280.023152 262.626374,280.805556 C262.626374,281.587959 261.99908,282.222222 261.225275,282.222222 C260.451469,282.222222 259.824176,281.587959 259.824176,280.805556 C259.824176,280.023152 260.451469,279.388889 261.225275,279.388889 Z M271.5,279.388889 C272.273806,279.388889 272.901099,280.023152 272.901099,280.805556 C272.901099,281.587959 272.273806,282.222222 271.5,282.222222 C270.726194,282.222222 270.098901,281.587959 270.098901,280.805556 C270.098901,280.023152 270.726194,279.388889 271.5,279.388889 Z M281.774725,279.388889 C282.548531,279.388889 283.175824,280.023152 283.175824,280.805556 C283.175824,281.587959 282.548531,282.222222 281.774725,282.222222 C281.00092,282.222222 280.373626,281.587959 280.373626,280.805556 C280.373626,280.023152 281.00092,279.388889 281.774725,279.388889 Z M292.049451,279.388889 C292.823256,279.388889 293.450549,280.023152 293.450549,280.805556 C293.450549,281.587959 292.823256,282.222222 292.049451,282.222222 C291.275645,282.222222 290.648352,281.587959 290.648352,280.805556 C290.648352,280.023152 291.275645,279.388889 292.049451,279.388889 Z M302.324176,279.388889 C303.097981,279.388889 303.725275,280.023152 303.725275,280.805556 C303.725275,281.587959 303.097981,282.222222 302.324176,282.222222 C301.55037,282.222222 300.923077,281.587959 300.923077,280.805556 C300.923077,280.023152 301.55037,279.388889 302.324176,279.388889 Z M312.598901,279.388889 C313.372707,279.388889 314,280.023152 314,280.805556 C314,281.587959 313.372707,282.222222 312.598901,282.222222 C311.825096,282.222222 311.197802,281.587959 311.197802,280.805556 C311.197802,280.023152 311.825096,279.388889 312.598901,279.388889 Z M230.401099,279.388889 C231.174904,279.388889 231.802198,280.023152 231.802198,280.805556 C231.802198,281.587959 231.174904,282.222222 230.401099,282.222222 C229.627293,282.222222 229,281.587959 229,280.805556 C229,280.023152 229.627293,279.388889 230.401099,279.388889 Z M240.675824,269 C241.44963,269 242.076923,269.634263 242.076923,270.416667 C242.076923,271.19907 241.44963,271.833333 240.675824,271.833333 C239.902019,271.833333 239.274725,271.19907 239.274725,270.416667 C239.274725,269.634263 239.902019,269 240.675824,269 Z M250.950549,269 C251.724355,269 252.351648,269.634263 252.351648,270.416667 C252.351648,271.19907 251.724355,271.833333 250.950549,271.833333 C250.176744,271.833333 249.549451,271.19907 249.549451,270.416667 C249.549451,269.634263 250.176744,269 250.950549,269 Z M261.225275,269 C261.99908,269 262.626374,269.634263 262.626374,270.416667 C262.626374,271.19907 261.99908,271.833333 261.225275,271.833333 C260.451469,271.833333 259.824176,271.19907 259.824176,270.416667 C259.824176,269.634263 260.451469,269 261.225275,269 Z M271.5,269 C272.273806,269 272.901099,269.634263 272.901099,270.416667 C272.901099,271.19907 272.273806,271.833333 271.5,271.833333 C270.726194,271.833333 270.098901,271.19907 270.098901,270.416667 C270.098901,269.634263 270.726194,269 271.5,269 Z M281.774725,269 C282.548531,269 283.175824,269.634263 283.175824,270.416667 C283.175824,271.19907 282.548531,271.833333 281.774725,271.833333 C281.00092,271.833333 280.373626,271.19907 280.373626,270.416667 C280.373626,269.634263 281.00092,269 281.774725,269 Z M292.049451,269 C292.823256,269 293.450549,269.634263 293.450549,270.416667 C293.450549,271.19907 292.823256,271.833333 292.049451,271.833333 C291.275645,271.833333 290.648352,271.19907 290.648352,270.416667 C290.648352,269.634263 291.275645,269 292.049451,269 Z M302.324176,269 C303.097981,269 303.725275,269.634263 303.725275,270.416667 C303.725275,271.19907 303.097981,271.833333 302.324176,271.833333 C301.55037,271.833333 300.923077,271.19907 300.923077,270.416667 C300.923077,269.634263 301.55037,269 302.324176,269 Z M312.598901,269 C313.372707,269 314,269.634263 314,270.416667 C314,271.19907 313.372707,271.833333 312.598901,271.833333 C311.825096,271.833333 311.197802,271.19907 311.197802,270.416667 C311.197802,269.634263 311.825096,269 312.598901,269 Z M230.401099,269 C231.174904,269 231.802198,269.634263 231.802198,270.416667 C231.802198,271.19907 231.174904,271.833333 230.401099,271.833333 C229.627293,271.833333 229,271.19907 229,270.416667 C229,269.634263 229.627293,269 230.401099,269 Z" id="Combined-Shape-Copy-4" fill="#CF6BCB"></path>
            </g>
        </g>
    </g>
</svg>