<?xml version="1.0" encoding="UTF-8"?>
<svg width="18px" height="18px" viewBox="0 0 18 18" version="1.1" xmlns="http://www.w3.org/2000/svg" xmlns:xlink="http://www.w3.org/1999/xlink">
    <title>search</title>
    <g id="Page-1" stroke="none" stroke-width="1" fill="none" fill-rule="evenodd">
        <g id="Desktop-HD" transform="translate(-112.000000, -147.000000)" fill="#848484">
            <g id="SEARCH-Copy" transform="translate(80.000000, 128.000000)">
                <g id="search" transform="translate(32.000000, 19.000000)">
                    <path d="M12.5,11 L11.7,11 L11.4,10.7 C12.4,9.6 13,8.1 13,6.5 C13,2.9 10.1,0 6.5,0 C2.9,0 0,2.9 0,6.5 C0,10.1 2.9,13 6.5,13 C8.1,13 9.6,12.4 10.7,11.4 L11,11.7 L11,12.5 L16,17.5 L17.5,16 L12.5,11 L12.5,11 Z M6.5,11 C4,11 2,9 2,6.5 C2,4 4,2 6.5,2 C9,2 11,4 11,6.5 C11,9 9,11 6.5,11 L6.5,11 Z" id="Shape"></path>
                </g>
            </g>
        </g>
    </g>
</svg>