<svg height="667" width="375" xmlns="http://www.w3.org/2000/svg" xmlns:xlink="http://www.w3.org/1999/xlink"><linearGradient id="a"><stop offset="0" stop-color="#1e2d69"/><stop offset=".999" stop-color="#0c122c" stop-opacity="0"/></linearGradient><linearGradient id="b" x1="38.397%" x2="65.758%" xlink:href="#a" y1="41.964%" y2="63.803%"/><linearGradient id="c" x1="38.397%" x2="65.758%" xlink:href="#a" y1="41.96%" y2="63.811%"/><g fill="none" fill-rule="evenodd"><path d="M0 0h375v667H0z" fill="#0f1b3d"/><g fill-opacity=".75"><path d="M6.042 1010.028C-27.24 830.633 70.419 671.991 463.665 638.636c393.247-33.356 413.417-249.545 629.08-443.874C1308.408.432 1702.064-136.15 1812.4 226.763c110.337 362.913 67.457 599.428-291.158 898.039-358.616 298.61-736.114 236.909-892.112 213.958S39.323 1189.423 6.042 1010.028z" fill="url(#b)" transform="matrix(-1 0 0 1 1172 -213)"/><path d="M182.357 1184.549c-24-129.4 46.423-243.831 330-267.891s298.12-180 453.64-320.173c155.518-140.173 439.389-238.692 518.955 23.083 79.565 261.775 48.644 432.376-209.96 647.769-258.603 215.393-530.823 170.886-643.316 154.332-112.492-16.555-425.32-107.72-449.32-237.12z" fill="url(#c)" transform="matrix(-1 0 0 1 1007.603 -213)"/></g></g></svg>