<?xml version="1.0" encoding="UTF-8"?>
<svg width="108px" height="29px" viewBox="0 0 108 29" version="1.1" xmlns="http://www.w3.org/2000/svg" xmlns:xlink="http://www.w3.org/1999/xlink">
    <title>scoot</title>
    <g id="Designs" stroke="none" stroke-width="1" fill="none" fill-rule="evenodd">
        <g id="Mobile---Home" transform="translate(-134.000000, -4584.000000)" fill="#FFFFFF" fill-rule="nonzero">
            <g id="Group-21" transform="translate(0.000000, 4200.000000)">
                <g id="Group-19" transform="translate(0.000000, 320.000000)">
                    <g id="Group-18" transform="translate(128.000000, 64.000000)">
                        <path d="M15.12,28.56 C17.7333333,28.56 19.76,27.9733333 21.2,26.8 C22.64,25.6266667 23.36,24.0533333 23.36,22.08 L23.36,22.08 L23.36,21.84 C23.36,20.0533333 22.72,18.66 21.44,17.66 C20.16,16.66 18.5066667,16.0533333 16.48,15.84 C14.72,15.6533333 13.5066667,15.42 12.84,15.14 C12.1733333,14.86 11.84,14.4 11.84,13.76 C11.84,13.3066667 12.0533333,12.9266667 12.48,12.62 C12.9066667,12.3133333 13.5466667,12.16 14.4,12.16 C15.3333333,12.16 16.0933333,12.3666667 16.68,12.78 C17.2666667,13.1933333 17.68,13.76 17.92,14.48 L17.92,14.48 L22.48,12.64 C22.2666667,12.08 21.96,11.5 21.56,10.9 C21.16,10.3 20.64,9.75333333 20,9.26 C19.36,8.76666667 18.58,8.36666667 17.66,8.06 C16.74,7.75333333 15.6533333,7.6 14.4,7.6 C13.44,7.6 12.5066667,7.73333333 11.6,8 C10.6933333,8.26666667 9.89333333,8.66 9.2,9.18 C8.50666667,9.7 7.94666667,10.3333333 7.52,11.08 C7.09333333,11.8266667 6.88,12.6933333 6.88,13.68 L6.88,13.68 L6.88,13.92 C6.88,15.8133333 7.54,17.2466667 8.86,18.22 C10.18,19.1933333 11.96,19.7733333 14.2,19.96 C15.0266667,20.04 15.7133333,20.1466667 16.26,20.28 C16.8066667,20.4133333 17.24,20.58 17.56,20.78 C17.88,20.98 18.1,21.1933333 18.22,21.42 C18.34,21.6466667 18.4,21.8933333 18.4,22.16 C18.4,22.6133333 18.1666667,23.0333333 17.7,23.42 C17.2333333,23.8066667 16.3733333,24 15.12,24 C13.7066667,24 12.66,23.68 11.98,23.04 C11.3,22.4 10.8533333,21.6533333 10.64,20.8 L10.64,20.8 L6,22.32 C6.13333333,23.0133333 6.39333333,23.7266667 6.78,24.46 C7.16666667,25.1933333 7.72,25.86 8.44,26.46 C9.16,27.06 10.0666667,27.56 11.16,27.96 C12.2533333,28.36 13.5733333,28.56 15.12,28.56 Z M37.5742857,28.56 C40.4009524,28.56 42.6609524,27.84 44.3542857,26.4 C46.047619,24.96 47.1209524,23.0666667 47.5742857,20.72 L47.5742857,20.72 L42.6142857,19.48 C42.3742857,20.7866667 41.847619,21.8266667 41.0342857,22.6 C40.2209524,23.3733333 39.0409524,23.76 37.4942857,23.76 C36.7742857,23.76 36.0942857,23.6466667 35.4542857,23.42 C34.8142857,23.1933333 34.2542857,22.8533333 33.7742857,22.4 C33.2942857,21.9466667 32.9142857,21.38 32.6342857,20.7 C32.3542857,20.02 32.2142857,19.24 32.2142857,18.36 L32.2142857,18.36 L32.2142857,18.12 C32.2142857,17.24 32.3542857,16.4466667 32.6342857,15.74 C32.9142857,15.0333333 33.2942857,14.4333333 33.7742857,13.94 C34.2542857,13.4466667 34.8142857,13.0666667 35.4542857,12.8 C36.0942857,12.5333333 36.7742857,12.4 37.4942857,12.4 C39.0409524,12.4 40.2409524,12.8266667 41.0942857,13.68 C41.947619,14.5333333 42.4542857,15.5466667 42.6142857,16.72 L42.6142857,16.72 L47.5742857,15.44 C47.1209524,13.0933333 46.0342857,11.2 44.3142857,9.76 C42.5942857,8.32 40.347619,7.6 37.5742857,7.6 C36.1342857,7.6 34.7809524,7.84 33.5142857,8.32 C32.247619,8.8 31.1409524,9.49333333 30.1942857,10.4 C29.247619,11.3066667 28.507619,12.4 27.9742857,13.68 C27.4409524,14.96 27.1742857,16.4 27.1742857,18 L27.1742857,18 L27.1742857,18.48 C27.1742857,20.08 27.4409524,21.5066667 27.9742857,22.76 C28.507619,24.0133333 29.2409524,25.0666667 30.1742857,25.92 C31.107619,26.7733333 32.207619,27.4266667 33.4742857,27.88 C34.7409524,28.3333333 36.107619,28.56 37.5742857,28.56 Z M60.0285714,28.56 C61.3885714,28.56 62.6885714,28.3333333 63.9285714,27.88 C65.1685714,27.4266667 66.2685714,26.7666667 67.2285714,25.9 C68.1885714,25.0333333 68.9485714,23.9666667 69.5085714,22.7 C70.0685714,21.4333333 70.3485714,19.9733333 70.3485714,18.32 L70.3485714,18.32 L70.3485714,17.84 C70.3485714,16.2133333 70.0685714,14.7666667 69.5085714,13.5 C68.9485714,12.2333333 68.1885714,11.16 67.2285714,10.28 C66.2685714,9.4 65.1685714,8.73333333 63.9285714,8.28 C62.6885714,7.82666667 61.3885714,7.6 60.0285714,7.6 C58.6685714,7.6 57.3685714,7.82666667 56.1285714,8.28 C54.8885714,8.73333333 53.7885714,9.4 52.8285714,10.28 C51.8685714,11.16 51.1085714,12.2333333 50.5485714,13.5 C49.9885714,14.7666667 49.7085714,16.2133333 49.7085714,17.84 L49.7085714,17.84 L49.7085714,18.32 C49.7085714,19.9733333 49.9885714,21.4333333 50.5485714,22.7 C51.1085714,23.9666667 51.8685714,25.0333333 52.8285714,25.9 C53.7885714,26.7666667 54.8885714,27.4266667 56.1285714,27.88 C57.3685714,28.3333333 58.6685714,28.56 60.0285714,28.56 Z M60.0285714,23.76 C59.3085714,23.76 58.6285714,23.64 57.9885714,23.4 C57.3485714,23.16 56.7885714,22.8133333 56.3085714,22.36 C55.8285714,21.9066667 55.4485714,21.3533333 55.1685714,20.7 C54.8885714,20.0466667 54.7485714,19.3066667 54.7485714,18.48 L54.7485714,18.48 L54.7485714,17.68 C54.7485714,16.8533333 54.8885714,16.1133333 55.1685714,15.46 C55.4485714,14.8066667 55.8285714,14.2533333 56.3085714,13.8 C56.7885714,13.3466667 57.3485714,13 57.9885714,12.76 C58.6285714,12.52 59.3085714,12.4 60.0285714,12.4 C60.7485714,12.4 61.4285714,12.52 62.0685714,12.76 C62.7085714,13 63.2685714,13.3466667 63.7485714,13.8 C64.2285714,14.2533333 64.6085714,14.8066667 64.8885714,15.46 C65.1685714,16.1133333 65.3085714,16.8533333 65.3085714,17.68 L65.3085714,17.68 L65.3085714,18.48 C65.3085714,19.3066667 65.1685714,20.0466667 64.8885714,20.7 C64.6085714,21.3533333 64.2285714,21.9066667 63.7485714,22.36 C63.2685714,22.8133333 62.7085714,23.16 62.0685714,23.4 C61.4285714,23.64 60.7485714,23.76 60.0285714,23.76 Z M82.7228571,28.56 C84.0828571,28.56 85.3828571,28.3333333 86.6228571,27.88 C87.8628571,27.4266667 88.9628571,26.7666667 89.9228571,25.9 C90.8828571,25.0333333 91.6428571,23.9666667 92.2028571,22.7 C92.7628571,21.4333333 93.0428571,19.9733333 93.0428571,18.32 L93.0428571,18.32 L93.0428571,17.84 C93.0428571,16.2133333 92.7628571,14.7666667 92.2028571,13.5 C91.6428571,12.2333333 90.8828571,11.16 89.9228571,10.28 C88.9628571,9.4 87.8628571,8.73333333 86.6228571,8.28 C85.3828571,7.82666667 84.0828571,7.6 82.7228571,7.6 C81.3628571,7.6 80.0628571,7.82666667 78.8228571,8.28 C77.5828571,8.73333333 76.4828571,9.4 75.5228571,10.28 C74.5628571,11.16 73.8028571,12.2333333 73.2428571,13.5 C72.6828571,14.7666667 72.4028571,16.2133333 72.4028571,17.84 L72.4028571,17.84 L72.4028571,18.32 C72.4028571,19.9733333 72.6828571,21.4333333 73.2428571,22.7 C73.8028571,23.9666667 74.5628571,25.0333333 75.5228571,25.9 C76.4828571,26.7666667 77.5828571,27.4266667 78.8228571,27.88 C80.0628571,28.3333333 81.3628571,28.56 82.7228571,28.56 Z M82.7228571,23.76 C82.0028571,23.76 81.3228571,23.64 80.6828571,23.4 C80.0428571,23.16 79.4828571,22.8133333 79.0028571,22.36 C78.5228571,21.9066667 78.1428571,21.3533333 77.8628571,20.7 C77.5828571,20.0466667 77.4428571,19.3066667 77.4428571,18.48 L77.4428571,18.48 L77.4428571,17.68 C77.4428571,16.8533333 77.5828571,16.1133333 77.8628571,15.46 C78.1428571,14.8066667 78.5228571,14.2533333 79.0028571,13.8 C79.4828571,13.3466667 80.0428571,13 80.6828571,12.76 C81.3228571,12.52 82.0028571,12.4 82.7228571,12.4 C83.4428571,12.4 84.1228571,12.52 84.7628571,12.76 C85.4028571,13 85.9628571,13.3466667 86.4428571,13.8 C86.9228571,14.2533333 87.3028571,14.8066667 87.5828571,15.46 C87.8628571,16.1133333 88.0028571,16.8533333 88.0028571,17.68 L88.0028571,17.68 L88.0028571,18.48 C88.0028571,19.3066667 87.8628571,20.0466667 87.5828571,20.7 C87.3028571,21.3533333 86.9228571,21.9066667 86.4428571,22.36 C85.9628571,22.8133333 85.4028571,23.16 84.7628571,23.4 C84.1228571,23.64 83.4428571,23.76 82.7228571,23.76 Z M113.097143,28 L113.097143,23.2 L107.737143,23.2 C107.017143,23.2 106.657143,22.8 106.657143,22 L106.657143,22 L106.657143,12.96 L113.817143,12.96 L113.817143,8.16 L106.657143,8.16 L106.657143,0 L101.617143,0 L101.617143,8.16 L95.7371429,8.16 L95.7371429,12.96 L101.617143,12.96 L101.617143,24.88 C101.617143,25.7866667 101.90381,26.5333333 102.477143,27.12 C103.050476,27.7066667 103.790476,28 104.697143,28 L104.697143,28 L113.097143,28 Z" id="scoot"></path>
                    </g>
                </g>
            </g>
        </g>
    </g>
</svg>