<svg xmlns="http://www.w3.org/2000/svg" width="40" height="33"><path fill="#1B1D23" d="M40 4.262a16.384 16.384 0 01-4.713 1.291 8.22 8.22 0 003.608-4.54 16.44 16.44 0 01-5.212 1.992 8.193 8.193 0 00-5.99-2.592c-5.298 0-9.191 4.944-7.995 10.075C12.88 10.147 6.833 6.88 2.785 1.915.635 5.603 1.67 10.428 5.323 12.872a8.172 8.172 0 01-3.715-1.027c-.09 3.802 2.635 7.358 6.582 8.15a8.225 8.225 0 01-3.707.14 8.213 8.213 0 007.667 5.698A16.5 16.5 0 010 29.233a23.232 23.232 0 0012.58 3.687c15.237 0 23.845-12.868 23.325-24.41A16.708 16.708 0 0040 4.262z"/></svg>