<?xml version="1.0" encoding="UTF-8"?>
<svg width="389px" height="509px" viewBox="0 0 389 509" version="1.1" xmlns="http://www.w3.org/2000/svg" xmlns:xlink="http://www.w3.org/1999/xlink">
    <title>Group 2</title>
    <g id="Designs" stroke="none" stroke-width="1" fill="none" fill-rule="evenodd" opacity="0.0991675967">
        <g id="Desktop" transform="translate(-281.000000, -129.000000)" fill-rule="nonzero">
            <g id="Group-5" transform="translate(281.000000, 129.000000)">
                <g id="Group-2" transform="translate(-576.000000, -294.000000)">
                    <path d="M467.755011,936.352671 L18.7439896,670.729504 C4.44894481,662.683494 -7.80395069,649.500617 6.12455445,640.851812 L456.732641,380.889681 C463.487442,376.696321 473.750551,373.944428 480.63626,377.954329 L951.901471,651.780757 C966.196516,660.088852 968.762293,683.230959 954.519611,691.61768 L526.924976,935.933335 C508.6634,946.537276 486.164738,946.696724 467.755011,936.352671 Z" id="Path-Copy" fill="#6862E6"></path>
                    <path d="M467.755011,560.352671 L18.7439896,294.729504 C4.44894481,286.683494 -7.80395069,273.500617 6.12455445,264.851812 L456.732641,4.8896809 C463.487442,0.696320593 473.750551,-2.05557211 480.63626,1.95432869 L951.901471,275.780757 C966.196516,284.088852 968.762293,307.230959 954.519611,315.61768 L526.924976,559.933335 C508.6634,570.537276 486.164738,570.696724 467.755011,560.352671 Z" id="Path-Copy-2" stroke="#1E1F36"></path>
                    <path d="M467.755011,635.352671 L18.7439896,369.729504 C4.44894481,361.683494 -7.80395069,348.500617 6.12455445,339.851812 L456.732641,79.8896809 C463.487442,75.6963206 473.750551,72.9444279 480.63626,76.9543287 L951.901471,350.780757 C966.196516,359.088852 968.762293,382.230959 954.519611,390.61768 L526.924976,634.933335 C508.6634,645.537276 486.164738,645.696724 467.755011,635.352671 Z" id="Path-Copy-3" stroke="#1E1F36"></path>
                </g>
            </g>
        </g>
    </g>
</svg>