<?xml version="1.0" encoding="UTF-8"?>
<svg width="388px" height="359px" viewBox="0 0 388 359" version="1.1" xmlns="http://www.w3.org/2000/svg" xmlns:xlink="http://www.w3.org/1999/xlink">
    <title>illustration_desktop</title>
    <defs>
        <linearGradient x1="61.181332%" y1="36.8200828%" x2="40.7875547%" y2="55.54034%" id="linearGradient-1">
            <stop stop-color="#78B46A" offset="0%"></stop>
            <stop stop-color="#7F3500" offset="3%"></stop>
            <stop stop-color="#FFFFFF" offset="100%"></stop>
        </linearGradient>
        <linearGradient x1="82.1861152%" y1="28.5194803%" x2="29.8522895%" y2="62.4636816%" id="linearGradient-2">
            <stop stop-color="#78B46A" offset="0%"></stop>
            <stop stop-color="#7F3500" offset="3%"></stop>
            <stop stop-color="#FFFFFF" offset="100%"></stop>
        </linearGradient>
        <linearGradient x1="80.6602611%" y1="21.8635245%" x2="21.5570338%" y2="66.6199133%" id="linearGradient-3">
            <stop stop-color="#78B46A" offset="0%"></stop>
            <stop stop-color="#7F3500" offset="3%"></stop>
            <stop stop-color="#FFFFFF" offset="100%"></stop>
        </linearGradient>
        <linearGradient x1="81.0163087%" y1="60.5888307%" x2="67.4622116%" y2="55.2770478%" id="linearGradient-4">
            <stop stop-color="#FFFFFF" stop-opacity="0" offset="0%"></stop>
            <stop stop-color="#DC841E" offset="99%"></stop>
        </linearGradient>
        <linearGradient x1="82.1834835%" y1="27.5373253%" x2="29.8566997%" y2="62.3240193%" id="linearGradient-5">
            <stop stop-color="#78B46A" offset="0%"></stop>
            <stop stop-color="#7F3500" offset="3%"></stop>
            <stop stop-color="#FFFFFF" offset="100%"></stop>
        </linearGradient>
    </defs>
    <g id="Designs" stroke="none" stroke-width="1" fill="none" fill-rule="evenodd">
        <g id="Desktop" transform="translate(-281.000000, -199.000000)" fill-rule="nonzero">
            <g id="Group-5" transform="translate(281.000000, 129.000000)">
                <g id="mention_isometric" transform="translate(-84.000000, 70.000000)">
                    <path d="M229.018108,355.203043 L9.3127027,225.210652 C2.318,221.273043 -3.67745946,214.821522 3.13789189,210.588913 L223.624757,83.3669565 C226.929946,81.3147826 231.951784,79.9680435 235.321027,81.9304348 L465.915622,215.937391 C472.910324,220.003261 474.165784,231.328696 467.196703,235.433043 L257.970541,354.997826 C249.034976,360.187252 238.026165,360.265283 229.018108,355.203043 Z" id="Path" fill="#5B36A0"></path>
                    <path d="M229.018108,349.203043 L9.3127027,219.210652 C2.318,215.273043 -3.67745946,208.821522 3.13789189,204.588913 L223.624757,77.3669565 C226.929946,75.3147826 231.951784,73.9680435 235.321027,75.9304348 L465.915622,209.937391 C472.910324,214.003261 474.165784,225.328696 467.196703,229.433043 L257.970541,348.997826 C249.034976,354.187252 238.026165,354.265283 229.018108,349.203043 Z" id="Path-Copy" fill="#6862E6"></path>
                    <path d="M247.132595,177.692609 L203.780811,202.459783 C203.780811,202.459783 270.563568,243.259565 284.219892,249.005652 L309.188162,213.092609" id="Path" fill="url(#linearGradient-1)" opacity="0.25" style="mix-blend-mode: multiply;"></path>
                    <path d="M232.156757,296.513478 L188.792162,271.797609 L145.427568,296.564783 C145.427568,296.564783 168.013027,310.365652 189.599243,323.037826 C203.306811,313.328478 217.027189,303.516522 232.156757,296.513478 Z" id="Path" fill="url(#linearGradient-2)" opacity="0.25" style="mix-blend-mode: multiply;"></path>
                    <path d="M138.727514,143.883043 L111.222703,159.595 C111.222703,159.595 113.55427,173.998696 127.210595,179.744783 L163.221784,156.657826" id="Path" fill="url(#linearGradient-3)" opacity="0.46" style="mix-blend-mode: multiply;"></path>
                    <ellipse id="Oval" fill="#68E1FD" cx="152.191676" cy="147.897609" rx="16.59" ry="11.6973913"></ellipse>
                    <ellipse id="Oval" fill="#974C26" cx="152.178865" cy="140.997174" rx="12.4264865" ry="5.09195652"></ellipse>
                    <path d="M151.730486,132.506304 C151.730486,130.210435 151.653622,127.914565 151.47427,125.618696 C151.423027,125.020145 151.367514,124.42587 151.30773,123.83587 L151.179622,122.668696 C151.179622,122.322391 151.00027,121.386087 151.00027,121.47587 C150.923405,121.00558 150.84227,120.539565 150.756865,120.077826 C149.401445,112.283993 146.377182,104.876215 141.891784,98.3632609 C140.204068,102.385052 139.362396,106.711948 139.419297,111.073913 C139.419297,112.356522 139.521784,113.63913 139.62427,114.844783 C139.62427,115.178261 139.62427,115.319348 139.62427,115.383478 C139.62427,115.447609 139.62427,115.306522 139.62427,115.601522 C139.726757,116.217174 139.842054,116.88413 139.970162,117.448478 C140.458818,119.78816 141.113837,122.089891 141.930216,124.336087 C142.664316,126.40407 143.559557,128.411115 144.607676,130.338696 C145.735027,132.506304 146.964865,134.622609 148.284378,136.687609 C149.309243,138.303696 150.282865,139.740217 151.269297,141.112609 C151.576757,138.252391 151.717676,135.379348 151.730486,132.506304 Z M145.209784,106.687391 C145.275553,106.391738 145.275553,106.085219 145.209784,105.789565 L145.209784,105.789565 C145.525784,106.114493 145.837514,106.447971 146.144973,106.79 C145.836992,106.702626 145.516489,106.667936 145.196973,106.687391 L145.209784,106.687391 Z" id="Shape" fill="#999A1C"></path>
                    <path d="M155.996486,134.276304 C157.277568,132.339565 158.404919,130.428478 159.493838,128.337826 C159.775676,127.807681 160.048973,127.277536 160.31373,126.747391 L160.838973,125.682826 L161.338595,124.579783 C161.526486,124.143696 161.710108,123.716159 161.889459,123.297174 C164.96014,116.000295 166.415516,108.124017 166.155459,100.210217 C162.554419,102.679962 159.501498,105.867519 157.187892,109.573261 C156.52173,110.637826 155.906811,111.74087 155.330324,112.856739 L155.074108,113.331304 C155.074108,113.331304 155.074108,113.331304 155.010054,113.536522 C154.766649,114.113696 154.523243,114.69087 154.292649,115.28087 C153.442666,117.516049 152.753395,119.809215 152.230108,122.142826 C151.731623,124.281209 151.401796,126.455515 151.243676,128.645652 C151.013081,131.082609 150.910595,133.519565 150.910595,135.969348 C150.910595,137.880435 150.910595,139.624783 151.025892,141.305 C152.72973,139.034783 154.446378,136.700435 155.996486,134.276304 Z M164.451622,109.021739 C164.652237,108.795989 164.800924,108.52891 164.887189,108.239348 L164.887189,108.239348 C164.981135,108.683986 165.06227,109.111522 165.130595,109.521957 C164.930346,109.322374 164.701508,109.153784 164.451622,109.021739 L164.451622,109.021739 Z" id="Shape" fill="#999A1C"></path>
                    <path d="M155.906811,139.996739 C157.196432,139.355435 158.477514,138.662826 159.750054,137.918913 L160.710865,137.328913 L161.338595,136.931304 L161.953514,136.495217 L162.670919,135.969348 C166.675841,133.026076 169.997241,129.250042 172.407135,124.900435 C169.672767,125.076163 167.003882,125.814038 164.566919,127.068043 C163.862324,127.427174 163.183351,127.824783 162.504378,128.235217 L162.20973,128.414783 C162.20973,128.414783 162.20973,128.414783 162.107243,128.504565 L161.159243,129.21 C159.977964,130.142409 158.86485,131.158264 157.828432,132.249783 C156.870808,133.243819 155.992699,134.311672 155.202216,135.443478 C154.292649,136.726087 153.447135,138.008696 152.640054,139.291304 C152.025135,140.317391 151.47427,141.279348 150.987459,142.215652 C152.640054,141.523043 154.292649,140.804783 155.906811,139.996739 Z M168.615135,129.094565 C168.796282,129.037777 168.96256,128.941396 169.101946,128.812391 L169.101946,128.812391 C169.008,129.086014 168.905514,129.355362 168.794486,129.620435 C168.761052,129.441299 168.700575,129.268303 168.615135,129.107391 L168.615135,129.094565 Z" id="Shape" fill="#999A1C"></path>
                    <path d="M151.730486,132.506304 C151.730486,130.210435 151.653622,127.914565 151.47427,125.618696 C151.423027,125.020145 151.367514,124.42587 151.30773,123.83587 L151.179622,122.668696 C151.179622,122.322391 151.00027,121.386087 151.00027,121.47587 C150.923405,121.00558 150.84227,120.539565 150.756865,120.077826 C149.401445,112.283993 146.377182,104.876215 141.891784,98.3632609 C140.204068,102.385052 139.362396,106.711948 139.419297,111.073913 C139.419297,112.356522 139.521784,113.63913 139.62427,114.844783 C139.62427,115.178261 139.62427,115.319348 139.62427,115.383478 C139.62427,115.447609 139.62427,115.306522 139.62427,115.601522 C139.726757,116.217174 139.842054,116.88413 139.970162,117.448478 C140.458818,119.78816 141.113837,122.089891 141.930216,124.336087 C142.664316,126.40407 143.559557,128.411115 144.607676,130.338696 C145.735027,132.506304 146.964865,134.622609 148.284378,136.687609 C149.309243,138.303696 150.282865,139.740217 151.269297,141.112609 C151.576757,138.252391 151.717676,135.379348 151.730486,132.506304 Z M145.209784,106.687391 C145.275553,106.391738 145.275553,106.085219 145.209784,105.789565 L145.209784,105.789565 C145.525784,106.114493 145.837514,106.447971 146.144973,106.79 C145.836992,106.702626 145.516489,106.667936 145.196973,106.687391 L145.209784,106.687391 Z" id="Shape" fill="#999A1C"></path>
                    <path d="M155.996486,134.276304 C157.277568,132.339565 158.404919,130.428478 159.493838,128.337826 C159.775676,127.807681 160.048973,127.277536 160.31373,126.747391 L160.838973,125.682826 L161.338595,124.579783 C161.526486,124.143696 161.710108,123.716159 161.889459,123.297174 C164.96014,116.000295 166.415516,108.124017 166.155459,100.210217 C162.554419,102.679962 159.501498,105.867519 157.187892,109.573261 C156.52173,110.637826 155.906811,111.74087 155.330324,112.856739 L155.074108,113.331304 C155.074108,113.331304 155.074108,113.331304 155.010054,113.536522 C154.766649,114.113696 154.523243,114.69087 154.292649,115.28087 C153.442666,117.516049 152.753395,119.809215 152.230108,122.142826 C151.731623,124.281209 151.401796,126.455515 151.243676,128.645652 C151.013081,131.082609 150.910595,133.519565 150.910595,135.969348 C150.910595,137.880435 150.910595,139.624783 151.025892,141.305 C152.72973,139.034783 154.446378,136.700435 155.996486,134.276304 Z M164.451622,109.021739 C164.652237,108.795989 164.800924,108.52891 164.887189,108.239348 L164.887189,108.239348 C164.981135,108.683986 165.06227,109.111522 165.130595,109.521957 C164.930346,109.322374 164.701508,109.153784 164.451622,109.021739 L164.451622,109.021739 Z" id="Shape" fill="#999A1C"></path>
                    <path d="M155.906811,139.996739 C157.196432,139.355435 158.477514,138.662826 159.750054,137.918913 L160.710865,137.328913 L161.338595,136.931304 L161.953514,136.495217 L162.670919,135.969348 C166.675841,133.026076 169.997241,129.250042 172.407135,124.900435 C169.672767,125.076163 167.003882,125.814038 164.566919,127.068043 C163.862324,127.427174 163.183351,127.824783 162.504378,128.235217 L162.20973,128.414783 C162.20973,128.414783 162.20973,128.414783 162.107243,128.504565 L161.159243,129.21 C159.977964,130.142409 158.86485,131.158264 157.828432,132.249783 C156.870808,133.243819 155.992699,134.311672 155.202216,135.443478 C154.292649,136.726087 153.447135,138.008696 152.640054,139.291304 C152.025135,140.317391 151.47427,141.279348 150.987459,142.215652 C152.640054,141.523043 154.292649,140.804783 155.906811,139.996739 Z M168.615135,129.094565 C168.796282,129.037777 168.96256,128.941396 169.101946,128.812391 L169.101946,128.812391 C169.008,129.086014 168.905514,129.355362 168.794486,129.620435 C168.761052,129.441299 168.700575,129.268303 168.615135,129.107391 L168.615135,129.094565 Z" id="Shape" fill="#999A1C"></path>
                    <path d="M264.350324,168.021739 L240.355676,179.565217 C238.513409,180.451826 237.311103,182.284883 237.230585,184.329784 C237.150068,186.374686 238.204514,188.296814 239.971351,189.32587 L296.838541,222.545435 C299.392427,224.039835 302.668923,223.253669 304.268811,220.762609 L318.091676,199.240435" id="Path" fill="#A1482D"></path>
                    <path d="M394.854054,112.343696 L203.524595,1.9623913 C200.853277,0.424366443 197.565736,0.428254784 194.898055,1.97259435 C192.230375,3.51693391 190.585676,6.36762224 190.585676,9.45282609 L190.585676,124.284783 C190.585676,126.851 191.95294,129.222326 194.172703,130.505435 L398.146432,248.39 C399.578436,249.220819 401.344726,249.222142 402.77797,248.39347 C404.211214,247.564798 405.092892,246.032474 405.0899,244.375435 L405.0899,130.018043 C405.08401,122.716882 401.180075,115.975908 394.854054,112.343696 Z" id="Path" fill="#F47B56"></path>
                    <path d="M203.537405,10.6456522 L389.089189,117.525435 C393.121687,119.850262 395.607792,124.153566 395.609892,128.812391 L395.609892,214.888261 C395.606734,216.564423 394.713554,218.112454 393.264865,218.952586 C391.816176,219.792718 390.030557,219.798191 388.576757,218.966957 L199.34827,110.304348 C197.906507,109.477075 197.016703,107.940693 197.016703,106.276957 L197.016703,14.4293478 C197.016703,12.8740563 197.844251,11.4365391 199.188276,10.6566564 C200.532301,9.87677374 202.18946,9.87258077 203.537405,10.6456522 Z" id="Path" fill="#FFFFFF"></path>
                    <ellipse id="Oval" fill="#AB643C" transform="translate(280.737781, 168.465299) rotate(-10.900000) translate(-280.737781, -168.465299) " cx="280.737781" cy="168.465299" rx="4.0355776" ry="4.61719475"></ellipse>
                    <polyline id="Path" fill="url(#linearGradient-4)" opacity="0.32" points="253.409892 127.427174 339.639459 179.29587 382.235405 154.503043 306.126378 110.150435"></polyline>
                    <path d="M359.970216,117.102174 L266.745946,60.1928261 C265.729594,59.6043681 264.474274,59.6147352 263.467756,60.2198991 C262.461238,60.825063 261.862221,61.9296079 261.903459,63.1043478 L261.903459,95.5286957 C261.895526,96.7218157 262.513033,97.8317333 263.530432,98.4530435 L356.741892,154.156739 C357.738798,154.723868 358.961911,154.716609 359.952033,154.137689 C360.942154,153.558768 361.549459,152.495788 361.545946,151.347826 L362.032757,121.116739 C362.105523,119.506918 361.320582,117.979095 359.970216,117.102174 Z" id="Path" fill="#E2AC00"></path>
                    <path d="M337.666595,133.788913 C341.010216,138.470435 346.890378,139.778696 350.784865,136.726087 C354.679351,133.673478 355.12773,127.401522 351.784108,122.732826 C348.440486,118.06413 342.560324,116.743043 338.665838,119.795652 C334.771351,122.848261 334.322973,129.107391 337.666595,133.788913 Z" id="Path" fill="#FFFFFF"></path>
                    <path d="M328.519676,111.317609 L290.497189,88.3973913 C289.820484,88.0801665 289.013814,88.3307136 288.635254,88.975698 C288.256694,89.6206824 288.430642,90.448156 289.036757,90.8856522 L327.059243,113.80587 C327.735949,114.123094 328.542618,113.872547 328.921178,113.227563 C329.299738,112.582578 329.12579,111.755105 328.519676,111.317609 L328.519676,111.317609 Z" id="Path" fill="#F2F2F2"></path>
                    <path d="M326.956757,120.629348 L274.54773,89.0386957 C273.885115,88.8067906 273.151805,89.0842326 272.807974,89.6969184 C272.464143,90.3096042 272.608877,91.0809683 273.151351,91.5269565 L325.496324,123.130435 C326.17303,123.44766 326.979699,123.197112 327.358259,122.552128 C327.736819,121.907144 327.562871,121.07967 326.956757,120.642174 L326.956757,120.629348 Z" id="Path" fill="#F2F2F2"></path>
                    <path d="M341.368919,123.386957 L248.195892,66.4904348 C247.17954,65.9019768 245.92422,65.9123439 244.917702,66.5175078 C243.911184,67.1226717 243.312167,68.2272166 243.353405,69.4019565 L243.353405,101.813478 C243.338235,103.00858 243.951136,104.123833 244.967568,104.750652 L338.179027,160.454348 C339.186737,161.034256 340.42859,161.024551 341.427136,160.428964 C342.425681,159.833376 343.025466,158.744627 342.995892,157.581304 L343.482703,127.350217 C343.526082,125.748224 342.722738,124.241984 341.368919,123.386957 L341.368919,123.386957 Z" id="Path" fill="#F47B56"></path>
                    <path d="M319.065297,140.073696 C322.408919,144.755217 328.289081,146.063478 332.183568,143.01087 C336.078054,139.958261 336.526432,133.686304 333.182811,129.017609 C329.839189,124.348913 323.959027,123.027826 320.064541,126.080435 C316.170054,129.133043 315.721676,135.392174 319.065297,140.073696 Z" id="Path" fill="#FFFFFF"></path>
                    <path d="M309.918378,117.602391 L271.87027,94.6821739 C271.193565,94.3649491 270.386895,94.6154963 270.008335,95.2604806 C269.629775,95.905465 269.803723,96.7329386 270.409838,97.1704348 L308.432324,120.090652 C309.10903,120.407877 309.915699,120.15733 310.294259,119.512345 C310.672819,118.867361 310.498871,118.039887 309.892757,117.602391 L309.918378,117.602391 Z" id="Path" fill="#F2F2F2"></path>
                    <path d="M308.342649,126.978261 L255.946432,95.3363043 C255.269727,95.0190795 254.463057,95.2696267 254.084497,95.9146111 C253.705937,96.5595954 253.879885,97.3870691 254.486,97.8245652 L306.895027,129.415217 C307.571732,129.732442 308.378402,129.481895 308.756962,128.836911 C309.135522,128.191926 308.961574,127.364453 308.355459,126.926957 L308.342649,126.978261 Z" id="Path" fill="#F2F2F2"></path>
                    <path d="M317.989189,127.20913 L224.790541,70.3126087 C223.774189,69.7241507 222.518868,69.7345178 221.512351,70.3396817 C220.505833,70.9448456 219.906815,72.0493905 219.948054,73.2241304 L219.948054,105.635652 C219.94012,106.828772 220.557627,107.93869 221.575027,108.56 L314.786486,164.263696 C315.794197,164.843604 317.03605,164.833899 318.034595,164.238311 C319.033141,163.642724 319.632925,162.553975 319.603351,161.390652 L320.090162,131.159565 C320.131725,129.564641 319.334119,128.064912 317.989189,127.20913 L317.989189,127.20913 Z" id="Path" fill="#68E1FD"></path>
                    <path d="M317.989189,127.20913 L224.790541,70.3126087 C223.774189,69.7241507 222.518868,69.7345178 221.512351,70.3396817 C220.505833,70.9448456 219.906815,72.0493905 219.948054,73.2241304 L219.948054,105.635652 C219.94012,106.828772 220.557627,107.93869 221.575027,108.56 L314.786486,164.263696 C315.794197,164.843604 317.03605,164.833899 318.034595,164.238311 C319.033141,163.642724 319.632925,162.553975 319.603351,161.390652 L320.090162,131.159565 C320.131725,129.564641 319.334119,128.064912 317.989189,127.20913 L317.989189,127.20913 Z" id="Path" fill="#68E1FD"></path>
                    <path d="M295.672757,143.89587 C299.016378,148.577391 304.896541,149.885652 308.791027,146.833043 C312.685514,143.780435 313.133892,137.508478 309.79027,132.839783 C306.446649,128.171087 300.566486,126.85 296.672,129.902609 C292.777514,132.955217 292.367568,139.214348 295.672757,143.89587 Z" id="Path" fill="#FFFFFF"></path>
                    <path d="M286.525838,121.424565 L248.490541,98.5043478 C247.813835,98.187123 247.007165,98.4376702 246.628605,99.0826545 C246.250045,99.7276389 246.423993,100.555113 247.030108,100.992609 L285.052595,123.912826 C285.7293,124.230051 286.53597,123.979504 286.91453,123.334519 C287.29309,122.689535 287.119142,121.862061 286.513027,121.424565 L286.525838,121.424565 Z" id="Path" fill="#F2F2F2"></path>
                    <path d="M284.950108,130.74913 L232.541081,99.1584783 C231.864376,98.8412535 231.057706,99.0918006 230.679146,99.736785 C230.300586,100.381769 230.474534,101.209243 231.080649,101.646739 L283.489676,133.237391 C284.166381,133.554616 284.973051,133.304069 285.351611,132.659085 C285.730171,132.0141 285.556223,131.186627 284.950108,130.74913 L284.950108,130.74913 Z" id="Path" fill="#F2F2F2"></path>
                    <path d="M195.671568,124.028261 C189.649087,129.218253 185.094375,135.901451 182.463622,143.408478 C177.826108,156.234565 189.419892,177.192391 189.419892,177.192391 L207.457514,162.891304" id="Path" fill="#FF8F6F"></path>
                    <path d="M193.724324,293.601957 L188.830595,290.895652 L190.111676,283.892609 C190.111676,283.892609 197.401027,284.585217 198.041568,287.176087" id="Path" fill="#003B94"></path>
                    <path d="M195.517838,293.499348 C196.619568,292.819565 197.772541,292.216739 198.912703,291.613913 C201.743892,290.061957 205.830541,288.458696 207.572811,285.547174 C208.303794,284.341639 208.211929,282.808726 207.342216,281.699348 C204.780054,278.595435 199.168919,283.700217 196.299297,280.262826 C195.735622,279.583043 195.466595,268.796304 195.466595,268.796304 L184.551784,271.746304 C184.551784,271.746304 182.707027,293.422391 182.912,294.756304 C183.116973,296.090217 186.870541,297.321522 186.870541,297.321522 C187.988464,297.083755 189.05545,296.649503 190.022,296.038913 C191.162162,295.205217 190.124486,285.03413 191.584919,286.457826 C193.045351,287.881522 193.685892,293.448043 193.685892,293.448043 C194.292156,293.539986 194.907388,293.557216 195.517838,293.499348 Z" id="Path" fill="#F47B56"></path>
                    <path d="M214.567514,304.08087 L209.673784,301.413043 L210.954865,294.41 C210.954865,294.41 218.244216,295.102609 218.884757,297.693478" id="Path" fill="#003B94"></path>
                    <path d="M216.41227,303.978261 C217.514,303.298478 218.666973,302.695652 219.807135,302.092826 C222.638324,300.54087 226.724973,298.937609 228.467243,296.026087 C229.198227,294.820552 229.106362,293.287639 228.236649,292.178261 C225.674486,289.074348 220.063351,294.17913 217.19373,290.741739 C216.630054,290.061957 216.361027,279.275217 216.361027,279.275217 L205.446216,282.225217 C205.446216,282.225217 203.588649,303.978261 203.793622,305.26087 C203.998595,306.543478 207.752162,307.826087 207.752162,307.826087 C208.870085,307.58832 209.937072,307.154068 210.903622,306.543478 C212.043784,305.709783 211.006108,295.538696 212.466541,296.962391 C213.926973,298.386087 214.567514,303.952609 214.567514,303.952609 C215.17904,304.037065 215.798637,304.045681 216.41227,303.978261 Z" id="Path" fill="#F47B56"></path>
                    <path d="M179.004703,233.614348 L175.789189,276.671522 C175.789189,276.671522 180.913514,283.751522 198.092811,279.813913 L198.092811,279.813913 L198.259351,250.788478" id="Path" fill="#3E2928"></path>
                    <path d="M198.848649,242.143696 C198.477135,245.850435 198.848649,286.74 198.848649,286.74 C198.848649,286.74 203.601459,295.641304 224.290919,286.74 L223.99627,251.99413" id="Path" fill="#3E2928"></path>
                    <path d="M177.403351,247.838478 C178.812541,248.813261 179.299351,243.798261 180.772595,244.657609 C186.13242,247.774624 191.821039,250.286796 197.734108,252.148043 L197.862216,252.148043 C198.146778,252.009525 198.475354,251.992763 198.772505,252.101606 C199.069656,252.210449 199.309852,252.435547 199.437946,252.725217 C203.090586,253.816304 206.808993,254.673114 210.570541,255.290435 C215.400216,256.06 219.397189,252.481522 224.355015,252.237826 C224.355015,233.229565 224.444649,179.12913 216.361027,167.585652 L192.443243,159.53087 C192.327946,161.506087 180.836649,174.845217 181.118486,191.108696 C181.438757,209.437174 179.055946,226.726739 178.646,232.46 C178.581946,233.434783 177.454595,246.799565 177.403351,247.838478 Z" id="Path" fill="#3E2928"></path>
                    <path d="M218.564486,145.73 L216.361027,167.534348 C216.361027,167.534348 198.515568,168.252609 190.829081,162.942609 L190.829081,144.447391" id="Path" fill="#FF8F6F"></path>
                    <path d="M241.252432,131.377609 L239.433297,133.86587 C240.403198,131.842068 241.258604,129.765235 241.995459,127.645217 C242.507892,126.19587 240.189135,125.618696 239.676703,127.068043 L239.407676,127.811957 C239.62973,127.042391 239.838973,126.268551 240.035405,125.490435 C240.194598,124.849364 239.804577,124.200469 239.16427,124.041087 C238.523963,123.881705 237.875841,124.27219 237.716649,124.913261 C237.214081,126.925956 236.611218,128.912209 235.910324,130.864565 C236.301723,129.131094 236.584116,127.374746 236.755838,125.60587 C236.909568,124.079565 234.513946,124.143696 234.373027,125.60587 C234.174025,127.619501 233.81417,129.613928 233.296919,131.57 C233.296919,130.885942 233.232865,130.201884 233.104757,129.517826 C233.069444,129.172756 232.887395,128.859632 232.605135,128.658478 C232.541081,128.38913 232.464216,128.132609 232.374541,127.863261 C232.187007,127.309318 231.629405,126.97004 231.051924,127.058503 C230.474443,127.146966 230.043679,127.63765 230.030162,128.222391 L229.876432,137.200652 C229.442515,138.131722 228.877345,138.995605 228.198216,139.76587 C229.350906,140.564264 230.462592,141.420427 231.529027,142.331087 C232.480145,143.136187 233.386783,143.992526 234.244919,144.896304 C235.013568,143.938623 235.752324,142.963841 236.461189,141.971957 C236.549246,141.89724 236.626813,141.810952 236.691784,141.715435 C238.826919,138.551667 241.030378,135.439203 243.302162,132.378043 C244.250162,131.326304 242.162,130.15913 241.252432,131.377609 Z" id="Path" fill="#FFB5A9"></path>
                    <path d="M207.23973,125.849565 C207.23973,125.849565 215.669243,128.119783 219.08973,133.545217 C221.231703,137.3004 223.119147,141.195484 224.739297,145.20413 L230.965351,135.520435 C230.965351,135.520435 238.52373,137.841957 241.521459,141.561522 C241.521459,141.561522 232.553892,161.185435 224.739297,162.865652 C216.924703,164.54587 208.623297,151.347826 208.623297,151.347826 C208.623297,151.347826 206.906649,156.863043 207.23973,150.97587" id="Path" fill="#FF8F6F"></path>
                    <path d="M212.594649,146.820217 C210.144413,144.824206 208.295164,142.186883 207.252541,139.201522 C206.240486,135.751304 207.508757,132.724348 208.687351,129.517826 C209.96318,126.339465 210.707622,122.972478 210.890811,119.551957 C210.993297,116.191522 210.608973,112.831087 210.378378,109.483478 C210.345485,109.339981 210.345485,109.190888 210.378378,109.047391 C209.251027,105.263696 206.945081,102.057174 202.397243,101.672391 C190.624108,100.671957 189.957946,113.728913 190.047622,119.038913 C190.137297,124.348913 190.700973,127.940217 186.793676,130.15913 C182.886378,132.378043 180.068,138.201087 183.795946,142.908261 C187.523892,147.615435 184.18027,145.896739 181.694973,150.078043 C179.209676,154.259348 179.850216,159.479565 184.948919,161.365 C190.047622,163.250435 213.747622,159.710435 215.925459,157.517174 C216.698332,156.633535 217.097973,155.483771 217.04,154.310652 C216.508447,151.358998 214.929784,148.698945 212.594649,146.820217 L212.594649,146.820217 Z" id="Path" fill="#007F68"></path>
                    <path d="M224.175622,39.1323913 C226.171294,42.0075199 227.324932,45.383711 227.506432,48.8802174 C227.729578,50.4811288 227.340663,52.1073591 226.417514,53.4334783 C225.609133,54.3232108 224.300801,54.5503291 223.240432,53.985 C222.592806,53.7266841 222.007594,53.3331629 221.523784,52.8306522 C221.089014,52.4222031 220.717667,51.950982 220.422054,51.4326087 L220.114595,50.8297826 C220.030786,50.9874826 219.927488,51.1339961 219.807135,51.2658696 C219.501557,51.5038002 219.139649,51.6584571 218.756649,51.7147826 C218.115931,51.8335115 217.454263,51.7529424 216.860649,51.483913 C215.444854,50.8703829 214.266785,49.8124581 213.504216,48.4697826 C212.585307,47.0108368 212.072276,45.3326437 212.018162,43.6086957 C211.828493,42.2128905 212.264571,40.8045089 213.209568,39.7608696 C214.041046,38.9579874 215.28599,38.7630726 216.322595,39.2734783 C216.836395,39.4782755 217.309343,39.7736769 217.718973,40.1456522 C218.068086,40.4428985 218.378031,40.7833827 218.641351,41.158913 L218.871946,41.5693478 L218.871946,40.4278261 L221.434108,41.4282609 L221.690324,48.6365217 C221.707985,49.1529103 221.867567,49.6544166 222.151514,50.0858696 C222.392298,50.5027062 222.76059,50.830967 223.202,51.0221739 C224.440378,51.5095652 225.012595,50.4407246 224.918649,47.8156522 C224.789645,45.2157143 223.93286,42.7045193 222.446162,40.568913 C221.110019,38.3961394 219.124374,36.6998214 216.770973,35.7206522 C215.023441,34.8313349 212.910663,35.1008319 211.441676,36.4004348 C209.891341,37.9597602 209.132532,40.139809 209.379135,42.326087 C209.525488,45.0754897 210.410703,47.7343003 211.941297,50.0217391 C213.159998,52.2811351 215.080122,54.0819913 217.411514,55.1521739 C218.222747,55.4914835 219.094545,55.6616868 219.973676,55.6523913 C220.545807,55.691173 221.118495,55.5853199 221.639081,55.3445652 L222.151514,55.0623913 L223.701622,57.9482609 L223.445405,58.1278261 C223.201913,58.2646125 222.949381,58.3846015 222.689568,58.4869565 C222.2807,58.6640416 221.849753,58.7848504 221.408486,58.846087 C220.843075,58.9220513 220.270061,58.9220513 219.704649,58.846087 C218.962057,58.7574622 218.234217,58.5720516 217.539622,58.2945652 C215.566837,57.4449596 213.814099,56.1551616 212.415297,54.5236957 C210.757514,52.6887073 209.415488,50.5909165 208.443946,48.3158696 C207.47131,46.1430875 206.915067,43.8066912 206.804162,41.4282609 C206.666069,39.4287596 207.073458,37.4292836 207.982757,35.6436957 C208.737876,34.1456898 210.041118,32.9971014 211.621027,32.4371739 C213.276812,31.8911127 215.076442,31.9825734 216.668486,32.6936957 C219.776835,34.0091944 222.400139,36.2591413 224.175622,39.1323913 L224.175622,39.1323913 Z M218.526054,48.2517391 C218.946474,47.7141804 219.135508,47.0310002 219.051297,46.3534783 C219.030933,45.517485 218.797192,44.7006223 218.372324,43.9806522 C218.025091,43.3521411 217.480133,42.8561345 216.822216,42.5697826 C216.30551,42.3031474 215.677864,42.3848897 215.246486,42.775 C214.799026,43.2842675 214.593483,43.9624335 214.682811,44.6347826 C214.711767,45.4805672 214.963695,46.3036289 215.413027,47.0204348 C215.78246,47.6717096 216.353535,48.1849397 217.04,48.4826087 C217.533102,48.7354588 218.132674,48.6423109 218.526054,48.2517391" id="Shape" fill="#F47B56"></path>
                    <path d="M375.432865,178.013261 C377.431614,180.88683 378.58556,184.263927 378.763676,187.761087 C378.986821,189.361998 378.597906,190.988229 377.674757,192.314348 C376.864078,193.199881 375.558797,193.426469 374.497676,192.86587 C373.852021,192.603824 373.26754,192.210794 372.781027,191.711522 C372.348584,191.30094 371.977524,190.830082 371.679297,190.313478 L371.371838,189.710652 C371.285266,189.866632 371.182187,190.012835 371.064378,190.146739 C370.760342,190.387281 370.397708,190.542248 370.013892,190.595652 C369.378893,190.723376 368.719824,190.647066 368.130703,190.377609 C366.71298,189.760754 365.534674,188.698113 364.77427,187.350652 C363.846943,185.890073 363.329224,184.206588 363.275405,182.476739 C363.078451,181.080339 363.51547,179.668918 364.466811,178.628913 C365.294197,177.828232 366.53435,177.633265 367.567027,178.141522 C368.081207,178.345567 368.554283,178.641048 368.963405,179.013696 C369.312385,179.315891 369.622249,179.660595 369.885784,180.039783 L370.129189,180.450217 L370.129189,179.308696 L372.691351,180.296304 L372.947568,187.504565 C372.970303,188.020062 373.129465,188.520249 373.408757,188.953913 C373.649541,189.37075 374.017833,189.69901 374.459243,189.890217 C375.740324,190.377609 376.265568,189.313043 376.188703,186.683696 C376.05866,184.079996 375.20208,181.564958 373.716216,179.42413 C372.380037,177.259323 370.399762,175.568252 368.053838,174.588696 C366.308219,173.699587 364.197851,173.963698 362.724541,175.255652 C361.181651,176.833138 360.441208,179.028785 360.713243,181.219783 C360.85707,183.969665 361.742503,186.62913 363.275405,188.915435 C364.541667,191.120649 366.481616,192.860592 368.809676,193.87913 C369.621628,194.217481 370.492364,194.391836 371.371838,194.392174 C371.943651,194.425638 372.515058,194.320022 373.037243,194.084348 L373.549676,193.802174 L375.099784,196.688043 L374.843568,196.867609 C374.600075,197.004395 374.347543,197.124384 374.08773,197.226739 C373.676359,197.396659 373.246338,197.517208 372.806649,197.58587 C372.236923,197.66146 371.659726,197.66146 371.09,197.58587 C370.351123,197.492319 369.627605,197.302601 368.937784,197.021522 C366.96627,196.175617 365.213642,194.890286 363.813459,193.263478 C362.155241,191.424035 360.813245,189.321958 359.842108,187.042826 C358.868603,184.87034 358.31232,182.533776 358.202324,180.155217 C358.063333,178.159776 358.470835,176.164187 359.380919,174.383478 C360.137688,172.883904 361.43975,171.731766 363.019189,171.16413 C364.680017,170.623379 366.48168,170.714711 368.079459,171.420652 C371.151946,172.80492 373.72078,175.107978 375.432865,178.013261 Z M369.783297,187.132609 C370.208271,186.59699 370.40197,185.913617 370.321351,185.234348 C370.29882,184.39694 370.060521,183.579572 369.629568,182.861522 C369.288702,182.23269 368.747568,181.736059 368.09227,181.450652 C367.578154,181.180576 366.950759,181.257179 366.516541,181.643043 C366.061428,182.148424 365.850693,182.82827 365.940054,183.502826 C365.969434,184.344529 366.221417,185.163346 366.67027,185.875652 C367.039006,186.530535 367.60987,187.048076 368.297243,187.350652 C368.787665,187.606799 369.38691,187.518874 369.783297,187.132609" id="Shape" fill="#F47B56"></path>
                    <path d="M120.139027,232.703696 L76.7744324,208.000652 L33.4226486,232.755 C33.4226486,232.755 57.5454054,247.838478 79.1316216,260.510652 C92.8391892,250.81413 105.02227,239.719565 120.139027,232.703696 Z" id="Path" fill="url(#linearGradient-5)" opacity="0.25" style="mix-blend-mode: multiply;"></path>
                </g>
            </g>
        </g>
    </g>
</svg>