<?xml version="1.0" encoding="UTF-8"?>
<svg width="237px" height="196px" viewBox="0 0 237 196" version="1.1" xmlns="http://www.w3.org/2000/svg" xmlns:xlink="http://www.w3.org/1999/xlink">
    <title>Group 4</title>
    <defs>
        <linearGradient x1="61.181332%" y1="36.8581623%" x2="40.7875547%" y2="55.5243328%" id="linearGradient-1">
            <stop stop-color="#78B46A" offset="0%"></stop>
            <stop stop-color="#7F3500" offset="3%"></stop>
            <stop stop-color="#FFFFFF" offset="100%"></stop>
        </linearGradient>
        <linearGradient x1="82.1861152%" y1="28.581542%" x2="29.8522895%" y2="62.4276715%" id="linearGradient-2">
            <stop stop-color="#78B46A" offset="0%"></stop>
            <stop stop-color="#7F3500" offset="3%"></stop>
            <stop stop-color="#FFFFFF" offset="100%"></stop>
        </linearGradient>
        <linearGradient x1="80.6602611%" y1="21.9448166%" x2="21.5570338%" y2="66.5718949%" id="linearGradient-3">
            <stop stop-color="#78B46A" offset="0%"></stop>
            <stop stop-color="#7F3500" offset="3%"></stop>
            <stop stop-color="#FFFFFF" offset="100%"></stop>
        </linearGradient>
        <linearGradient x1="81.0163087%" y1="60.5582374%" x2="67.4622116%" y2="55.2618014%" id="linearGradient-4">
            <stop stop-color="#FFFFFF" stop-opacity="0" offset="0%"></stop>
            <stop stop-color="#DC841E" offset="99%"></stop>
        </linearGradient>
        <linearGradient x1="82.1834835%" y1="27.6022246%" x2="29.8566997%" y2="62.2884127%" id="linearGradient-5">
            <stop stop-color="#78B46A" offset="0%"></stop>
            <stop stop-color="#7F3500" offset="3%"></stop>
            <stop stop-color="#FFFFFF" offset="100%"></stop>
        </linearGradient>
        <polyline id="path-6" points="-3.55271368e-15 13.8778261 -3.55271368e-15 40.8126087 20.9841081 52.8306522 44.6777027 38.8181522 44.6777027 11.8833696"></polyline>
        <filter x="-195.8%" y="-152.6%" width="491.7%" height="527.4%" filterUnits="objectBoundingBox" id="filter-7">
            <feOffset dx="0" dy="25" in="SourceAlpha" result="shadowOffsetOuter1"></feOffset>
            <feGaussianBlur stdDeviation="25" in="shadowOffsetOuter1" result="shadowBlurOuter1"></feGaussianBlur>
            <feColorMatrix values="0 0 0 0 0.209139076   0 0 0 0 0.0691446444   0 0 0 0 0.478091033  0 0 0 0.497159091 0" type="matrix" in="shadowBlurOuter1"></feColorMatrix>
        </filter>
    </defs>
    <g id="Designs" stroke="none" stroke-width="1" fill="none" fill-rule="evenodd">
        <g id="Mobile" transform="translate(-69.000000, -40.000000)">
            <g id="Group-4" transform="translate(69.000000, 40.000000)">
                <g id="mention_isometric-2" fill-rule="nonzero">
                    <g id="mention_isometric">
                        <path d="M114.994262,178.096233 L4.67608165,112.91899 C1.16391102,110.944701 -1.84652096,107.709955 1.57559402,105.587756 L112.28616,41.7995882 C113.945757,40.7706431 116.467315,40.0953978 118.159075,41.0793266 L233.94492,108.269444 C237.457091,110.308042 238.08748,115.986533 234.588175,118.044423 L129.531818,177.993339 C125.045104,180.595279 119.517375,180.634404 114.994262,178.096233 Z" id="Path" fill="#5B36A0"></path>
                        <path d="M114.994262,175.087877 L4.67608165,109.910633 C1.16391102,107.936345 -1.84652096,104.701599 1.57559402,102.579399 L112.28616,38.7912317 C113.945757,37.7622865 116.467315,37.0870413 118.159075,38.0709701 L233.94492,105.261088 C237.457091,107.299685 238.08748,112.978176 234.588175,115.036066 L129.531818,174.984982 C125.045104,177.586923 119.517375,177.626047 114.994262,175.087877 Z" id="Path-Copy" fill="#6862E6"></path>
                        <path d="M124.089883,89.0937871 L102.322144,101.511869 C102.322144,101.511869 135.855012,121.968584 142.712107,124.849631 L155.249141,106.843091" id="Path" fill="url(#linearGradient-1)" opacity="0.25" style="mix-blend-mode: multiply;"></path>
                        <path d="M116.570236,148.669711 L94.7960645,136.277353 L73.021893,148.695434 C73.021893,148.695434 84.3624733,155.61509 95.2013149,161.968826 C102.08414,157.10063 108.973398,152.180986 116.570236,148.669711 Z" id="Path" fill="url(#linearGradient-2)" opacity="0.25" style="mix-blend-mode: multiply;"></path>
                        <path d="M69.657671,72.141916 L55.8469927,80.0197772 C55.8469927,80.0197772 57.0177162,87.2416858 63.8748113,90.1227322 L81.9567008,78.5470994" id="Path" fill="url(#linearGradient-3)" opacity="0.46" style="mix-blend-mode: multiply;"></path>
                        <ellipse id="Oval" fill="#68E1FD" cx="76.4182778" cy="74.1547899" rx="8.33014831" ry="5.86498728"></ellipse>
                        <ellipse id="Oval" fill="#974C26" cx="76.4118453" cy="70.6949619" rx="6.23957055" ry="2.55307012"></ellipse>
                        <path d="M76.1867061,66.4377013 C76.1867061,65.286569 76.1481109,64.1354366 76.0580552,62.9843042 C76.032325,62.6841952 76.0044506,62.3862299 75.9744321,62.0904081 L75.9101066,61.5051956 C75.9101066,61.3315611 75.820051,60.8621049 75.820051,60.9071212 C75.7814557,60.6713213 75.7407162,60.437665 75.6978326,60.2061524 C75.0172509,56.2983808 73.4987123,52.5841748 71.2465101,49.3186266 C70.3990763,51.3351236 69.9764575,53.5045977 70.0050285,55.6916556 C70.0050285,56.3347463 70.0564889,56.977837 70.1079493,57.5823423 C70.1079493,57.7495458 70.1079493,57.8202858 70.1079493,57.8524404 C70.1079493,57.8845949 70.1079493,57.8138549 70.1079493,57.9617658 C70.1594096,58.2704493 70.2173026,58.6048565 70.281628,58.8878164 C70.5269911,60.0609157 70.8558886,61.214987 71.2658077,62.3412135 C71.6344129,63.3780853 72.08393,64.3844029 72.61021,65.350878 C73.1762742,66.4377013 73.7937987,67.498801 74.456351,68.5341771 C74.9709548,69.3444714 75.4598283,70.064733 75.9551344,70.75284 C76.1095156,69.3187477 76.1802736,67.8782245 76.1867061,66.4377013 Z M72.9125397,53.4922853 C72.9455635,53.3440469 72.9455635,53.1903603 72.9125397,53.0421218 L72.9125397,53.0421218 C73.0712092,53.2050381 73.2277345,53.3722417 73.3821157,53.5437326 C73.2274729,53.499924 73.066542,53.4825305 72.9061072,53.4922853 L72.9125397,53.4922853 Z" id="Shape" fill="#999A1C"></path>
                        <path d="M78.3287443,67.3251665 C78.971999,66.3540996 79.5380631,65.3958944 80.0848296,64.3476565 C80.2263456,64.0818457 80.3635733,63.8160349 80.4965126,63.5502241 L80.760247,63.0164588 L81.0111164,62.4634008 C81.1054604,62.2447499 81.1976602,62.0303863 81.2877159,61.82031 C82.8295619,58.161708 83.5603333,54.2125991 83.429754,50.2446772 C81.6216046,51.4829892 80.0886761,53.0812072 78.9269711,54.9392394 C78.5924787,55.4730047 78.2837164,56.0260627 77.9942518,56.5855517 L77.8656009,56.8234952 C77.8656009,56.8234952 77.8656009,56.8234952 77.8334382,56.9263897 C77.7112198,57.2157805 77.5890014,57.5051714 77.4732155,57.8009931 C77.0464233,58.9216961 76.7003275,60.0714726 76.4375755,61.2415284 C76.1872768,62.3136983 76.0216647,63.4038793 75.9422694,64.5019983 C75.8264835,65.7238707 75.7750231,66.945743 75.7750231,68.1740463 C75.7750231,69.1322514 75.7750231,70.0068548 75.8329161,70.8493036 C76.6884448,69.7110331 77.5504061,68.540608 78.3287443,67.3251665 Z M82.5742253,54.6627104 C82.674958,54.549521 82.7496163,54.4156094 82.7929319,54.2704251 L82.7929319,54.2704251 C82.8401039,54.4933632 82.8808433,54.7077268 82.9151503,54.9135158 C82.8146017,54.8134468 82.6996981,54.7289167 82.5742253,54.6627104 L82.5742253,54.6627104 Z" id="Shape" fill="#999A1C"></path>
                        <path d="M78.2837164,70.1933511 C78.9312595,69.8718057 79.5745142,69.5245368 80.2134805,69.1515441 L80.6959216,68.8557224 L81.0111164,68.6563643 L81.3198786,68.4377135 L81.6801012,68.1740463 C83.6910474,66.6983111 85.3587843,64.8050347 86.5688369,62.6241734 C85.1958596,62.7122825 83.855763,63.0822475 82.6321182,63.7109967 C82.2783281,63.8910621 81.9374031,64.0904202 81.5964781,64.2962093 L81.4485295,64.386242 C81.4485295,64.386242 81.4485295,64.386242 81.3970692,64.4312583 L80.9210607,64.7849582 C80.3279183,65.2524611 79.7690031,65.7618039 79.2485985,66.3090832 C78.7677575,66.8074856 78.3268425,67.3428995 77.9299264,67.9103791 C77.4732155,68.5534698 77.0486674,69.1965605 76.643417,69.8396512 C76.3346547,70.3541238 76.0580552,70.8364418 75.8136184,71.305898 C76.643417,70.958629 77.4732155,70.5984982 78.2837164,70.1933511 Z M84.664803,64.7270801 C84.75576,64.6986071 84.8392514,64.6502823 84.9092398,64.5856001 L84.9092398,64.5856001 C84.8620678,64.7227928 84.8106074,64.8578418 84.7548587,64.9907472 C84.7380705,64.90093 84.7077041,64.814191 84.664803,64.733511 L84.664803,64.7270801 Z" id="Shape" fill="#999A1C"></path>
                        <path d="M76.1867061,66.4377013 C76.1867061,65.286569 76.1481109,64.1354366 76.0580552,62.9843042 C76.032325,62.6841952 76.0044506,62.3862299 75.9744321,62.0904081 L75.9101066,61.5051956 C75.9101066,61.3315611 75.820051,60.8621049 75.820051,60.9071212 C75.7814557,60.6713213 75.7407162,60.437665 75.6978326,60.2061524 C75.0172509,56.2983808 73.4987123,52.5841748 71.2465101,49.3186266 C70.3990763,51.3351236 69.9764575,53.5045977 70.0050285,55.6916556 C70.0050285,56.3347463 70.0564889,56.977837 70.1079493,57.5823423 C70.1079493,57.7495458 70.1079493,57.8202858 70.1079493,57.8524404 C70.1079493,57.8845949 70.1079493,57.8138549 70.1079493,57.9617658 C70.1594096,58.2704493 70.2173026,58.6048565 70.281628,58.8878164 C70.5269911,60.0609157 70.8558886,61.214987 71.2658077,62.3412135 C71.6344129,63.3780853 72.08393,64.3844029 72.61021,65.350878 C73.1762742,66.4377013 73.7937987,67.498801 74.456351,68.5341771 C74.9709548,69.3444714 75.4598283,70.064733 75.9551344,70.75284 C76.1095156,69.3187477 76.1802736,67.8782245 76.1867061,66.4377013 Z M72.9125397,53.4922853 C72.9455635,53.3440469 72.9455635,53.1903603 72.9125397,53.0421218 L72.9125397,53.0421218 C73.0712092,53.2050381 73.2277345,53.3722417 73.3821157,53.5437326 C73.2274729,53.499924 73.066542,53.4825305 72.9061072,53.4922853 L72.9125397,53.4922853 Z" id="Shape" fill="#999A1C"></path>
                        <path d="M78.3287443,67.3251665 C78.971999,66.3540996 79.5380631,65.3958944 80.0848296,64.3476565 C80.2263456,64.0818457 80.3635733,63.8160349 80.4965126,63.5502241 L80.760247,63.0164588 L81.0111164,62.4634008 C81.1054604,62.2447499 81.1976602,62.0303863 81.2877159,61.82031 C82.8295619,58.161708 83.5603333,54.2125991 83.429754,50.2446772 C81.6216046,51.4829892 80.0886761,53.0812072 78.9269711,54.9392394 C78.5924787,55.4730047 78.2837164,56.0260627 77.9942518,56.5855517 L77.8656009,56.8234952 C77.8656009,56.8234952 77.8656009,56.8234952 77.8334382,56.9263897 C77.7112198,57.2157805 77.5890014,57.5051714 77.4732155,57.8009931 C77.0464233,58.9216961 76.7003275,60.0714726 76.4375755,61.2415284 C76.1872768,62.3136983 76.0216647,63.4038793 75.9422694,64.5019983 C75.8264835,65.7238707 75.7750231,66.945743 75.7750231,68.1740463 C75.7750231,69.1322514 75.7750231,70.0068548 75.8329161,70.8493036 C76.6884448,69.7110331 77.5504061,68.540608 78.3287443,67.3251665 Z M82.5742253,54.6627104 C82.674958,54.549521 82.7496163,54.4156094 82.7929319,54.2704251 L82.7929319,54.2704251 C82.8401039,54.4933632 82.8808433,54.7077268 82.9151503,54.9135158 C82.8146017,54.8134468 82.6996981,54.7289167 82.5742253,54.6627104 L82.5742253,54.6627104 Z" id="Shape" fill="#999A1C"></path>
                        <path d="M78.2837164,70.1933511 C78.9312595,69.8718057 79.5745142,69.5245368 80.2134805,69.1515441 L80.6959216,68.8557224 L81.0111164,68.6563643 L81.3198786,68.4377135 L81.6801012,68.1740463 C83.6910474,66.6983111 85.3587843,64.8050347 86.5688369,62.6241734 C85.1958596,62.7122825 83.855763,63.0822475 82.6321182,63.7109967 C82.2783281,63.8910621 81.9374031,64.0904202 81.5964781,64.2962093 L81.4485295,64.386242 C81.4485295,64.386242 81.4485295,64.386242 81.3970692,64.4312583 L80.9210607,64.7849582 C80.3279183,65.2524611 79.7690031,65.7618039 79.2485985,66.3090832 C78.7677575,66.8074856 78.3268425,67.3428995 77.9299264,67.9103791 C77.4732155,68.5534698 77.0486674,69.1965605 76.643417,69.8396512 C76.3346547,70.3541238 76.0580552,70.8364418 75.8136184,71.305898 C76.643417,70.958629 77.4732155,70.5984982 78.2837164,70.1933511 Z M84.664803,64.7270801 C84.75576,64.6986071 84.8392514,64.6502823 84.9092398,64.5856001 L84.9092398,64.5856001 C84.8620678,64.7227928 84.8106074,64.8578418 84.7548587,64.9907472 C84.7380705,64.90093 84.7077041,64.814191 84.664803,64.733511 L84.664803,64.7270801 Z" id="Shape" fill="#999A1C"></path>
                        <path d="M132.735226,84.2448831 L120.687066,90.0326995 C119.76203,90.4772388 119.158329,91.39632 119.1179,92.4216189 C119.07747,93.4469177 119.606927,94.4106586 120.49409,94.9266198 L149.048165,111.582669 C150.330519,112.331951 151.975709,111.937773 152.779043,110.688773 L159.719761,99.897711" id="Path" fill="#A1482D"></path>
                        <path d="M198.263582,56.3283154 L102.193493,0.983928788 C100.852175,0.212774261 99.2014393,0.214723847 97.8619473,0.989044519 C96.5224554,1.76336519 95.696621,3.19267967 95.696621,4.73957854 L95.696621,62.3154899 C95.696621,63.6021725 96.3831502,64.7911385 97.4977342,65.4344798 L199.916747,124.540947 C200.635783,124.957514 201.52267,124.958177 202.242328,124.542687 C202.961987,124.127197 203.404694,123.358901 203.403191,122.528073 L203.403191,65.1901054 C203.400234,61.5293559 201.439995,58.1494801 198.263582,56.3283154 Z" id="Path" fill="#F47B56"></path>
                        <path d="M102.199926,5.3376529 L195.368936,58.9264018 C197.393728,60.0920533 198.642048,62.2496987 198.643102,64.5856001 L198.643102,107.743418 C198.641517,108.583833 198.193034,109.360005 197.465621,109.781241 C196.738207,110.202477 195.841614,110.205221 195.111634,109.788446 L100.096483,55.3058011 C99.3725471,54.8910127 98.9257596,54.1206819 98.9257596,53.2864963 L98.9257596,7.2347705 C98.9257596,6.45495857 99.3412869,5.73419787 100.016147,5.34317035 C100.691007,4.95214282 101.523098,4.9500405 102.199926,5.3376529 Z" id="Path" fill="#FFFFFF"></path>
                        <ellipse id="Oval" fill="#AB643C" transform="translate(140.963674, 84.467281) rotate(-10.900000) translate(-140.963674, -84.467281) " cx="140.963674" cy="84.4672806" rx="2.02623343" ry="2.31514741"></ellipse>
                        <polyline id="Path" fill="url(#linearGradient-4)" opacity="0.32" points="127.241831 63.8910621 170.539305 89.8976505 191.927523 77.466707 153.711762 55.2286303"></polyline>
                        <path d="M180.747757,58.7141819 L133.938113,30.1802471 C133.427784,29.8851985 132.797464,29.8903965 132.292072,30.1938213 C131.786681,30.4972461 131.485903,31.0510569 131.50661,31.640063 L131.50661,47.8973961 C131.502626,48.4956179 131.812688,49.0521225 132.323543,49.363643 L179.126755,77.2930725 C179.62732,77.5774267 180.241468,77.5737874 180.738627,77.2835209 C181.235785,76.9932544 181.540724,76.4602837 181.53896,75.8847039 L181.783397,60.7270558 C181.819934,59.9199034 181.425801,59.1538638 180.747757,58.7141819 Z" id="Path" fill="#E2AC00"></path>
                        <path d="M169.548693,67.0807921 C171.227587,69.4280732 174.180126,70.0840257 176.135621,68.5534698 C178.091115,67.0229139 178.316254,63.8782003 176.637359,61.5373501 C174.958465,59.1964999 172.005926,58.5341165 170.050431,60.0646724 C168.094937,61.5952283 167.869798,64.733511 169.548693,67.0807921 Z" id="Path" fill="#FFFFFF"></path>
                        <path d="M164.955854,55.8138428 L145.864055,44.3218118 C145.524268,44.1627576 145.119224,44.2883801 144.929142,44.6117706 C144.73906,44.9351611 144.826403,45.3500504 145.130744,45.5694078 L164.222544,57.0614388 C164.56233,57.220493 164.967374,57.0948705 165.157456,56.77148 C165.347538,56.4480895 165.260196,56.0332002 164.955854,55.8138428 L164.955854,55.8138428 Z" id="Path" fill="#F2F2F2"></path>
                        <path d="M164.171083,60.4826814 L137.855534,44.6433572 C137.522823,44.5270816 137.154614,44.666189 136.98197,44.9733853 C136.809326,45.2805815 136.882,45.6673379 137.154386,45.8909531 L163.437773,61.7367082 C163.777559,61.8957625 164.182603,61.7701399 164.372685,61.4467494 C164.562767,61.123359 164.475425,60.7084697 164.171083,60.4891123 L164.171083,60.4826814 Z" id="Path" fill="#F2F2F2"></path>
                        <path d="M171.407699,61.8653264 L124.623785,33.3378225 C124.113456,33.0427739 123.483136,33.0479719 122.977744,33.3513967 C122.472353,33.6548215 122.171575,34.2086323 122.192282,34.7976384 L122.192282,51.0485406 C122.184664,51.6477561 122.492414,52.2069359 123.002783,52.5212184 L169.805995,80.4506479 C170.311985,80.7414098 170.935542,80.7365437 171.43693,80.4379205 C171.938319,80.1392972 172.239482,79.5934064 172.224632,79.0101247 L172.469069,63.8524767 C172.490851,63.0492486 172.087476,62.294031 171.407699,61.8653264 L171.407699,61.8653264 Z" id="Path" fill="#F47B56"></path>
                        <path d="M160.208634,70.2319365 C161.887529,72.5792176 164.840068,73.2351702 166.795563,71.7046143 C168.751057,70.1740584 168.976196,67.0293448 167.297301,64.6884946 C165.618406,62.3476444 162.665867,61.685261 160.710373,63.2158169 C158.754879,64.7463728 158.52974,67.8846554 160.208634,70.2319365 Z" id="Path" fill="#FFFFFF"></path>
                        <path d="M155.615796,58.9649873 L136.511131,47.4729563 C136.171345,47.3139021 135.766301,47.4395246 135.576219,47.7629151 C135.386137,48.0863056 135.47348,48.5011949 135.777821,48.7205523 L154.86962,60.2125833 C155.209407,60.3716375 155.614451,60.246015 155.804533,59.9226245 C155.994615,59.599234 155.907272,59.1843447 155.602931,58.9649873 L155.615796,58.9649873 Z" id="Path" fill="#F2F2F2"></path>
                        <path d="M154.824593,63.6659804 L128.515476,47.8009325 C128.175689,47.6418783 127.770645,47.7675008 127.580563,48.0908913 C127.390481,48.4142818 127.477824,48.8291711 127.782165,49.0485285 L154.097715,64.8878527 C154.437501,65.0469069 154.842545,64.9212844 155.032627,64.5978939 C155.222709,64.2745034 155.135367,63.8596142 154.831025,63.6402568 L154.824593,63.6659804 Z" id="Path" fill="#F2F2F2"></path>
                        <path d="M159.668301,63.7817367 L112.871521,35.2542328 C112.361192,34.9591842 111.730872,34.9643822 111.225481,35.267807 C110.72009,35.5712318 110.419312,36.1250426 110.440019,36.7140487 L110.440019,52.964951 C110.436035,53.5631727 110.746097,54.1196773 111.256952,54.4311978 L158.060164,82.3606273 C158.566154,82.6513892 159.189712,82.6465231 159.6911,82.3478999 C160.192488,82.0492766 160.493651,81.5033858 160.478801,80.9201042 L160.723238,65.7624561 C160.744108,64.9627728 160.343615,64.2108192 159.668301,63.7817367 L159.668301,63.7817367 Z" id="Path" fill="#68E1FD"></path>
                        <path d="M159.668301,63.7817367 L112.871521,35.2542328 C112.361192,34.9591842 111.730872,34.9643822 111.225481,35.267807 C110.72009,35.5712318 110.419312,36.1250426 110.440019,36.7140487 L110.440019,52.964951 C110.436035,53.5631727 110.746097,54.1196773 111.256952,54.4311978 L158.060164,82.3606273 C158.566154,82.6513892 159.189712,82.6465231 159.6911,82.3478999 C160.192488,82.0492766 160.493651,81.5033858 160.478801,80.9201042 L160.723238,65.7624561 C160.744108,64.9627728 160.343615,64.2108192 159.668301,63.7817367 L159.668301,63.7817367 Z" id="Path" fill="#68E1FD"></path>
                        <path d="M148.462804,72.1483469 C150.141698,74.495628 153.094238,75.1515805 155.049732,73.6210246 C157.005226,72.0904687 157.230365,68.9457551 155.55147,66.6049049 C153.872576,64.2640547 150.920037,63.6016713 148.964542,65.1322272 C147.009048,66.6627831 146.803207,69.8010658 148.462804,72.1483469 Z" id="Path" fill="#FFFFFF"></path>
                        <path d="M143.869965,60.8813976 L124.771733,49.3893666 C124.431947,49.2303124 124.026903,49.3559349 123.836821,49.6793254 C123.646739,50.0027159 123.734081,50.4176052 124.038423,50.6369626 L143.130222,62.1289936 C143.470009,62.2880478 143.875053,62.1624253 144.065135,61.8390348 C144.255217,61.5156443 144.167874,61.100755 143.863533,60.8813976 L143.869965,60.8813976 Z" id="Path" fill="#F2F2F2"></path>
                        <path d="M143.078762,65.5566671 L116.763212,49.7173429 C116.423426,49.5582886 116.018382,49.6839112 115.8283,50.0073017 C115.638218,50.3306922 115.725561,50.7455814 116.029902,50.9649388 L142.345452,66.804263 C142.685238,66.9633173 143.090282,66.8376947 143.280364,66.5143043 C143.470446,66.1909138 143.383103,65.7760245 143.078762,65.5566671 L143.078762,65.5566671 Z" id="Path" fill="#F2F2F2"></path>
                        <path d="M98.2503422,62.1868717 C95.2263425,64.7890961 92.9393364,68.1400032 91.6183863,71.9039724 C89.2898043,78.3348795 95.1112593,88.8429817 95.1112593,88.8429817 L104.168285,81.6725203" id="Path" fill="#FF8F6F"></path>
                        <path d="M97.2725951,147.209895 L94.8153621,145.852973 L95.4586168,142.341698 C95.4586168,142.341698 99.118736,142.688967 99.4403634,143.98801" id="Path" fill="#003B94"></path>
                        <path d="M98.1731516,147.158447 C98.7263507,146.817609 99.3052799,146.515357 99.8777766,146.213104 C101.299369,145.434964 103.351352,144.631101 104.226178,143.171285 C104.593219,142.566839 104.547092,141.798247 104.110392,141.242013 C102.823883,139.685733 100.006428,142.245234 98.565537,140.521751 C98.2825049,140.180913 98.1474214,134.77252 98.1474214,134.77252 L92.6668914,136.251629 C92.6668914,136.251629 91.7406047,147.119862 91.8435254,147.788676 C91.9464462,148.457491 93.8311824,149.074858 93.8311824,149.074858 C94.3925125,148.955643 94.9282664,148.737912 95.413589,148.431767 C95.9860857,148.013758 95.4650494,142.914049 96.1983597,143.627879 C96.9316701,144.34171 97.2532974,147.132724 97.2532974,147.132724 C97.557714,147.178823 97.8666334,147.187462 98.1731516,147.158447 Z" id="Path" fill="#F47B56"></path>
                        <path d="M107.738349,152.463946 L105.281116,151.126317 L105.924371,147.615042 C105.924371,147.615042 109.58449,147.962311 109.906117,149.261354" id="Path" fill="#003B94"></path>
                        <path d="M108.664636,152.412498 C109.217835,152.07166 109.796764,151.769408 110.369261,151.467155 C111.790854,150.689015 113.842836,149.885152 114.717662,148.425336 C115.084703,147.82089 115.038576,147.052298 114.601877,146.496064 C113.315367,144.939784 110.497912,147.499285 109.057021,145.775802 C108.773989,145.434964 108.638906,140.026571 108.638906,140.026571 L103.158376,141.50568 C103.158376,141.50568 102.225656,152.412498 102.328577,153.055589 C102.431498,153.69868 104.316234,154.341771 104.316234,154.341771 C104.877564,154.222556 105.413318,154.004825 105.898641,153.69868 C106.471137,153.280671 105.950101,148.180962 106.683411,148.894792 C107.416722,149.608623 107.738349,152.399637 107.738349,152.399637 C108.045408,152.441983 108.356519,152.446302 108.664636,152.412498 Z" id="Path" fill="#F47B56"></path>
                        <path d="M89.8815986,117.132542 L88.2670293,138.721097 C88.2670293,138.721097 90.8400481,142.270958 99.4660936,140.296669 L99.4660936,140.296669 L99.5497167,125.743527" id="Path" fill="#3E2928"></path>
                        <path d="M99.8456138,121.409095 C99.65907,123.267627 99.8456138,143.769359 99.8456138,143.769359 C99.8456138,143.769359 102.232089,148.232409 112.620652,143.769359 L112.472704,126.348032" id="Path" fill="#3E2928"></path>
                        <path d="M89.0775302,124.264418 C89.7851104,124.753167 90.0295472,122.238682 90.7692901,122.669553 C93.4605581,124.232402 96.31692,125.491987 99.2859822,126.425203 L99.3503077,126.425203 C99.4931915,126.355751 99.6581758,126.347346 99.8073807,126.401919 C99.9565856,126.456493 100.077193,126.569355 100.141511,126.714594 C101.97557,127.261656 103.842651,127.691255 105.731394,128.000775 C108.156464,128.38663 110.163419,126.592406 112.652836,126.470219 C112.652836,116.939615 112.697843,89.8140487 108.638906,84.0262323 L96.6293404,79.9876226 C96.5714474,80.9779823 90.8014528,87.6661257 90.9429689,95.8205159 C91.1037825,105.010282 89.9073288,113.679145 89.7014873,116.55376 C89.6693246,117.042509 89.1032604,123.743515 89.0775302,124.264418 Z" id="Path" fill="#3E2928"></path>
                        <path d="M109.745304,73.0679666 L108.638906,84.0005087 C108.638906,84.0005087 99.6783676,84.3606395 95.8188394,81.6982439 L95.8188394,72.4248759" id="Path" fill="#FF8F6F"></path>
                        <path d="M121.137344,65.8717815 L120.223923,67.1193775 C120.710928,66.1046578 121.140443,65.063349 121.510432,64.0003875 C121.767734,63.273695 120.603443,62.9843042 120.346141,63.7109967 L120.211057,64.0839893 C120.322555,63.6981349 120.42762,63.3101369 120.526252,62.9199952 C120.606186,62.598567 120.410349,62.2732157 120.088839,62.1933027 C119.767329,62.1133896 119.441895,62.3091762 119.361961,62.6306043 C119.109613,63.6397553 118.806904,64.6356479 118.454972,65.6145452 C118.651501,64.7453952 118.793295,63.864775 118.87952,62.9778733 C118.956711,62.2125954 117.753825,62.2447499 117.683067,62.9778733 C117.583144,63.9874934 117.402454,64.9874846 117.142733,65.9682451 C117.142733,65.6252634 117.11057,65.2822817 117.046244,64.9393 C117.028513,64.7662843 116.937103,64.609286 116.795375,64.5084292 C116.763212,64.3733802 116.724617,64.244762 116.679589,64.109713 C116.585425,63.83197 116.305443,63.6618586 116.015479,63.7062133 C115.725515,63.7505681 115.50922,63.9965933 115.502433,64.2897784 L115.425243,68.7914133 C115.207365,69.2582449 114.923582,69.6913898 114.582579,70.0775948 C115.161366,70.4779041 115.719564,70.9071778 116.255041,71.3637762 C116.732615,71.7674473 117.187855,72.1968097 117.618741,72.6499576 C118.004694,72.1697832 118.375637,71.6810343 118.731572,71.1837108 C118.775786,71.1462487 118.814734,71.1029844 118.847358,71.0550926 C119.919449,69.4688022 121.025847,67.9082354 122.166552,66.3733923 C122.64256,65.8460579 121.594055,65.2608453 121.137344,65.8717815 Z" id="Path" fill="#FFB5A9"></path>
                        <path d="M104.058932,63.1000606 C104.058932,63.1000606 108.291548,64.2383311 110.009038,66.9586048 C111.084563,68.8414264 112.032283,70.7943931 112.845791,72.8042994 L115.972009,67.9489645 C115.972009,67.9489645 119.767212,69.1129587 121.272428,70.9779218 C121.272428,70.9779218 116.769645,80.8172096 112.845791,81.6596585 C108.921938,82.5021073 104.753647,75.8847039 104.753647,75.8847039 C104.753647,75.8847039 103.891686,78.6499939 104.058932,75.6982076" id="Path" fill="#FF8F6F"></path>
                        <path d="M106.747737,73.6145937 C105.517428,72.6138082 104.588885,71.2914735 104.065365,69.7946349 C103.557193,68.0647208 104.194016,66.5470268 104.78581,64.9393 C105.426427,63.3456926 105.800226,61.6575097 105.892208,59.9424852 C105.943668,58.2575875 105.750692,56.5726898 105.634906,54.8942231 C105.61839,54.8222747 105.61839,54.7475206 105.634906,54.6755722 C105.068842,52.7784546 103.910984,51.1707279 101.627429,50.9778007 C95.7159187,50.4761899 95.3814262,57.0228533 95.4264541,59.6852489 C95.4714819,62.3476444 95.754514,64.1482984 93.7925872,65.2608453 C91.8306603,66.3733923 90.4155,69.2930241 92.2873712,71.653167 C94.1592423,74.0133099 92.4803476,73.1515684 91.2324335,75.2480441 C89.9845194,77.3445198 90.3061467,79.961899 92.8663004,80.9072423 C95.4264541,81.8525857 107.326666,80.0776553 108.420199,78.9779702 C108.808273,78.5349198 109.00894,77.9584366 108.979831,77.3702434 C108.712928,75.8903055 107.920252,74.556574 106.747737,73.6145937 L106.747737,73.6145937 Z" id="Path" fill="#007F68"></path>
                        <path d="M112.562759,19.6206976 C113.564824,21.0622662 114.144086,22.755064 114.235221,24.508187 C114.347267,25.3108724 114.151985,26.1262525 113.688455,26.791159 C113.282552,27.2372645 112.625614,27.35114 112.093183,27.067688 C111.767998,26.9381703 111.474152,26.7408616 111.231222,26.4889064 C111.012916,26.284113 110.826456,26.0478461 110.678023,25.7879375 L110.523642,25.4856849 C110.48156,25.5647545 110.429692,25.6382153 110.369261,25.7043357 C110.215824,25.8236324 110.034104,25.9011763 109.841792,25.9294175 C109.520075,25.9889473 109.18784,25.9485505 108.889775,25.8136611 C108.178878,25.5060416 107.587348,24.9756058 107.204448,24.302398 C106.743046,23.5708931 106.485444,22.7294592 106.458272,21.8650842 C106.363036,21.1652376 106.581999,20.4590853 107.056499,19.935812 C107.474,19.5332527 108.09911,19.4355239 108.619608,19.6914376 C108.877597,19.7941214 109.115072,19.9422336 109.320755,20.1287393 C109.496052,20.2777764 109.651681,20.4484927 109.783899,20.6367809 L109.899685,20.8425699 L109.899685,20.2702192 L111.186194,20.77183 L111.314845,24.3859998 C111.323713,24.6449132 111.403842,24.8963648 111.546417,25.1126923 C111.667319,25.3216911 111.852245,25.4862787 112.073886,25.5821485 C112.695698,25.826523 112.983019,25.290614 112.935847,23.9744217 C112.871072,22.6708317 112.440864,21.4117367 111.694365,20.3409592 C111.023463,19.2515462 110.026433,18.4010247 108.844747,17.9100763 C107.967279,17.4641791 106.906413,17.5993029 106.168807,18.2509144 C105.390355,19.0327489 105.009343,20.1258095 105.133167,21.2219935 C105.206654,22.6005241 105.651137,23.9336324 106.419677,25.0805377 C107.031609,26.2133825 107.995739,27.1163187 109.166374,27.6529006 C109.57371,27.8230279 110.011456,27.9083667 110.452884,27.9037059 C110.740162,27.9231508 111.027719,27.8700768 111.289115,27.7493642 L111.546417,27.6078842 L112.324755,29.0548383 L112.196104,29.144871 C112.073842,29.2134547 111.947041,29.2736163 111.816584,29.3249364 C111.611284,29.4137256 111.394897,29.4742983 111.173329,29.5050018 C110.889425,29.5430898 110.601704,29.5430898 110.3178,29.5050018 C109.944931,29.460566 109.579469,29.3676024 109.2307,29.2284728 C108.240128,28.8024867 107.360046,28.1557913 106.657681,27.3377861 C105.825277,26.4177362 105.151421,25.3659191 104.663592,24.2252271 C104.175213,23.1358099 103.895913,21.9643577 103.840225,20.77183 C103.770886,19.7692945 103.975444,18.7667717 104.43202,17.8714909 C104.811179,17.1204016 105.465561,16.5445077 106.258863,16.2637641 C107.090263,15.9899729 107.993892,16.0358307 108.793287,16.3923822 C110.354047,17.0519637 111.671256,18.1800709 112.562759,19.6206976 L112.562759,19.6206976 Z M109.726006,24.1930725 C109.937107,23.9235445 110.032024,23.5810029 109.98974,23.2412983 C109.979515,22.8221373 109.862149,22.4125683 109.648815,22.0515805 C109.474463,21.7364496 109.20083,21.4877555 108.870477,21.3441807 C108.611029,21.2104917 108.295877,21.2514767 108.079274,21.4470752 C107.854596,21.7024183 107.751389,22.0424458 107.796242,22.3795567 C107.810781,22.803627 107.937279,23.2163042 108.162897,23.5757055 C108.348396,23.9022499 108.635144,24.1595798 108.979831,24.3088289 C109.227426,24.4356061 109.528483,24.3889024 109.726006,24.1930725" id="Shape" fill="#F47B56"></path>
                        <path d="M188.511841,89.2545598 C189.51545,90.6953465 190.094868,92.3885984 190.184303,94.1420492 C190.296349,94.9447345 190.101067,95.7601147 189.637537,96.4250212 C189.23048,96.8690209 188.575074,96.9826309 188.042265,96.7015502 C187.71807,96.5701625 187.424591,96.3731003 187.180304,96.1227686 C186.963166,95.9169059 186.77685,95.6808211 186.627105,95.4217997 L186.472724,95.1195471 C186.429254,95.1977541 186.377496,95.2710594 186.318343,95.3381979 C186.16568,95.4588036 185.983595,95.5365031 185.790874,95.5632796 C185.472029,95.6273194 185.141098,95.5890583 184.845289,95.4539542 C184.133424,95.1446676 183.541775,94.6118672 183.159962,93.9362601 C182.694334,93.2039361 182.434378,92.3598492 182.407354,91.4925154 C182.30846,90.7923704 182.527895,90.0846941 183.005581,89.5632433 C183.421027,89.1617878 184.043731,89.0640328 184.562257,89.3188688 C184.820437,89.4211756 185.057977,89.5693279 185.263405,89.7561705 C185.438634,89.9076893 185.594222,90.0805211 185.726548,90.2706431 L185.848767,90.4764321 L185.848767,89.9040814 L187.135276,90.3992612 L187.263927,94.013431 C187.275343,94.2718973 187.355261,94.5226875 187.495499,94.7401235 C187.616401,94.9491224 187.801327,95.11371 188.022967,95.2095798 C188.666222,95.4539542 188.929957,94.9201889 188.891361,93.601853 C188.826065,92.2963769 188.39596,91.0353549 187.64988,89.9619595 C186.978959,88.876541 185.984626,88.0286499 184.806694,87.5375076 C183.930186,87.091715 182.870531,87.2241381 182.130754,87.8719147 C181.356041,88.6628545 180.984251,89.7637364 181.120845,90.8622865 C181.193063,92.2410575 181.637655,93.5744942 182.407354,94.7208308 C183.043168,95.8265093 184.017252,96.6989041 185.186214,97.2095919 C185.59391,97.3792384 186.031123,97.4666587 186.472724,97.4668281 C186.759842,97.483607 187.046756,97.4306517 187.308955,97.3124864 L187.566257,97.1710064 L188.344595,98.6179605 L188.215944,98.7079932 C188.093682,98.7765769 187.966881,98.8367385 187.836424,98.8880586 C187.629867,98.973255 187.413945,99.0336977 187.193169,99.068124 C186.907099,99.1060247 186.617278,99.1060247 186.331208,99.068124 C185.960204,99.0212187 185.596912,98.926095 185.25054,98.7851641 C184.260606,98.3610338 183.380579,97.7165782 182.677521,96.9009083 C181.844898,95.978625 181.171057,94.9246587 180.683431,93.7819184 C180.194616,92.6926496 179.915296,91.5211134 179.860065,90.3285213 C179.790275,89.3280212 179.994889,88.3274474 180.45186,87.4346131 C180.831848,86.6827373 181.485637,86.1050635 182.278703,85.8204554 C183.112636,85.5493263 184.017284,85.5951196 184.819559,85.9490735 C186.362312,86.6431353 187.652172,87.797872 188.511841,89.2545598 Z M185.675088,93.8269347 C185.888475,93.5583791 185.985735,93.2157412 185.945255,92.8751605 C185.933941,92.4552901 185.814287,92.0454681 185.597897,91.6854427 C185.426742,91.3701508 185.155029,91.1211437 184.825992,90.9780429 C184.567844,90.8426286 184.252818,90.8810367 184.034788,91.0745065 C183.806268,91.3279006 183.700454,91.6687703 183.745324,92.006988 C183.760076,92.429012 183.886601,92.8395607 184.111979,93.1967058 C184.297128,93.5250593 184.58377,93.7845506 184.928912,93.9362601 C185.175162,94.0646904 185.476054,94.0206054 185.675088,93.8269347" id="Shape" fill="#F47B56"></path>
                        <path d="M60.3240454,116.675948 L38.5498739,104.290021 L16.782135,116.701671 C16.782135,116.701671 28.8946209,124.264418 39.7334626,130.618154 C46.6162878,125.756389 52.7336399,120.193654 60.3240454,116.675948 Z" id="Path" fill="url(#linearGradient-5)" opacity="0.25" style="mix-blend-mode: multiply;"></path>
                    </g>
                </g>
                <g id="Group-6" transform="translate(21.000000, 68.000000)">
                    <g id="Path">
                        <use fill="black" fill-opacity="1" filter="url(#filter-7)" xlink:href="#path-6"></use>
                        <use fill="#FF9271" fill-rule="evenodd" xlink:href="#path-6"></use>
                    </g>
                    <polygon id="Path" fill="#DF5C34" fill-rule="nonzero" points="20.9841081 25.8958696 20.9841081 52.8306522 44.6777027 38.8181522 44.6777027 11.8833696"></polygon>
                    <polygon id="Path" fill="#F47B56" fill-rule="nonzero" points="-3.55271368e-15 13.8778261 24.3469459 -7.10542736e-15 44.6777027 11.8833696 20.9841081 25.8958696"></polygon>
                    <path d="M21.5413784,6.18217391 C24.0097883,6.01552414 26.4743725,6.55842373 28.644973,7.74695652 C29.8876216,8.47804348 30.5665946,9.24119565 30.6626757,10.036413 C30.7587568,10.8316304 30.3488108,11.5242391 29.3815946,12.1078261 C28.9228451,12.3912564 28.4175393,12.5910141 27.8891351,12.6978261 C27.4549021,12.8003136 27.0091603,12.8455877 26.5632162,12.8325 L26.0764054,12.7940217 C26.1217374,12.902661 26.1519127,13.0170321 26.1660811,13.133913 C26.1508429,13.4107296 26.0624215,13.6785233 25.9098649,13.9098913 C25.6560405,14.3402109 25.2937978,14.6962513 24.8593784,14.9423913 C23.8468019,15.5439604 22.6865529,15.8504714 21.5093514,15.8273913 C20.291361,15.8600911 19.0879267,15.5561001 18.0312162,14.9488043 C17.031973,14.3588043 16.5195405,13.6661957 16.4811081,12.8709783 C16.4890427,12.0114968 16.9865153,11.2320239 17.7621892,10.8636957 C18.1271693,10.636052 18.5245656,10.4652274 18.9407838,10.3570652 C19.2726858,10.2611837 19.614333,10.2030989 19.9592432,10.183913 L20.3115405,10.183913 L19.671,9.79913043 L21.4709189,8.67684783 L25.6408378,11.1330435 C26.2887371,11.4819335 27.0682899,11.4819335 27.7161892,11.1330435 C28.6001351,10.5815217 28.2841351,9.85684783 26.7681892,8.95902174 C25.1566696,8.07176962 23.3252812,7.66455638 21.4901351,7.78543478 C19.5452614,7.80928884 17.6425918,8.35640488 15.9814865,9.36945652 C14.4698108,10.3143116 13.7203784,11.4408696 13.7331892,12.7491304 C13.7331892,14.0317391 14.5338649,15.1732609 16.0903784,16.0903261 C17.7894946,17.0405069 19.7186158,17.5000521 21.6630811,17.4178261 C23.598994,17.4496201 25.5058153,16.9434879 27.1717297,15.9556522 C27.7481312,15.6140752 28.2651834,15.1808795 28.7026216,14.6730435 C28.9952497,14.362446 29.2141888,13.9898058 29.3431622,13.5828261 L29.4328378,13.1788043 L31.8092432,13.3134783 C31.8130667,13.386109 31.8130667,13.458891 31.8092432,13.5315217 C31.7657978,13.7278958 31.7079934,13.9208069 31.6362973,14.1086957 C31.5330441,14.4099481 31.3954896,14.6982961 31.2263514,14.9680435 C30.9821165,15.3316365 30.6985636,15.6671441 30.3808378,15.9684783 C29.9619373,16.3725579 29.5001355,16.729537 29.0036757,17.0330435 C27.5733507,17.8916647 25.9893374,18.4624152 24.3405405,18.7132609 C22.5437276,19.0271232 20.7091167,19.0595754 18.9023514,18.8094565 C17.2600911,18.6159882 15.6727295,18.0971369 14.2328108,17.2831522 C13.0707266,16.6679444 12.13998,15.6910707 11.580973,14.4998913 C11.1193377,13.4497266 11.1193377,12.2537516 11.580973,11.203587 C12.1347011,9.99078224 13.055794,8.98332756 14.2135946,8.32413043 C16.4211642,6.96746636 18.9515059,6.22783183 21.5413784,6.18217391 L21.5413784,6.18217391 Z M23.8729459,12.8132609 C23.7875815,12.3678009 23.4878915,11.9933417 23.0722703,11.8128261 C22.5674699,11.5154403 21.9925701,11.3582612 21.4068649,11.3575 C20.8626055,11.3369414 20.3240956,11.4750713 19.8567568,11.7551087 C19.4730374,11.9422599 19.225861,12.3283149 19.2162162,12.7555435 C19.2748898,13.2004313 19.5615318,13.5822656 19.9720541,13.7623913 C20.4883972,14.0572788 21.0752027,14.2058179 21.6694865,14.1920652 C22.2407107,14.2064017 22.8044635,14.0597401 23.2964595,13.7688043 C23.6688575,13.5982336 23.9051649,13.2232145 23.8985676,12.8132609" id="Shape" fill="#3E2928" fill-rule="nonzero"></path>
                </g>
            </g>
        </g>
    </g>
</svg>