<?xml version="1.0" encoding="UTF-8"?>
<svg width="90px" height="183px" viewBox="0 0 90 183" version="1.1" xmlns="http://www.w3.org/2000/svg" xmlns:xlink="http://www.w3.org/1999/xlink">
    <title>Group 6</title>
    <defs>
        <polyline id="path-1" points="-7.10542736e-15 27.7556522 -7.10542736e-15 81.6252174 41.9682162 105.661304 89.3554054 77.6363043 89.3554054 23.7667391"></polyline>
        <filter x="-97.9%" y="-76.3%" width="295.8%" height="313.7%" filterUnits="objectBoundingBox" id="filter-2">
            <feOffset dx="0" dy="25" in="SourceAlpha" result="shadowOffsetOuter1"></feOffset>
            <feGaussianBlur stdDeviation="25" in="shadowOffsetOuter1" result="shadowBlurOuter1"></feGaussianBlur>
            <feColorMatrix values="0 0 0 0 0.209139076   0 0 0 0 0.0691446444   0 0 0 0 0.478091033  0 0 0 0.497159091 0" type="matrix" in="shadowBlurOuter1"></feColorMatrix>
        </filter>
    </defs>
    <g id="Designs" stroke="none" stroke-width="1" fill="none" fill-rule="evenodd">
        <g id="Desktop-HD" transform="translate(-239.000000, -333.000000)">
            <g id="Group-6" transform="translate(238.930486, 335.125000)">
                <g id="Path">
                    <use fill="black" fill-opacity="1" filter="url(#filter-2)" xlink:href="#path-1"></use>
                    <use fill="#FF9271" fill-rule="evenodd" xlink:href="#path-1"></use>
                </g>
                <polygon id="Path" fill="#DF5C34" fill-rule="nonzero" points="41.9682162 51.7917391 41.9682162 105.661304 89.3554054 77.6363043 89.3554054 23.7667391"></polygon>
                <polygon id="Path" fill="#F47B56" fill-rule="nonzero" points="-7.10542736e-15 27.7556522 48.6938919 -1.42108547e-14 89.3554054 23.7667391 41.9682162 51.7917391"></polygon>
                <path d="M43.0827568,12.3643478 C48.0195766,12.0310483 52.9487451,13.1168475 57.2899459,15.493913 C59.7752432,16.956087 61.1331892,18.4823913 61.3253514,20.0728261 C61.5175135,21.6632609 60.6976216,23.0484783 58.7631892,24.2156522 C57.8456901,24.7825127 56.8350786,25.1820283 55.7782703,25.3956522 C54.9098042,25.6006272 54.0183206,25.6911754 53.1264324,25.665 L52.1528108,25.5880435 C52.2434748,25.8053219 52.3038253,26.0340642 52.3321622,26.2678261 C52.3016857,26.8214593 52.1248429,27.3570467 51.8197297,27.8197826 C51.312081,28.6804217 50.5875955,29.3925025 49.7187568,29.8847826 C47.6936038,31.0879208 45.3731059,31.7009429 43.0187027,31.6547826 C40.5827219,31.7201822 38.1758535,31.1122003 36.0624324,29.8976087 C34.0639459,28.7176087 33.0390811,27.3323913 32.9622162,25.7419565 C32.9780854,24.0229936 33.9730305,22.4640477 35.5243784,21.7273913 C36.2543387,21.2721041 37.0491312,20.9304547 37.8815676,20.7141304 C38.5453716,20.5223673 39.2286659,20.4061978 39.9184865,20.3678261 L40.6230811,20.3678261 L39.342,19.5982609 L42.9418378,17.3536957 L51.2816757,22.266087 C52.5774742,22.963867 54.1365799,22.963867 55.4323784,22.266087 C57.2002703,21.1630435 56.5682703,19.7136957 53.5363784,17.9180435 C50.3133391,16.1435392 46.6505623,15.3291128 42.9802703,15.5708696 C39.0905229,15.6185777 35.2851836,16.7128098 31.962973,18.738913 C28.9396216,20.6286232 27.4407568,22.8817391 27.4663784,25.4982609 C27.4663784,28.0634783 29.0677297,30.3465217 32.1807568,32.1806522 C35.5789891,34.0810139 39.4372316,35.0001042 43.3261622,34.8356522 C47.197988,34.8992402 51.0116306,33.8869758 54.3434595,31.9113043 C55.4962623,31.2281504 56.5303668,30.3617591 57.4052432,29.346087 C57.9904994,28.7248921 58.4283776,27.9796116 58.6863243,27.1656522 L58.8656757,26.3576087 L63.6184865,26.6269565 C63.6261333,26.772218 63.6261333,26.917782 63.6184865,27.0630435 C63.5315957,27.4557916 63.4159869,27.8416138 63.2725946,28.2173913 C63.0660881,28.8198961 62.7909793,29.3965922 62.4527027,29.936087 C61.964233,30.663273 61.3971273,31.3342881 60.7616757,31.9369565 C59.9238747,32.7451158 59.0002711,33.459074 58.0073514,34.066087 C55.1467015,35.7833294 51.9786748,36.9248304 48.6810811,37.4265217 C45.0874553,38.0542463 41.4182334,38.1191509 37.8047027,37.618913 C34.5201822,37.2319764 31.3454589,36.1942739 28.4656216,34.5663043 C26.1414531,33.3358887 24.2799601,31.3821415 23.1619459,28.9997826 C22.2386755,26.8994533 22.2386755,24.5075033 23.1619459,22.4071739 C24.2694023,19.9815645 26.1115881,17.9666551 28.4271892,16.6482609 C32.8423283,13.9349327 37.9030118,12.4556637 43.0827568,12.3643478 L43.0827568,12.3643478 Z M47.7458919,25.6265217 C47.575163,24.7356017 46.9757829,23.9866835 46.1445405,23.6256522 C45.1349399,23.0308805 43.9851402,22.7165223 42.8137297,22.715 C41.7252111,22.6738829 40.6481912,22.9501426 39.7135135,23.5102174 C38.9460748,23.8845198 38.451722,24.6566299 38.4324324,25.511087 C38.5497797,26.4008626 39.1230635,27.1645312 39.9441081,27.5247826 C40.9767945,28.1145576 42.1504054,28.4116357 43.338973,28.3841304 C44.4814214,28.4128035 45.6089269,28.1194802 46.5929189,27.5376087 C47.337715,27.1964672 47.8103299,26.446429 47.7971351,25.6265217" id="Shape" fill="#3E2928" fill-rule="nonzero"></path>
            </g>
        </g>
    </g>
</svg>