<svg width="47" height="41" xmlns="http://www.w3.org/2000/svg">
<style type="text/css">
	.st0{fill:url(#SVGID_1_);}
</style>
<linearGradient id="SVGID_1_" gradientUnits="userSpaceOnUse" x1="6.5942" y1="1.1698" x2="38.0377" y2="32.6132">
	<stop  offset="0" style="stop-color:#FF52C1"/>
	<stop  offset="0.2472" style="stop-color:#FC52C3"/>
	<stop  offset="0.4367" style="stop-color:#F252C9"/>
	<stop  offset="0.6069" style="stop-color:#E252D3"/>
	<stop  offset="0.7659" style="stop-color:#CB52E1"/>
	<stop  offset="0.9156" style="stop-color:#AD52F3"/>
	<stop  offset="1" style="stop-color:#9952FF"/>
</linearGradient>
<path class="st0" d="M29.4,0.2c-8.1,0-16.6,1.8-25.1,4.2C3.3,4.6,2.2,5.4,1.6,6.2C1.1,7.1,0.9,7.9,0.8,8.8C0,13.4,0.1,18,0.2,23
	c0,1.2,0.2,2.5,0.8,3.4c0.6,0.8,1.5,1.4,2.7,1.6c1.5,0.2,3,0.4,4.4,0.5l-0.3,9.1c0,0.6,0.2,1.3,0.7,1.7c0.4,0.3,0.8,0.4,1.3,0.5
	c0.9,0.1,2-0.3,2.5-1.3c2.3-4.4,3.7-6.4,6.6-9.3c7.5,0.2,14.1-0.2,21.5-0.8c2.6-0.1,4.4-2.2,4.9-3.9c1.4-4.4,1.6-9.9,1.8-15.5
	c0.1-2.2-0.7-4.4-2-5.5c-1.3-1-2.8-1.4-4.3-1.8C36.9,0.7,32.9,0.3,29.4,0.2z M40.2,3.7c1.4,0.4,2.7,0.8,3.5,1.4C45,6.5,45,7.5,45,9
	c-0.1,5.4-0.4,10.6-1.6,14.5c-0.5,1.5-1.4,2.5-3.2,2.7c-7.6,0.6-14.1,1-21.7,0.8c-0.3,0-0.6,0.1-0.8,0.3c-3.2,3.2-4.8,5.5-7.3,10.1
	c-0.1,0.1-0.2,0.2-0.3,0.2c-0.1,0-0.1-0.1-0.1-0.2l0.3-9.9c0-0.5-0.4-1-1-1.1c-1.8-0.2-3.5-0.4-5.3-0.6c-0.8-0.1-1-0.3-1.3-0.6
	c-0.4-0.9-0.4-1.4-0.4-2.2c-0.2-5-0.3-9.4,0.5-13.7C3,8.6,3.2,7.9,3.4,7.4c0.4-0.7,1.1-0.8,1.7-0.9c8.3-2.3,16.5-4,24.2-4
	C33.1,2.5,37.1,2.9,40.2,3.7z M11.4,12.2c-1.1,1.4-1,3.2-0.1,4.5c0.5,0.7,1.2,1.2,2.1,1.3c1.1,0.1,1.9-0.4,2.7-0.9
	c1.4-1.2,1.6-3.4,0.5-4.9c-0.6-0.8-1.4-1.3-2.3-1.3C12.9,10.9,12.1,11.4,11.4,12.2z M23.8,11.1c-1.1,0-2.1,0.8-2.6,1.7
	c-0.6,1-1,2.2-0.5,3.4c1,2.3,4.5,2.3,5.9-0.1c0.6-1.1,0.5-2.3,0-3.2c-0.5-0.9-1.2-1.6-2.2-1.8C24.2,11.1,24,11.1,23.8,11.1z
	 M33.9,11.3c-0.4,0-0.7,0-1.1,0.1c-1.4,0.4-2.5,1.8-2.4,3.6c0.1,0.9,0.5,1.8,1.3,2.4c0.8,0.6,1.9,0.9,3,0.7c1.3-0.3,2.2-1.3,2.4-2.4
	c0.3-1,0.2-2.1-0.4-3C36.1,11.8,35,11.3,33.9,11.3z M14,13c0.3,0,0.5,0.1,0.7,0.4c0.5,0.7,0.3,1.7-0.1,2.1c-0.5,0.4-0.8,0.4-1,0.4
	c-0.2,0-0.4-0.2-0.6-0.4c-0.4-0.5-0.5-1.3,0-1.9C13.3,13.2,13.7,13,14,13z M24,13.2c0,0,0.5,0.3,0.7,0.7c0.2,0.4,0.3,0.8,0,1.1
	c-0.6,1-1.9,0.7-2.1,0.3c-0.1-0.2,0-0.9,0.3-1.4C23.3,13.4,23.8,13.2,24,13.2z M35.1,14c0.1,0.1,0.2,0.7,0.1,1.1
	c-0.1,0.5-0.3,0.8-0.8,0.8c-0.6,0.1-1,0-1.3-0.2c-0.3-0.2-0.4-0.6-0.5-1c-0.1-1,0.3-1.2,0.8-1.3C34.1,13.3,34.8,13.6,35.1,14z"/>
</svg>
