<?xml version="1.0" encoding="utf-8"?>
<!-- Generator: Adobe Illustrator 24.1.0, SVG Export Plug-In . SVG Version: 6.00 Build 0)  -->
<svg version="1.1" id="Layer_1" xmlns="http://www.w3.org/2000/svg" xmlns:xlink="http://www.w3.org/1999/xlink" x="0px" y="0px"
	 viewBox="0 0 240 39" style="enable-background:new 0 0 240 39;" xml:space="preserve">
<style type="text/css">
	.st0{fill:#FFFFFF;}
</style>
<g>
	<path class="st0" d="M28,0.9c-7.7,0-15.8,1.7-23.9,4C3,5.1,2,5.8,1.5,6.6C1,7.4,0.8,8.2,0.7,9c-0.8,4.4-0.7,8.8-0.5,13.6
		c0,1.1,0.2,2.4,0.7,3.2c0.5,0.8,1.5,1.3,2.6,1.5c1.4,0.2,2.8,0.4,4.2,0.5l-0.3,8.7c0,0.7,0.3,1.3,0.7,1.6c0.4,0.3,0.8,0.4,1.2,0.4
		c0.9,0.1,1.9-0.3,2.4-1.3c2.2-4.2,3.6-6.1,6.3-8.9c7.2,0.2,13.4-0.2,20.5-0.7c2.5-0.1,4.2-2.1,4.7-3.7c1.4-4.2,1.6-9.5,1.7-14.7
		c0.1-2.1-0.7-4.1-2-5.2c-1.2-1-2.7-1.3-4.1-1.7C35,1.4,31.3,0.9,28,0.9z M38.3,4.2c1.4,0.4,2.6,0.7,3.3,1.3
		c1.3,1.3,1.2,2.2,1.2,3.7c-0.1,5.1-0.4,10.1-1.5,13.9c-0.5,1.4-1.4,2.4-3,2.6c-7.2,0.5-13.5,0.9-20.7,0.7c-0.3,0-0.6,0.1-0.8,0.3
		c-3,3.1-4.6,5.2-6.9,9.7c-0.1,0.1-0.2,0.2-0.3,0.2c-0.1,0-0.1-0.1-0.1-0.1l0.3-9.4c0-0.5-0.4-1-0.9-1c-1.7-0.2-3.4-0.4-5.1-0.6
		c-0.7-0.1-1-0.3-1.2-0.6c-0.3-0.8-0.3-1.3-0.4-2.1C2,17.8,1.9,13.6,2.6,9.4c0.1-0.6,0.3-1.2,0.5-1.8c0.4-0.6,1-0.7,1.6-0.9
		c8-2.2,15.7-3.8,23.1-3.8C31.5,3,35.3,3.4,38.3,4.2z M10.8,12.3c-1.1,1.3-1,3.1-0.1,4.3c0.4,0.6,1.1,1.1,2,1.2
		c1.1,0.1,1.8-0.4,2.5-0.9c1.4-1.2,1.5-3.2,0.5-4.7c-0.5-0.8-1.4-1.2-2.2-1.2C12.2,11,11.4,11.5,10.8,12.3L10.8,12.3z M22.6,11.2
		c-1.1,0-2,0.8-2.5,1.6c-0.6,0.9-1,2.1-0.5,3.2c1,2.2,4.3,2.2,5.6-0.1c0.6-1,0.5-2.2,0-3.1c-0.5-0.9-1.1-1.5-2.1-1.7
		C23,11.2,22.8,11.2,22.6,11.2z M32.3,11.4c-0.3,0-0.7,0-1,0.1c-1.3,0.4-2.4,1.7-2.3,3.4c0.1,0.9,0.5,1.7,1.2,2.3
		c0.7,0.6,1.8,0.8,2.9,0.6c1.3-0.3,2.1-1.3,2.3-2.3c0.3-1,0.2-2-0.4-2.8C34.3,11.9,33.3,11.4,32.3,11.4L32.3,11.4z M13.3,13
		c0.2,0,0.4,0.1,0.6,0.4c0.4,0.6,0.3,1.6-0.1,2c-0.4,0.4-0.7,0.4-0.9,0.4c-0.2,0-0.4-0.2-0.6-0.4c-0.3-0.5-0.4-1.3,0-1.8
		C12.6,13.3,13,13.1,13.3,13L13.3,13z M22.8,13.3c0,0,0.5,0.3,0.7,0.6c0.2,0.4,0.2,0.7,0,1.1c-0.6,1-1.8,0.7-2,0.3
		c-0.1-0.2,0-0.8,0.3-1.3C22.2,13.4,22.6,13.2,22.8,13.3L22.8,13.3z M33.3,14c0.1,0.1,0.2,0.6,0.1,1.1c-0.1,0.4-0.3,0.7-0.8,0.8
		c-0.6,0.1-0.9,0-1.2-0.2c-0.3-0.2-0.4-0.6-0.5-0.9c-0.1-0.9,0.2-1.1,0.8-1.3C32.4,13.3,33.1,13.6,33.3,14z"/>
	<path class="st0" d="M57.6,5c0-0.3,0.1-0.5,0.3-0.7C58.1,4.1,58.3,4,58.6,4h6.8c0.2,0,0.5,0.1,0.7,0.3c0.2,0.2,0.4,0.4,0.4,0.7
		v10.9h11.4V5c0-0.3,0.1-0.5,0.3-0.7C78.4,4.1,78.7,4,79,4h6.7c0.3,0,0.6,0.1,0.8,0.2c0.2,0.2,0.3,0.4,0.3,0.7v32.1
		c0,0.3-0.1,0.6-0.3,0.8c-0.2,0.2-0.5,0.3-0.8,0.3H79c-0.3,0-0.6-0.1-0.7-0.3c-0.2-0.2-0.3-0.4-0.3-0.8V24H66.5v13.1
		c0,0.3-0.1,0.6-0.3,0.7c-0.2,0.2-0.5,0.3-0.8,0.3h-6.8c-0.6,0-1-0.3-1-0.9C57.6,37.2,57.6,5,57.6,5z M120.5,37.7
		c-0.2,0.2-0.4,0.3-0.6,0.3c-0.2,0-0.4,0.1-0.6,0.1h-3.5c-0.3,0-0.5,0-0.7-0.2c-0.2-0.1-0.4-0.2-0.5-0.4c-0.1-0.2-0.3-0.4-0.3-0.6
		c-0.1-0.2-0.2-0.4-0.2-0.7l-0.7-2.9c-0.2,0.5-0.6,1-1,1.6c-0.5,0.6-1,1.2-1.7,1.7c-0.7,0.5-1.5,1-2.4,1.3c-0.9,0.4-2,0.5-3.2,0.5
		c-1.7,0-3.3-0.3-4.8-1c-1.4-0.7-2.6-1.6-3.6-2.8c-1-1.2-1.8-2.5-2.3-4.1c-0.6-1.6-0.8-3.2-0.8-5V10.7c0-0.6,0.1-1,0.4-1.3
		C94,9.1,94.4,8.9,95,8.9h5.3c0.7,0,1.1,0.1,1.4,0.3c0.2,0.2,0.4,0.7,0.4,1.3v15c0,0.7,0.2,1.3,0.4,1.9c0.3,0.6,0.7,1.1,1.2,1.6
		c0.5,0.5,1,0.8,1.7,1.1c0.6,0.3,1.3,0.4,1.9,0.4c0.6,0,1.1-0.1,1.7-0.4c0.6-0.3,1.1-0.6,1.6-1c0.5-0.4,0.9-1,1.2-1.5
		c0.3-0.6,0.5-1.2,0.5-1.9V10.6c0-0.3,0.1-0.5,0.2-0.8c0.1-0.3,0.2-0.5,0.4-0.6c0.2-0.1,0.4-0.2,0.6-0.3s0.4-0.1,0.6-0.1h5.2
		c0.7,0,1.1,0.2,1.4,0.5c0.3,0.3,0.4,0.8,0.4,1.3v25.7c0,0.3-0.1,0.6-0.2,0.8s-0.3,0.4-0.5,0.6C120.3,37.8,120.5,37.7,120.5,37.7z
		 M147.2,34.5c-0.4,0.4-0.9,0.9-1.4,1.3c-0.5,0.5-1,0.9-1.6,1.3c-0.6,0.4-1.2,0.8-1.9,1c-0.7,0.3-1.5,0.4-2.2,0.4
		c-2.1,0-4-0.4-5.8-1.2c-1.7-0.8-3.3-1.8-4.5-3.2c-1.3-1.4-2.3-3-3-4.8c-0.7-1.8-1.1-3.8-1.1-5.9c0-2.1,0.4-4.1,1.1-5.9
		c0.7-1.8,1.7-3.4,3-4.8c1.3-1.4,2.8-2.5,4.5-3.2c1.8-0.8,3.7-1.2,5.8-1.2c0.8,0,1.6,0.1,2.3,0.4c0.7,0.2,1.3,0.5,1.9,0.9
		c0.6,0.4,1.1,0.8,1.6,1.3c0.5,0.5,0.9,1,1.4,1.4V2c0-0.5,0.1-0.9,0.4-1.2c0.3-0.3,0.7-0.5,1.3-0.5h5.2c0.2,0,0.4,0,0.6,0.1
		c0.2,0.1,0.4,0.2,0.6,0.4c0.2,0.2,0.3,0.3,0.4,0.6c0.1,0.2,0.2,0.5,0.2,0.7v34.4c0,1.2-0.6,1.8-1.9,1.8h-4.5c-0.3,0-0.5,0-0.7-0.1
		c-0.2-0.1-0.3-0.2-0.4-0.3c-0.1-0.2-0.2-0.4-0.3-0.6c-0.1-0.3-0.2-0.5-0.3-0.8L147.2,34.5L147.2,34.5z M134,23.5
		c0,1,0.2,1.9,0.5,2.8c0.3,0.9,0.8,1.6,1.3,2.3c0.6,0.6,1.3,1.2,2.1,1.5c0.8,0.4,1.7,0.6,2.7,0.6c1,0,1.9-0.2,2.8-0.5
		c0.8-0.3,1.6-0.8,2.3-1.5c0.6-0.6,1.2-1.4,1.6-2.2c0.4-0.8,0.6-1.7,0.7-2.7v-0.3c0-1-0.2-1.9-0.6-2.8c-0.4-0.9-0.9-1.7-1.5-2.3
		c-0.7-0.7-1.4-1.2-2.3-1.6c-0.9-0.4-1.9-0.6-2.9-0.6c-1,0-1.9,0.2-2.7,0.6c-0.8,0.4-1.5,0.9-2.1,1.6c-0.6,0.7-1,1.5-1.3,2.3
		C134.1,21.6,133.9,22.6,134,23.5L134,23.5z M182.7,34.5c-0.4,0.4-0.9,0.9-1.4,1.3s-1,0.9-1.6,1.3c-0.6,0.4-1.2,0.8-1.9,1
		c-0.7,0.3-1.5,0.4-2.2,0.4c-2.1,0-4-0.4-5.8-1.2c-1.7-0.8-3.3-1.8-4.5-3.2c-1.3-1.4-2.3-3-3-4.8c-0.7-1.8-1.1-3.8-1.1-5.9
		c0-2.1,0.4-4.1,1.1-5.9s1.7-3.4,3-4.8c1.3-1.4,2.8-2.5,4.5-3.2c1.8-0.8,3.7-1.2,5.8-1.2c0.8,0,1.6,0.1,2.3,0.4
		c0.7,0.2,1.3,0.5,1.9,0.9c0.6,0.4,1.1,0.8,1.6,1.3c0.5,0.5,0.9,1,1.4,1.4V2c0-0.5,0.1-0.9,0.4-1.2c0.3-0.3,0.7-0.5,1.3-0.5h5.2
		c0.2,0,0.4,0,0.6,0.1c0.2,0.1,0.4,0.2,0.6,0.4c0.2,0.2,0.3,0.3,0.4,0.6c0.1,0.2,0.2,0.5,0.2,0.7v34.4c0,1.2-0.6,1.8-1.9,1.8h-4.5
		c-0.3,0-0.5,0-0.7-0.1c-0.2-0.1-0.3-0.2-0.4-0.3c-0.1-0.2-0.2-0.4-0.3-0.6c-0.1-0.3-0.2-0.5-0.3-0.8L182.7,34.5L182.7,34.5z
		 M169.5,23.5c0,1,0.2,1.9,0.5,2.8c0.3,0.9,0.8,1.6,1.3,2.3c0.6,0.6,1.3,1.2,2.1,1.5c0.8,0.4,1.7,0.6,2.7,0.6c1,0,1.9-0.2,2.8-0.5
		c0.8-0.3,1.6-0.8,2.3-1.5c0.6-0.6,1.2-1.4,1.6-2.2c0.4-0.8,0.6-1.7,0.7-2.7v-0.3c0-1-0.2-1.9-0.6-2.8c-0.4-0.9-0.9-1.7-1.5-2.3
		c-0.7-0.7-1.4-1.2-2.3-1.6c-0.9-0.4-1.9-0.6-2.9-0.6c-1,0-1.9,0.2-2.7,0.6c-0.8,0.4-1.5,0.9-2.1,1.6c-0.6,0.7-1,1.5-1.3,2.3
		C169.6,21.6,169.5,22.6,169.5,23.5L169.5,23.5z M197.6,2c0-0.5,0.1-0.9,0.4-1.2c0.2-0.3,0.7-0.5,1.3-0.5h5.6c0.2,0,0.3,0,0.5,0.1
		c0.2,0.1,0.3,0.2,0.5,0.4c0.1,0.2,0.3,0.3,0.4,0.6c0.1,0.2,0.1,0.5,0.1,0.7v34.3c0,0.6-0.2,1-0.5,1.3c-0.3,0.3-0.8,0.4-1.3,0.4
		h-5.3c-0.6,0-1-0.2-1.3-0.4c-0.2-0.3-0.4-0.7-0.4-1.3V2z M236.3,34.6c-1.3,1.2-2.9,2.2-4.6,2.9c-1.7,0.7-3.5,1.1-5.4,1
		c-2.1,0-4.1-0.4-6-1.2c-1.8-0.7-3.5-1.8-4.9-3.2c-1.4-1.4-2.6-3-3.4-4.8c-0.8-1.8-1.2-3.8-1.2-6c0-1.3,0.2-2.7,0.5-3.9
		c0.3-1.2,0.8-2.4,1.4-3.6c0.6-1.1,1.3-2.1,2.2-3c0.9-0.9,1.8-1.7,2.9-2.4c1.1-0.7,2.3-1.2,3.5-1.5c1.3-0.4,2.6-0.6,4-0.6
		c1.3,0,2.5,0.2,3.7,0.5c1.2,0.3,2.3,0.8,3.4,1.4c1.1,0.6,2,1.3,2.9,2.2c0.9,0.8,1.6,1.8,2.3,2.8c0.6,1,1.1,2.1,1.5,3.3
		c0.3,1.2,0.5,2.3,0.5,3.6c0,0.8,0,1.4,0,2c0,0.5-0.1,0.9-0.4,1.2c-0.2,0.3-0.6,0.5-1.1,0.6c-0.5,0.1-1.2,0.2-2.2,0.2h-16.5
		c0.2,1,0.5,1.8,0.9,2.5c0.4,0.6,1,1.2,1.6,1.6c0.6,0.4,1.3,0.7,2,0.8c0.6,0.2,1.3,0.2,2,0.3c0.6,0,1.1-0.1,1.7-0.2
		c0.6-0.1,1.1-0.3,1.7-0.5c0.5-0.2,1-0.4,1.5-0.7c0.5-0.3,0.8-0.5,1.1-0.8c0.2-0.2,0.5-0.3,0.6-0.4c0.2-0.1,0.4-0.1,0.6-0.1
		c0.2,0,0.4,0.1,0.6,0.2c0.3,0.2,0.5,0.4,0.7,0.6l2.4,2.8c0.2,0.2,0.3,0.4,0.3,0.5c0,0.2,0.1,0.3,0.1,0.5c0,0.3-0.1,0.6-0.3,0.8
		C236.7,34.3,236.5,34.5,236.3,34.6L236.3,34.6z M225.3,15.5c-0.6,0-1.2,0.1-1.7,0.4c-0.6,0.2-1.1,0.6-1.6,1
		c-0.5,0.4-0.9,0.9-1.3,1.4c-0.4,0.5-0.7,1-1,1.5h11.7c-0.3-0.6-0.7-1.1-1-1.7c-0.4-0.5-0.8-0.9-1.3-1.3c-0.5-0.4-1.1-0.7-1.7-0.9
		C226.8,15.6,226.1,15.5,225.3,15.5z"/>
</g>
</svg>
